%TF.GenerationSoftware,KiCad,Pcbnew,(6.0.0-0)*%
%TF.CreationDate,2022-01-15T15:50:31+00:00*%
%TF.ProjectId,uTracer_board,75547261-6365-4725-9f62-6f6172642e6b,rev?*%
%TF.SameCoordinates,Original*%
%TF.FileFunction,Copper,L1,Top*%
%TF.FilePolarity,Positive*%
%FSLAX46Y46*%
G04 Gerber Fmt 4.6, Leading zero omitted, Abs format (unit mm)*
G04 Created by KiCad (PCBNEW (6.0.0-0)) date 2022-01-15 15:50:31*
%MOMM*%
%LPD*%
G01*
G04 APERTURE LIST*
%TA.AperFunction,ComponentPad*%
%ADD10R,1.800000X1.800000*%
%TD*%
%TA.AperFunction,ComponentPad*%
%ADD11C,1.800000*%
%TD*%
%TA.AperFunction,ComponentPad*%
%ADD12C,1.600000*%
%TD*%
%TA.AperFunction,ComponentPad*%
%ADD13O,1.600000X1.600000*%
%TD*%
%TA.AperFunction,ComponentPad*%
%ADD14R,1.524000X1.524000*%
%TD*%
%TA.AperFunction,ComponentPad*%
%ADD15C,1.524000*%
%TD*%
%TA.AperFunction,ComponentPad*%
%ADD16R,1.700000X1.700000*%
%TD*%
%TA.AperFunction,ComponentPad*%
%ADD17O,1.700000X1.700000*%
%TD*%
%TA.AperFunction,ComponentPad*%
%ADD18O,1.600000X2.000000*%
%TD*%
%TA.AperFunction,Conductor*%
%ADD19C,0.250000*%
%TD*%
G04 APERTURE END LIST*
D10*
%TO.P,D1,1*%
%TO.N,GND*%
X127762000Y-122428000D03*
D11*
%TO.P,D1,2*%
%TO.N,Net-(D1-Pad2)*%
X130302000Y-122428000D03*
%TD*%
D12*
%TO.P,R2,1*%
%TO.N,Net-(R2-Pad1)*%
X127254000Y-106426000D03*
D13*
%TO.P,R2,2*%
%TO.N,Net-(D1-Pad2)*%
X127254000Y-116586000D03*
%TD*%
D12*
%TO.P,R4,1*%
%TO.N,Net-(R4-Pad1)*%
X130556000Y-106426000D03*
D13*
%TO.P,R4,2*%
%TO.N,Net-(D3-Pad2)*%
X130556000Y-116586000D03*
%TD*%
D14*
%TO.P,U1,1*%
%TO.N,Net-(U1-Pad1)*%
X94070001Y-81030001D03*
D15*
%TO.P,U1,2*%
%TO.N,Net-(U1-Pad2)*%
X94070001Y-83570001D03*
%TO.P,U1,3*%
%TO.N,Net-(U1-Pad3)*%
X94070001Y-86110001D03*
%TO.P,U1,4*%
%TO.N,Net-(U1-Pad4)*%
X94070001Y-88650001D03*
%TO.P,U1,5*%
%TO.N,Net-(U1-Pad5)*%
X94070001Y-91190001D03*
%TO.P,U1,6*%
%TO.N,Net-(U1-Pad6)*%
X94070001Y-93730001D03*
%TO.P,U1,7*%
%TO.N,Net-(U1-Pad7)*%
X94070001Y-96270001D03*
%TO.P,U1,8*%
%TO.N,Net-(U1-Pad8)*%
X94070001Y-98810001D03*
%TO.P,U1,9*%
%TO.N,Net-(U1-Pad9)*%
X94070001Y-101350001D03*
%TO.P,U1,10*%
%TO.N,Net-(U1-Pad10)*%
X94070001Y-103890001D03*
%TO.P,U1,11*%
%TO.N,Net-(U1-Pad11)*%
X94070001Y-106430001D03*
%TO.P,U1,12*%
%TO.N,Net-(U1-Pad12)*%
X94070001Y-108970001D03*
%TO.P,U1,13*%
%TO.N,Net-(U1-Pad13)*%
X94070001Y-111510001D03*
%TO.P,U1,14*%
%TO.N,GND*%
X94070001Y-114050001D03*
%TO.P,U1,15*%
%TO.N,Net-(U1-Pad15)*%
X94070001Y-116590001D03*
%TO.P,U1,16*%
%TO.N,+3V3*%
X119470001Y-116590001D03*
%TO.P,U1,17*%
%TO.N,GND*%
X119470001Y-114050001D03*
%TO.P,U1,18*%
%TO.N,Net-(U1-Pad18)*%
X119470001Y-111510001D03*
%TO.P,U1,19*%
%TO.N,Net-(R2-Pad1)*%
X119470001Y-108970001D03*
%TO.P,U1,20*%
%TO.N,Net-(R3-Pad1)*%
X119470001Y-106430001D03*
%TO.P,U1,21*%
%TO.N,/RX*%
X119470001Y-103890001D03*
%TO.P,U1,22*%
%TO.N,/TX*%
X119470001Y-101350001D03*
%TO.P,U1,23*%
%TO.N,Net-(R4-Pad1)*%
X119470001Y-98810001D03*
%TO.P,U1,24*%
%TO.N,Net-(U1-Pad24)*%
X119470001Y-96270001D03*
%TO.P,U1,25*%
%TO.N,Net-(U1-Pad25)*%
X119470001Y-93730001D03*
%TO.P,U1,26*%
%TO.N,Net-(Brd1-Pad4)*%
X119470001Y-91190001D03*
%TO.P,U1,27*%
%TO.N,Net-(U1-Pad27)*%
X119470001Y-88650001D03*
%TO.P,U1,28*%
%TO.N,Net-(U1-Pad28)*%
X119470001Y-86110001D03*
%TO.P,U1,29*%
%TO.N,Net-(Brd1-Pad3)*%
X119470001Y-83570001D03*
%TO.P,U1,30*%
%TO.N,Net-(U1-Pad30)*%
X119470001Y-81030001D03*
%TD*%
D12*
%TO.P,R3,1*%
%TO.N,Net-(R3-Pad1)*%
X123952000Y-106426000D03*
D13*
%TO.P,R3,2*%
%TO.N,Net-(D2-Pad2)*%
X123952000Y-116586000D03*
%TD*%
D12*
%TO.P,R1,1*%
%TO.N,/TX*%
X133858000Y-106426000D03*
D13*
%TO.P,R1,2*%
%TO.N,+3V3*%
X133858000Y-116586000D03*
%TD*%
D10*
%TO.P,D3,1*%
%TO.N,GND*%
X132842000Y-122428000D03*
D11*
%TO.P,D3,2*%
%TO.N,Net-(D3-Pad2)*%
X135382000Y-122428000D03*
%TD*%
D10*
%TO.P,D2,1*%
%TO.N,GND*%
X122682000Y-122428000D03*
D11*
%TO.P,D2,2*%
%TO.N,Net-(D2-Pad2)*%
X125222000Y-122428000D03*
%TD*%
D16*
%TO.P,J2,1*%
%TO.N,/RX*%
X137668000Y-105410000D03*
D17*
%TO.P,J2,2*%
%TO.N,/TX*%
X137668000Y-107950000D03*
%TO.P,J2,3*%
%TO.N,GND*%
X137668000Y-110490000D03*
%TO.P,J2,4*%
%TO.N,+3V3*%
X137668000Y-113030000D03*
%TO.P,J2,5*%
%TO.N,Net-(J2-Pad5)*%
X137668000Y-115570000D03*
%TO.P,J2,6*%
%TO.N,Net-(J2-Pad6)*%
X137668000Y-118110000D03*
%TD*%
D16*
%TO.P,J3,1*%
%TO.N,Net-(J3-Pad1)*%
X147828000Y-105410000D03*
D17*
%TO.P,J3,2*%
%TO.N,Net-(J3-Pad2)*%
X147828000Y-107950000D03*
%TO.P,J3,3*%
%TO.N,Net-(J3-Pad3)*%
X147828000Y-110490000D03*
%TO.P,J3,4*%
%TO.N,Net-(J3-Pad4)*%
X147828000Y-113030000D03*
%TO.P,J3,5*%
%TO.N,Net-(J3-Pad5)*%
X147828000Y-115570000D03*
%TO.P,J3,6*%
%TO.N,Net-(J3-Pad6)*%
X147828000Y-118110000D03*
%TD*%
D16*
%TO.P,J4,1*%
%TO.N,Net-(J3-Pad4)*%
X148082000Y-123952000D03*
D17*
%TO.P,J4,2*%
%TO.N,Net-(J3-Pad3)*%
X145542000Y-123952000D03*
%TO.P,J4,3*%
%TO.N,Net-(J3-Pad2)*%
X143002000Y-123952000D03*
%TO.P,J4,4*%
%TO.N,Net-(J3-Pad1)*%
X140462000Y-123952000D03*
%TD*%
D18*
%TO.P,Brd1,1*%
%TO.N,+3V3*%
X132016000Y-76776000D03*
%TO.P,Brd1,2*%
%TO.N,GND*%
X134556000Y-76776000D03*
%TO.P,Brd1,3*%
%TO.N,Net-(Brd1-Pad3)*%
X137096000Y-76776000D03*
%TO.P,Brd1,4*%
%TO.N,Net-(Brd1-Pad4)*%
X139636000Y-76776000D03*
%TD*%
D19*
%TO.N,/RX*%
X137155999Y-105922001D02*
X137668000Y-105410000D01*
%TO.N,/TX*%
X137160000Y-108458000D02*
X137668000Y-107950000D01*
%TD*%
%TA.AperFunction,Conductor*%
%TO.N,GND*%
G36*
X144814069Y-69108002D02*
G01*
X144833570Y-69123455D01*
X153815316Y-77815467D01*
X159473623Y-83291248D01*
X159508665Y-83352994D01*
X159512000Y-83381792D01*
X159512000Y-116805948D01*
X159491998Y-116874069D01*
X159476545Y-116893570D01*
X151336841Y-125304598D01*
X145308752Y-131533623D01*
X145247006Y-131568665D01*
X145218208Y-131572000D01*
X99094052Y-131572000D01*
X99025931Y-131551998D01*
X99006429Y-131536544D01*
X92563004Y-125300971D01*
X91134652Y-123918695D01*
X139099251Y-123918695D01*
X139112110Y-124141715D01*
X139113247Y-124146761D01*
X139113248Y-124146767D01*
X139137304Y-124253508D01*
X139161222Y-124359639D01*
X139245266Y-124566616D01*
X139282685Y-124627678D01*
X139359291Y-124752688D01*
X139361987Y-124757088D01*
X139508250Y-124925938D01*
X139680126Y-125068632D01*
X139873000Y-125181338D01*
X140081692Y-125261030D01*
X140086760Y-125262061D01*
X140086763Y-125262062D01*
X140194017Y-125283883D01*
X140300597Y-125305567D01*
X140305772Y-125305757D01*
X140305774Y-125305757D01*
X140518673Y-125313564D01*
X140518677Y-125313564D01*
X140523837Y-125313753D01*
X140528957Y-125313097D01*
X140528959Y-125313097D01*
X140740288Y-125286025D01*
X140740289Y-125286025D01*
X140745416Y-125285368D01*
X140750366Y-125283883D01*
X140954429Y-125222661D01*
X140954434Y-125222659D01*
X140959384Y-125221174D01*
X141159994Y-125122896D01*
X141341860Y-124993173D01*
X141500096Y-124835489D01*
X141559594Y-124752689D01*
X141630453Y-124654077D01*
X141631776Y-124655028D01*
X141678645Y-124611857D01*
X141748580Y-124599625D01*
X141814026Y-124627144D01*
X141841875Y-124658994D01*
X141901987Y-124757088D01*
X142048250Y-124925938D01*
X142220126Y-125068632D01*
X142413000Y-125181338D01*
X142621692Y-125261030D01*
X142626760Y-125262061D01*
X142626763Y-125262062D01*
X142734017Y-125283883D01*
X142840597Y-125305567D01*
X142845772Y-125305757D01*
X142845774Y-125305757D01*
X143058673Y-125313564D01*
X143058677Y-125313564D01*
X143063837Y-125313753D01*
X143068957Y-125313097D01*
X143068959Y-125313097D01*
X143280288Y-125286025D01*
X143280289Y-125286025D01*
X143285416Y-125285368D01*
X143290366Y-125283883D01*
X143494429Y-125222661D01*
X143494434Y-125222659D01*
X143499384Y-125221174D01*
X143699994Y-125122896D01*
X143881860Y-124993173D01*
X144040096Y-124835489D01*
X144099594Y-124752689D01*
X144170453Y-124654077D01*
X144171776Y-124655028D01*
X144218645Y-124611857D01*
X144288580Y-124599625D01*
X144354026Y-124627144D01*
X144381875Y-124658994D01*
X144441987Y-124757088D01*
X144588250Y-124925938D01*
X144760126Y-125068632D01*
X144953000Y-125181338D01*
X145161692Y-125261030D01*
X145166760Y-125262061D01*
X145166763Y-125262062D01*
X145274017Y-125283883D01*
X145380597Y-125305567D01*
X145385772Y-125305757D01*
X145385774Y-125305757D01*
X145598673Y-125313564D01*
X145598677Y-125313564D01*
X145603837Y-125313753D01*
X145608957Y-125313097D01*
X145608959Y-125313097D01*
X145820288Y-125286025D01*
X145820289Y-125286025D01*
X145825416Y-125285368D01*
X145830366Y-125283883D01*
X146034429Y-125222661D01*
X146034434Y-125222659D01*
X146039384Y-125221174D01*
X146239994Y-125122896D01*
X146421860Y-124993173D01*
X146530091Y-124885319D01*
X146592462Y-124851404D01*
X146663268Y-124856592D01*
X146720030Y-124899238D01*
X146737012Y-124930341D01*
X146781385Y-125048705D01*
X146868739Y-125165261D01*
X146985295Y-125252615D01*
X147121684Y-125303745D01*
X147183866Y-125310500D01*
X148980134Y-125310500D01*
X149042316Y-125303745D01*
X149178705Y-125252615D01*
X149295261Y-125165261D01*
X149382615Y-125048705D01*
X149433745Y-124912316D01*
X149440500Y-124850134D01*
X149440500Y-123053866D01*
X149433745Y-122991684D01*
X149382615Y-122855295D01*
X149295261Y-122738739D01*
X149178705Y-122651385D01*
X149042316Y-122600255D01*
X148980134Y-122593500D01*
X147183866Y-122593500D01*
X147121684Y-122600255D01*
X146985295Y-122651385D01*
X146868739Y-122738739D01*
X146781385Y-122855295D01*
X146778233Y-122863703D01*
X146736919Y-122973907D01*
X146694277Y-123030671D01*
X146627716Y-123055371D01*
X146558367Y-123040163D01*
X146525743Y-123014476D01*
X146475151Y-122958875D01*
X146475142Y-122958866D01*
X146471670Y-122955051D01*
X146467619Y-122951852D01*
X146467615Y-122951848D01*
X146300414Y-122819800D01*
X146300410Y-122819798D01*
X146296359Y-122816598D01*
X146100789Y-122708638D01*
X146095920Y-122706914D01*
X146095916Y-122706912D01*
X145895087Y-122635795D01*
X145895083Y-122635794D01*
X145890212Y-122634069D01*
X145885119Y-122633162D01*
X145885116Y-122633161D01*
X145675373Y-122595800D01*
X145675367Y-122595799D01*
X145670284Y-122594894D01*
X145596452Y-122593992D01*
X145452081Y-122592228D01*
X145452079Y-122592228D01*
X145446911Y-122592165D01*
X145226091Y-122625955D01*
X145013756Y-122695357D01*
X144815607Y-122798507D01*
X144811474Y-122801610D01*
X144811471Y-122801612D01*
X144641100Y-122929530D01*
X144636965Y-122932635D01*
X144597525Y-122973907D01*
X144543280Y-123030671D01*
X144482629Y-123094138D01*
X144375201Y-123251621D01*
X144320293Y-123296621D01*
X144249768Y-123304792D01*
X144186021Y-123273538D01*
X144165324Y-123249054D01*
X144084822Y-123124617D01*
X144084820Y-123124614D01*
X144082014Y-123120277D01*
X143931670Y-122955051D01*
X143927619Y-122951852D01*
X143927615Y-122951848D01*
X143760414Y-122819800D01*
X143760410Y-122819798D01*
X143756359Y-122816598D01*
X143560789Y-122708638D01*
X143555920Y-122706914D01*
X143555916Y-122706912D01*
X143355087Y-122635795D01*
X143355083Y-122635794D01*
X143350212Y-122634069D01*
X143345119Y-122633162D01*
X143345116Y-122633161D01*
X143135373Y-122595800D01*
X143135367Y-122595799D01*
X143130284Y-122594894D01*
X143056452Y-122593992D01*
X142912081Y-122592228D01*
X142912079Y-122592228D01*
X142906911Y-122592165D01*
X142686091Y-122625955D01*
X142473756Y-122695357D01*
X142275607Y-122798507D01*
X142271474Y-122801610D01*
X142271471Y-122801612D01*
X142101100Y-122929530D01*
X142096965Y-122932635D01*
X142057525Y-122973907D01*
X142003280Y-123030671D01*
X141942629Y-123094138D01*
X141835201Y-123251621D01*
X141780293Y-123296621D01*
X141709768Y-123304792D01*
X141646021Y-123273538D01*
X141625324Y-123249054D01*
X141544822Y-123124617D01*
X141544820Y-123124614D01*
X141542014Y-123120277D01*
X141391670Y-122955051D01*
X141387619Y-122951852D01*
X141387615Y-122951848D01*
X141220414Y-122819800D01*
X141220410Y-122819798D01*
X141216359Y-122816598D01*
X141020789Y-122708638D01*
X141015920Y-122706914D01*
X141015916Y-122706912D01*
X140815087Y-122635795D01*
X140815083Y-122635794D01*
X140810212Y-122634069D01*
X140805119Y-122633162D01*
X140805116Y-122633161D01*
X140595373Y-122595800D01*
X140595367Y-122595799D01*
X140590284Y-122594894D01*
X140516452Y-122593992D01*
X140372081Y-122592228D01*
X140372079Y-122592228D01*
X140366911Y-122592165D01*
X140146091Y-122625955D01*
X139933756Y-122695357D01*
X139735607Y-122798507D01*
X139731474Y-122801610D01*
X139731471Y-122801612D01*
X139561100Y-122929530D01*
X139556965Y-122932635D01*
X139517525Y-122973907D01*
X139463280Y-123030671D01*
X139402629Y-123094138D01*
X139276743Y-123278680D01*
X139246420Y-123344005D01*
X139185097Y-123476116D01*
X139182688Y-123481305D01*
X139122989Y-123696570D01*
X139099251Y-123918695D01*
X91134652Y-123918695D01*
X90570425Y-123372669D01*
X121274001Y-123372669D01*
X121274371Y-123379490D01*
X121279895Y-123430352D01*
X121283521Y-123445604D01*
X121328676Y-123566054D01*
X121337214Y-123581649D01*
X121413715Y-123683724D01*
X121426276Y-123696285D01*
X121528351Y-123772786D01*
X121543946Y-123781324D01*
X121664394Y-123826478D01*
X121679649Y-123830105D01*
X121730514Y-123835631D01*
X121737328Y-123836000D01*
X122409885Y-123836000D01*
X122425124Y-123831525D01*
X122426329Y-123830135D01*
X122428000Y-123822452D01*
X122428000Y-123817884D01*
X122936000Y-123817884D01*
X122940475Y-123833123D01*
X122941865Y-123834328D01*
X122949548Y-123835999D01*
X123626669Y-123835999D01*
X123633490Y-123835629D01*
X123684352Y-123830105D01*
X123699604Y-123826479D01*
X123820054Y-123781324D01*
X123835649Y-123772786D01*
X123937724Y-123696285D01*
X123950285Y-123683724D01*
X124026786Y-123581649D01*
X124035324Y-123566054D01*
X124056773Y-123508840D01*
X124099415Y-123452075D01*
X124165977Y-123427376D01*
X124235325Y-123442584D01*
X124255240Y-123456126D01*
X124387652Y-123566056D01*
X124411349Y-123585730D01*
X124611322Y-123702584D01*
X124827694Y-123785209D01*
X124832760Y-123786240D01*
X124832761Y-123786240D01*
X124885846Y-123797040D01*
X125054656Y-123831385D01*
X125185324Y-123836176D01*
X125280949Y-123839683D01*
X125280953Y-123839683D01*
X125286113Y-123839872D01*
X125291233Y-123839216D01*
X125291235Y-123839216D01*
X125390668Y-123826478D01*
X125515847Y-123810442D01*
X125520795Y-123808957D01*
X125520802Y-123808956D01*
X125732747Y-123745369D01*
X125737690Y-123743886D01*
X125818236Y-123704427D01*
X125941049Y-123644262D01*
X125941052Y-123644260D01*
X125945684Y-123641991D01*
X126134243Y-123507494D01*
X126137900Y-123503850D01*
X126137906Y-123503845D01*
X126179697Y-123462199D01*
X126242068Y-123428282D01*
X126312875Y-123433470D01*
X126369637Y-123476116D01*
X126386619Y-123507218D01*
X126408677Y-123566056D01*
X126417214Y-123581649D01*
X126493715Y-123683724D01*
X126506276Y-123696285D01*
X126608351Y-123772786D01*
X126623946Y-123781324D01*
X126744394Y-123826478D01*
X126759649Y-123830105D01*
X126810514Y-123835631D01*
X126817328Y-123836000D01*
X127489885Y-123836000D01*
X127505124Y-123831525D01*
X127506329Y-123830135D01*
X127508000Y-123822452D01*
X127508000Y-123817884D01*
X128016000Y-123817884D01*
X128020475Y-123833123D01*
X128021865Y-123834328D01*
X128029548Y-123835999D01*
X128706669Y-123835999D01*
X128713490Y-123835629D01*
X128764352Y-123830105D01*
X128779604Y-123826479D01*
X128900054Y-123781324D01*
X128915649Y-123772786D01*
X129017724Y-123696285D01*
X129030285Y-123683724D01*
X129106786Y-123581649D01*
X129115324Y-123566054D01*
X129136773Y-123508840D01*
X129179415Y-123452075D01*
X129245977Y-123427376D01*
X129315325Y-123442584D01*
X129335240Y-123456126D01*
X129467652Y-123566056D01*
X129491349Y-123585730D01*
X129691322Y-123702584D01*
X129907694Y-123785209D01*
X129912760Y-123786240D01*
X129912761Y-123786240D01*
X129965846Y-123797040D01*
X130134656Y-123831385D01*
X130265324Y-123836176D01*
X130360949Y-123839683D01*
X130360953Y-123839683D01*
X130366113Y-123839872D01*
X130371233Y-123839216D01*
X130371235Y-123839216D01*
X130470668Y-123826478D01*
X130595847Y-123810442D01*
X130600795Y-123808957D01*
X130600802Y-123808956D01*
X130812747Y-123745369D01*
X130817690Y-123743886D01*
X130898236Y-123704427D01*
X131021049Y-123644262D01*
X131021052Y-123644260D01*
X131025684Y-123641991D01*
X131214243Y-123507494D01*
X131217900Y-123503850D01*
X131217906Y-123503845D01*
X131259697Y-123462199D01*
X131322068Y-123428282D01*
X131392875Y-123433470D01*
X131449637Y-123476116D01*
X131466619Y-123507218D01*
X131488677Y-123566056D01*
X131497214Y-123581649D01*
X131573715Y-123683724D01*
X131586276Y-123696285D01*
X131688351Y-123772786D01*
X131703946Y-123781324D01*
X131824394Y-123826478D01*
X131839649Y-123830105D01*
X131890514Y-123835631D01*
X131897328Y-123836000D01*
X132569885Y-123836000D01*
X132585124Y-123831525D01*
X132586329Y-123830135D01*
X132588000Y-123822452D01*
X132588000Y-123817884D01*
X133096000Y-123817884D01*
X133100475Y-123833123D01*
X133101865Y-123834328D01*
X133109548Y-123835999D01*
X133786669Y-123835999D01*
X133793490Y-123835629D01*
X133844352Y-123830105D01*
X133859604Y-123826479D01*
X133980054Y-123781324D01*
X133995649Y-123772786D01*
X134097724Y-123696285D01*
X134110285Y-123683724D01*
X134186786Y-123581649D01*
X134195324Y-123566054D01*
X134216773Y-123508840D01*
X134259415Y-123452075D01*
X134325977Y-123427376D01*
X134395325Y-123442584D01*
X134415240Y-123456126D01*
X134547652Y-123566056D01*
X134571349Y-123585730D01*
X134771322Y-123702584D01*
X134987694Y-123785209D01*
X134992760Y-123786240D01*
X134992761Y-123786240D01*
X135045846Y-123797040D01*
X135214656Y-123831385D01*
X135345324Y-123836176D01*
X135440949Y-123839683D01*
X135440953Y-123839683D01*
X135446113Y-123839872D01*
X135451233Y-123839216D01*
X135451235Y-123839216D01*
X135550668Y-123826478D01*
X135675847Y-123810442D01*
X135680795Y-123808957D01*
X135680802Y-123808956D01*
X135892747Y-123745369D01*
X135897690Y-123743886D01*
X135978236Y-123704427D01*
X136101049Y-123644262D01*
X136101052Y-123644260D01*
X136105684Y-123641991D01*
X136294243Y-123507494D01*
X136458303Y-123344005D01*
X136593458Y-123155917D01*
X136608928Y-123124617D01*
X136693784Y-122952922D01*
X136693785Y-122952920D01*
X136696078Y-122948280D01*
X136763408Y-122726671D01*
X136793640Y-122497041D01*
X136795327Y-122428000D01*
X136789032Y-122351434D01*
X136776773Y-122202318D01*
X136776772Y-122202312D01*
X136776349Y-122197167D01*
X136719925Y-121972533D01*
X136627570Y-121760131D01*
X136501764Y-121565665D01*
X136345887Y-121394358D01*
X136341836Y-121391159D01*
X136341832Y-121391155D01*
X136168177Y-121254011D01*
X136168172Y-121254008D01*
X136164123Y-121250810D01*
X136159607Y-121248317D01*
X136159604Y-121248315D01*
X135965879Y-121141373D01*
X135965875Y-121141371D01*
X135961355Y-121138876D01*
X135956486Y-121137152D01*
X135956482Y-121137150D01*
X135747903Y-121063288D01*
X135747899Y-121063287D01*
X135743028Y-121061562D01*
X135737935Y-121060655D01*
X135737932Y-121060654D01*
X135520095Y-121021851D01*
X135520089Y-121021850D01*
X135515006Y-121020945D01*
X135437644Y-121020000D01*
X135288581Y-121018179D01*
X135288579Y-121018179D01*
X135283411Y-121018116D01*
X135054464Y-121053150D01*
X134834314Y-121125106D01*
X134829726Y-121127494D01*
X134829722Y-121127496D01*
X134633461Y-121229663D01*
X134628872Y-121232052D01*
X134624739Y-121235155D01*
X134624736Y-121235157D01*
X134447790Y-121368012D01*
X134443655Y-121371117D01*
X134440083Y-121374855D01*
X134425787Y-121389815D01*
X134364263Y-121425245D01*
X134293351Y-121421788D01*
X134235564Y-121380543D01*
X134216711Y-121346994D01*
X134195324Y-121289946D01*
X134186786Y-121274351D01*
X134110285Y-121172276D01*
X134097724Y-121159715D01*
X133995649Y-121083214D01*
X133980054Y-121074676D01*
X133859606Y-121029522D01*
X133844351Y-121025895D01*
X133793486Y-121020369D01*
X133786672Y-121020000D01*
X133114115Y-121020000D01*
X133098876Y-121024475D01*
X133097671Y-121025865D01*
X133096000Y-121033548D01*
X133096000Y-123817884D01*
X132588000Y-123817884D01*
X132588000Y-121038116D01*
X132583525Y-121022877D01*
X132582135Y-121021672D01*
X132574452Y-121020001D01*
X131897331Y-121020001D01*
X131890510Y-121020371D01*
X131839648Y-121025895D01*
X131824396Y-121029521D01*
X131703946Y-121074676D01*
X131688351Y-121083214D01*
X131586276Y-121159715D01*
X131573715Y-121172276D01*
X131497214Y-121274351D01*
X131488675Y-121289948D01*
X131467934Y-121345275D01*
X131425293Y-121402040D01*
X131358731Y-121426740D01*
X131289383Y-121411533D01*
X131266388Y-121394909D01*
X131265887Y-121394358D01*
X131203737Y-121345275D01*
X131088177Y-121254011D01*
X131088172Y-121254008D01*
X131084123Y-121250810D01*
X131079607Y-121248317D01*
X131079604Y-121248315D01*
X130885879Y-121141373D01*
X130885875Y-121141371D01*
X130881355Y-121138876D01*
X130876486Y-121137152D01*
X130876482Y-121137150D01*
X130667903Y-121063288D01*
X130667899Y-121063287D01*
X130663028Y-121061562D01*
X130657935Y-121060655D01*
X130657932Y-121060654D01*
X130440095Y-121021851D01*
X130440089Y-121021850D01*
X130435006Y-121020945D01*
X130357644Y-121020000D01*
X130208581Y-121018179D01*
X130208579Y-121018179D01*
X130203411Y-121018116D01*
X129974464Y-121053150D01*
X129754314Y-121125106D01*
X129749726Y-121127494D01*
X129749722Y-121127496D01*
X129553461Y-121229663D01*
X129548872Y-121232052D01*
X129544739Y-121235155D01*
X129544736Y-121235157D01*
X129367790Y-121368012D01*
X129363655Y-121371117D01*
X129360083Y-121374855D01*
X129345787Y-121389815D01*
X129284263Y-121425245D01*
X129213351Y-121421788D01*
X129155564Y-121380543D01*
X129136711Y-121346994D01*
X129115324Y-121289946D01*
X129106786Y-121274351D01*
X129030285Y-121172276D01*
X129017724Y-121159715D01*
X128915649Y-121083214D01*
X128900054Y-121074676D01*
X128779606Y-121029522D01*
X128764351Y-121025895D01*
X128713486Y-121020369D01*
X128706672Y-121020000D01*
X128034115Y-121020000D01*
X128018876Y-121024475D01*
X128017671Y-121025865D01*
X128016000Y-121033548D01*
X128016000Y-123817884D01*
X127508000Y-123817884D01*
X127508000Y-121038116D01*
X127503525Y-121022877D01*
X127502135Y-121021672D01*
X127494452Y-121020001D01*
X126817331Y-121020001D01*
X126810510Y-121020371D01*
X126759648Y-121025895D01*
X126744396Y-121029521D01*
X126623946Y-121074676D01*
X126608351Y-121083214D01*
X126506276Y-121159715D01*
X126493715Y-121172276D01*
X126417214Y-121274351D01*
X126408675Y-121289948D01*
X126387934Y-121345275D01*
X126345293Y-121402040D01*
X126278731Y-121426740D01*
X126209383Y-121411533D01*
X126186388Y-121394909D01*
X126185887Y-121394358D01*
X126123737Y-121345275D01*
X126008177Y-121254011D01*
X126008172Y-121254008D01*
X126004123Y-121250810D01*
X125999607Y-121248317D01*
X125999604Y-121248315D01*
X125805879Y-121141373D01*
X125805875Y-121141371D01*
X125801355Y-121138876D01*
X125796486Y-121137152D01*
X125796482Y-121137150D01*
X125587903Y-121063288D01*
X125587899Y-121063287D01*
X125583028Y-121061562D01*
X125577935Y-121060655D01*
X125577932Y-121060654D01*
X125360095Y-121021851D01*
X125360089Y-121021850D01*
X125355006Y-121020945D01*
X125277644Y-121020000D01*
X125128581Y-121018179D01*
X125128579Y-121018179D01*
X125123411Y-121018116D01*
X124894464Y-121053150D01*
X124674314Y-121125106D01*
X124669726Y-121127494D01*
X124669722Y-121127496D01*
X124473461Y-121229663D01*
X124468872Y-121232052D01*
X124464739Y-121235155D01*
X124464736Y-121235157D01*
X124287790Y-121368012D01*
X124283655Y-121371117D01*
X124280083Y-121374855D01*
X124265787Y-121389815D01*
X124204263Y-121425245D01*
X124133351Y-121421788D01*
X124075564Y-121380543D01*
X124056711Y-121346994D01*
X124035324Y-121289946D01*
X124026786Y-121274351D01*
X123950285Y-121172276D01*
X123937724Y-121159715D01*
X123835649Y-121083214D01*
X123820054Y-121074676D01*
X123699606Y-121029522D01*
X123684351Y-121025895D01*
X123633486Y-121020369D01*
X123626672Y-121020000D01*
X122954115Y-121020000D01*
X122938876Y-121024475D01*
X122937671Y-121025865D01*
X122936000Y-121033548D01*
X122936000Y-123817884D01*
X122428000Y-123817884D01*
X122428000Y-122700115D01*
X122423525Y-122684876D01*
X122422135Y-122683671D01*
X122414452Y-122682000D01*
X121292116Y-122682000D01*
X121276877Y-122686475D01*
X121275672Y-122687865D01*
X121274001Y-122695548D01*
X121274001Y-123372669D01*
X90570425Y-123372669D01*
X89313082Y-122155885D01*
X121274000Y-122155885D01*
X121278475Y-122171124D01*
X121279865Y-122172329D01*
X121287548Y-122174000D01*
X122409885Y-122174000D01*
X122425124Y-122169525D01*
X122426329Y-122168135D01*
X122428000Y-122160452D01*
X122428000Y-121038116D01*
X122423525Y-121022877D01*
X122422135Y-121021672D01*
X122414452Y-121020001D01*
X121737331Y-121020001D01*
X121730510Y-121020371D01*
X121679648Y-121025895D01*
X121664396Y-121029521D01*
X121543946Y-121074676D01*
X121528351Y-121083214D01*
X121426276Y-121159715D01*
X121413715Y-121172276D01*
X121337214Y-121274351D01*
X121328676Y-121289946D01*
X121283522Y-121410394D01*
X121279895Y-121425649D01*
X121274369Y-121476514D01*
X121274000Y-121483328D01*
X121274000Y-122155885D01*
X89313082Y-122155885D01*
X85424704Y-118392939D01*
X85097918Y-118076695D01*
X136305251Y-118076695D01*
X136305548Y-118081848D01*
X136305548Y-118081851D01*
X136311011Y-118176590D01*
X136318110Y-118299715D01*
X136319247Y-118304761D01*
X136319248Y-118304767D01*
X136339119Y-118392939D01*
X136367222Y-118517639D01*
X136451266Y-118724616D01*
X136567987Y-118915088D01*
X136714250Y-119083938D01*
X136886126Y-119226632D01*
X137079000Y-119339338D01*
X137287692Y-119419030D01*
X137292760Y-119420061D01*
X137292763Y-119420062D01*
X137400017Y-119441883D01*
X137506597Y-119463567D01*
X137511772Y-119463757D01*
X137511774Y-119463757D01*
X137724673Y-119471564D01*
X137724677Y-119471564D01*
X137729837Y-119471753D01*
X137734957Y-119471097D01*
X137734959Y-119471097D01*
X137946288Y-119444025D01*
X137946289Y-119444025D01*
X137951416Y-119443368D01*
X137956366Y-119441883D01*
X138160429Y-119380661D01*
X138160434Y-119380659D01*
X138165384Y-119379174D01*
X138365994Y-119280896D01*
X138547860Y-119151173D01*
X138706096Y-118993489D01*
X138765594Y-118910689D01*
X138833435Y-118816277D01*
X138836453Y-118812077D01*
X138935430Y-118611811D01*
X139000370Y-118398069D01*
X139029529Y-118176590D01*
X139031156Y-118110000D01*
X139028418Y-118076695D01*
X146465251Y-118076695D01*
X146465548Y-118081848D01*
X146465548Y-118081851D01*
X146471011Y-118176590D01*
X146478110Y-118299715D01*
X146479247Y-118304761D01*
X146479248Y-118304767D01*
X146499119Y-118392939D01*
X146527222Y-118517639D01*
X146611266Y-118724616D01*
X146727987Y-118915088D01*
X146874250Y-119083938D01*
X147046126Y-119226632D01*
X147239000Y-119339338D01*
X147447692Y-119419030D01*
X147452760Y-119420061D01*
X147452763Y-119420062D01*
X147560017Y-119441883D01*
X147666597Y-119463567D01*
X147671772Y-119463757D01*
X147671774Y-119463757D01*
X147884673Y-119471564D01*
X147884677Y-119471564D01*
X147889837Y-119471753D01*
X147894957Y-119471097D01*
X147894959Y-119471097D01*
X148106288Y-119444025D01*
X148106289Y-119444025D01*
X148111416Y-119443368D01*
X148116366Y-119441883D01*
X148320429Y-119380661D01*
X148320434Y-119380659D01*
X148325384Y-119379174D01*
X148525994Y-119280896D01*
X148707860Y-119151173D01*
X148866096Y-118993489D01*
X148925594Y-118910689D01*
X148993435Y-118816277D01*
X148996453Y-118812077D01*
X149095430Y-118611811D01*
X149160370Y-118398069D01*
X149189529Y-118176590D01*
X149191156Y-118110000D01*
X149172852Y-117887361D01*
X149118431Y-117670702D01*
X149029354Y-117465840D01*
X148908014Y-117278277D01*
X148757670Y-117113051D01*
X148753619Y-117109852D01*
X148753615Y-117109848D01*
X148586414Y-116977800D01*
X148586410Y-116977798D01*
X148582359Y-116974598D01*
X148541053Y-116951796D01*
X148491084Y-116901364D01*
X148476312Y-116831921D01*
X148501428Y-116765516D01*
X148528780Y-116738909D01*
X148572603Y-116707650D01*
X148707860Y-116611173D01*
X148866096Y-116453489D01*
X148925594Y-116370689D01*
X148993435Y-116276277D01*
X148996453Y-116272077D01*
X149054907Y-116153805D01*
X149093136Y-116076453D01*
X149093137Y-116076451D01*
X149095430Y-116071811D01*
X149160370Y-115858069D01*
X149189529Y-115636590D01*
X149191156Y-115570000D01*
X149172852Y-115347361D01*
X149118431Y-115130702D01*
X149029354Y-114925840D01*
X148989906Y-114864862D01*
X148910822Y-114742617D01*
X148910820Y-114742614D01*
X148908014Y-114738277D01*
X148757670Y-114573051D01*
X148753619Y-114569852D01*
X148753615Y-114569848D01*
X148586414Y-114437800D01*
X148586410Y-114437798D01*
X148582359Y-114434598D01*
X148541053Y-114411796D01*
X148491084Y-114361364D01*
X148476312Y-114291921D01*
X148501428Y-114225516D01*
X148528780Y-114198909D01*
X148572603Y-114167650D01*
X148707860Y-114071173D01*
X148732082Y-114047036D01*
X148862435Y-113917137D01*
X148866096Y-113913489D01*
X148925594Y-113830689D01*
X148993435Y-113736277D01*
X148996453Y-113732077D01*
X149019492Y-113685462D01*
X149093136Y-113536453D01*
X149093137Y-113536451D01*
X149095430Y-113531811D01*
X149133026Y-113408069D01*
X149158865Y-113323023D01*
X149158865Y-113323021D01*
X149160370Y-113318069D01*
X149189529Y-113096590D01*
X149191156Y-113030000D01*
X149172852Y-112807361D01*
X149118431Y-112590702D01*
X149029354Y-112385840D01*
X148908014Y-112198277D01*
X148757670Y-112033051D01*
X148753619Y-112029852D01*
X148753615Y-112029848D01*
X148586414Y-111897800D01*
X148586410Y-111897798D01*
X148582359Y-111894598D01*
X148541053Y-111871796D01*
X148491084Y-111821364D01*
X148476312Y-111751921D01*
X148501428Y-111685516D01*
X148528780Y-111658909D01*
X148572603Y-111627650D01*
X148707860Y-111531173D01*
X148866096Y-111373489D01*
X148925594Y-111290689D01*
X148993435Y-111196277D01*
X148996453Y-111192077D01*
X149054907Y-111073805D01*
X149093136Y-110996453D01*
X149093137Y-110996451D01*
X149095430Y-110991811D01*
X149160370Y-110778069D01*
X149189529Y-110556590D01*
X149191156Y-110490000D01*
X149172852Y-110267361D01*
X149118431Y-110050702D01*
X149029354Y-109845840D01*
X148908014Y-109658277D01*
X148757670Y-109493051D01*
X148753619Y-109489852D01*
X148753615Y-109489848D01*
X148586414Y-109357800D01*
X148586410Y-109357798D01*
X148582359Y-109354598D01*
X148541053Y-109331796D01*
X148491084Y-109281364D01*
X148476312Y-109211921D01*
X148501428Y-109145516D01*
X148528780Y-109118909D01*
X148572603Y-109087650D01*
X148707860Y-108991173D01*
X148866096Y-108833489D01*
X148925594Y-108750689D01*
X148993435Y-108656277D01*
X148996453Y-108652077D01*
X149054907Y-108533805D01*
X149093136Y-108456453D01*
X149093137Y-108456451D01*
X149095430Y-108451811D01*
X149160370Y-108238069D01*
X149189529Y-108016590D01*
X149191156Y-107950000D01*
X149172852Y-107727361D01*
X149118431Y-107510702D01*
X149029354Y-107305840D01*
X148908014Y-107118277D01*
X148904532Y-107114450D01*
X148760798Y-106956488D01*
X148729746Y-106892642D01*
X148738141Y-106822143D01*
X148783317Y-106767375D01*
X148809761Y-106753706D01*
X148916297Y-106713767D01*
X148924705Y-106710615D01*
X149041261Y-106623261D01*
X149128615Y-106506705D01*
X149179745Y-106370316D01*
X149186500Y-106308134D01*
X149186500Y-104511866D01*
X149179745Y-104449684D01*
X149128615Y-104313295D01*
X149041261Y-104196739D01*
X148924705Y-104109385D01*
X148788316Y-104058255D01*
X148726134Y-104051500D01*
X146929866Y-104051500D01*
X146867684Y-104058255D01*
X146731295Y-104109385D01*
X146614739Y-104196739D01*
X146527385Y-104313295D01*
X146476255Y-104449684D01*
X146469500Y-104511866D01*
X146469500Y-106308134D01*
X146476255Y-106370316D01*
X146527385Y-106506705D01*
X146614739Y-106623261D01*
X146731295Y-106710615D01*
X146739704Y-106713767D01*
X146739705Y-106713768D01*
X146848451Y-106754535D01*
X146905216Y-106797176D01*
X146929916Y-106863738D01*
X146914709Y-106933087D01*
X146895316Y-106959568D01*
X146787696Y-107072186D01*
X146768629Y-107092138D01*
X146642743Y-107276680D01*
X146627003Y-107310590D01*
X146580795Y-107410137D01*
X146548688Y-107479305D01*
X146488989Y-107694570D01*
X146465251Y-107916695D01*
X146465548Y-107921848D01*
X146465548Y-107921851D01*
X146471011Y-108016590D01*
X146478110Y-108139715D01*
X146479247Y-108144761D01*
X146479248Y-108144767D01*
X146479599Y-108146323D01*
X146527222Y-108357639D01*
X146611266Y-108564616D01*
X146727987Y-108755088D01*
X146874250Y-108923938D01*
X147046126Y-109066632D01*
X147116595Y-109107811D01*
X147119445Y-109109476D01*
X147168169Y-109161114D01*
X147181240Y-109230897D01*
X147154509Y-109296669D01*
X147114055Y-109330027D01*
X147101607Y-109336507D01*
X147097474Y-109339610D01*
X147097471Y-109339612D01*
X147008788Y-109406197D01*
X146922965Y-109470635D01*
X146919393Y-109474373D01*
X146787696Y-109612186D01*
X146768629Y-109632138D01*
X146765715Y-109636410D01*
X146765714Y-109636411D01*
X146753404Y-109654457D01*
X146642743Y-109816680D01*
X146627003Y-109850590D01*
X146580795Y-109950137D01*
X146548688Y-110019305D01*
X146488989Y-110234570D01*
X146465251Y-110456695D01*
X146465548Y-110461848D01*
X146465548Y-110461851D01*
X146471011Y-110556590D01*
X146478110Y-110679715D01*
X146479247Y-110684761D01*
X146479248Y-110684767D01*
X146479599Y-110686323D01*
X146527222Y-110897639D01*
X146611266Y-111104616D01*
X146727987Y-111295088D01*
X146874250Y-111463938D01*
X147046126Y-111606632D01*
X147116595Y-111647811D01*
X147119445Y-111649476D01*
X147168169Y-111701114D01*
X147181240Y-111770897D01*
X147154509Y-111836669D01*
X147114055Y-111870027D01*
X147101607Y-111876507D01*
X147097474Y-111879610D01*
X147097471Y-111879612D01*
X147008788Y-111946197D01*
X146922965Y-112010635D01*
X146919393Y-112014373D01*
X146787696Y-112152186D01*
X146768629Y-112172138D01*
X146642743Y-112356680D01*
X146627003Y-112390590D01*
X146580795Y-112490137D01*
X146548688Y-112559305D01*
X146488989Y-112774570D01*
X146465251Y-112996695D01*
X146465548Y-113001848D01*
X146465548Y-113001851D01*
X146471011Y-113096590D01*
X146478110Y-113219715D01*
X146479247Y-113224761D01*
X146479248Y-113224767D01*
X146499119Y-113312939D01*
X146527222Y-113437639D01*
X146565461Y-113531811D01*
X146596802Y-113608994D01*
X146611266Y-113644616D01*
X146727987Y-113835088D01*
X146874250Y-114003938D01*
X147046126Y-114146632D01*
X147116595Y-114187811D01*
X147119445Y-114189476D01*
X147168169Y-114241114D01*
X147181240Y-114310897D01*
X147154509Y-114376669D01*
X147114055Y-114410027D01*
X147101607Y-114416507D01*
X147097474Y-114419610D01*
X147097471Y-114419612D01*
X146927100Y-114547530D01*
X146922965Y-114550635D01*
X146768629Y-114712138D01*
X146642743Y-114896680D01*
X146548688Y-115099305D01*
X146488989Y-115314570D01*
X146465251Y-115536695D01*
X146465548Y-115541848D01*
X146465548Y-115541851D01*
X146471011Y-115636590D01*
X146478110Y-115759715D01*
X146479247Y-115764761D01*
X146479248Y-115764767D01*
X146479599Y-115766323D01*
X146527222Y-115977639D01*
X146611266Y-116184616D01*
X146727987Y-116375088D01*
X146874250Y-116543938D01*
X147046126Y-116686632D01*
X147116595Y-116727811D01*
X147119445Y-116729476D01*
X147168169Y-116781114D01*
X147181240Y-116850897D01*
X147154509Y-116916669D01*
X147114055Y-116950027D01*
X147101607Y-116956507D01*
X147097474Y-116959610D01*
X147097471Y-116959612D01*
X146927100Y-117087530D01*
X146922965Y-117090635D01*
X146919393Y-117094373D01*
X146787696Y-117232186D01*
X146768629Y-117252138D01*
X146765715Y-117256410D01*
X146765714Y-117256411D01*
X146714415Y-117331613D01*
X146642743Y-117436680D01*
X146627003Y-117470590D01*
X146580795Y-117570137D01*
X146548688Y-117639305D01*
X146488989Y-117854570D01*
X146465251Y-118076695D01*
X139028418Y-118076695D01*
X139012852Y-117887361D01*
X138958431Y-117670702D01*
X138869354Y-117465840D01*
X138748014Y-117278277D01*
X138597670Y-117113051D01*
X138593619Y-117109852D01*
X138593615Y-117109848D01*
X138426414Y-116977800D01*
X138426410Y-116977798D01*
X138422359Y-116974598D01*
X138381053Y-116951796D01*
X138331084Y-116901364D01*
X138316312Y-116831921D01*
X138341428Y-116765516D01*
X138368780Y-116738909D01*
X138412603Y-116707650D01*
X138547860Y-116611173D01*
X138706096Y-116453489D01*
X138765594Y-116370689D01*
X138833435Y-116276277D01*
X138836453Y-116272077D01*
X138894907Y-116153805D01*
X138933136Y-116076453D01*
X138933137Y-116076451D01*
X138935430Y-116071811D01*
X139000370Y-115858069D01*
X139029529Y-115636590D01*
X139031156Y-115570000D01*
X139012852Y-115347361D01*
X138958431Y-115130702D01*
X138869354Y-114925840D01*
X138829906Y-114864862D01*
X138750822Y-114742617D01*
X138750820Y-114742614D01*
X138748014Y-114738277D01*
X138597670Y-114573051D01*
X138593619Y-114569852D01*
X138593615Y-114569848D01*
X138426414Y-114437800D01*
X138426410Y-114437798D01*
X138422359Y-114434598D01*
X138381053Y-114411796D01*
X138331084Y-114361364D01*
X138316312Y-114291921D01*
X138341428Y-114225516D01*
X138368780Y-114198909D01*
X138412603Y-114167650D01*
X138547860Y-114071173D01*
X138572082Y-114047036D01*
X138702435Y-113917137D01*
X138706096Y-113913489D01*
X138765594Y-113830689D01*
X138833435Y-113736277D01*
X138836453Y-113732077D01*
X138859492Y-113685462D01*
X138933136Y-113536453D01*
X138933137Y-113536451D01*
X138935430Y-113531811D01*
X138973026Y-113408069D01*
X138998865Y-113323023D01*
X138998865Y-113323021D01*
X139000370Y-113318069D01*
X139029529Y-113096590D01*
X139031156Y-113030000D01*
X139012852Y-112807361D01*
X138958431Y-112590702D01*
X138869354Y-112385840D01*
X138748014Y-112198277D01*
X138597670Y-112033051D01*
X138593619Y-112029852D01*
X138593615Y-112029848D01*
X138426414Y-111897800D01*
X138426410Y-111897798D01*
X138422359Y-111894598D01*
X138380569Y-111871529D01*
X138330598Y-111821097D01*
X138315826Y-111751654D01*
X138340942Y-111685248D01*
X138368294Y-111658641D01*
X138543328Y-111533792D01*
X138551200Y-111527139D01*
X138702052Y-111376812D01*
X138708730Y-111368965D01*
X138833003Y-111196020D01*
X138838313Y-111187183D01*
X138932670Y-110996267D01*
X138936469Y-110986672D01*
X138998377Y-110782910D01*
X139000555Y-110772837D01*
X139001986Y-110761962D01*
X138999775Y-110747778D01*
X138986617Y-110744000D01*
X136351225Y-110744000D01*
X136337694Y-110747973D01*
X136336257Y-110757966D01*
X136366565Y-110892446D01*
X136369645Y-110902275D01*
X136449770Y-111099603D01*
X136454413Y-111108794D01*
X136565694Y-111290388D01*
X136571777Y-111298699D01*
X136711213Y-111459667D01*
X136718580Y-111466883D01*
X136882434Y-111602916D01*
X136890881Y-111608831D01*
X136959969Y-111649203D01*
X137008693Y-111700842D01*
X137021764Y-111770625D01*
X136995033Y-111836396D01*
X136954584Y-111869752D01*
X136941607Y-111876507D01*
X136937474Y-111879610D01*
X136937471Y-111879612D01*
X136848788Y-111946197D01*
X136762965Y-112010635D01*
X136759393Y-112014373D01*
X136627696Y-112152186D01*
X136608629Y-112172138D01*
X136482743Y-112356680D01*
X136467003Y-112390590D01*
X136420795Y-112490137D01*
X136388688Y-112559305D01*
X136328989Y-112774570D01*
X136305251Y-112996695D01*
X136305548Y-113001848D01*
X136305548Y-113001851D01*
X136311011Y-113096590D01*
X136318110Y-113219715D01*
X136319247Y-113224761D01*
X136319248Y-113224767D01*
X136339119Y-113312939D01*
X136367222Y-113437639D01*
X136405461Y-113531811D01*
X136436802Y-113608994D01*
X136451266Y-113644616D01*
X136567987Y-113835088D01*
X136714250Y-114003938D01*
X136886126Y-114146632D01*
X136956595Y-114187811D01*
X136959445Y-114189476D01*
X137008169Y-114241114D01*
X137021240Y-114310897D01*
X136994509Y-114376669D01*
X136954055Y-114410027D01*
X136941607Y-114416507D01*
X136937474Y-114419610D01*
X136937471Y-114419612D01*
X136767100Y-114547530D01*
X136762965Y-114550635D01*
X136608629Y-114712138D01*
X136482743Y-114896680D01*
X136388688Y-115099305D01*
X136328989Y-115314570D01*
X136305251Y-115536695D01*
X136305548Y-115541848D01*
X136305548Y-115541851D01*
X136311011Y-115636590D01*
X136318110Y-115759715D01*
X136319247Y-115764761D01*
X136319248Y-115764767D01*
X136319599Y-115766323D01*
X136367222Y-115977639D01*
X136451266Y-116184616D01*
X136567987Y-116375088D01*
X136714250Y-116543938D01*
X136886126Y-116686632D01*
X136956595Y-116727811D01*
X136959445Y-116729476D01*
X137008169Y-116781114D01*
X137021240Y-116850897D01*
X136994509Y-116916669D01*
X136954055Y-116950027D01*
X136941607Y-116956507D01*
X136937474Y-116959610D01*
X136937471Y-116959612D01*
X136767100Y-117087530D01*
X136762965Y-117090635D01*
X136759393Y-117094373D01*
X136627696Y-117232186D01*
X136608629Y-117252138D01*
X136605715Y-117256410D01*
X136605714Y-117256411D01*
X136554415Y-117331613D01*
X136482743Y-117436680D01*
X136467003Y-117470590D01*
X136420795Y-117570137D01*
X136388688Y-117639305D01*
X136328989Y-117854570D01*
X136305251Y-118076695D01*
X85097918Y-118076695D01*
X84366377Y-117368752D01*
X84331335Y-117307006D01*
X84328000Y-117278208D01*
X84328000Y-116590001D01*
X92794648Y-116590001D01*
X92814023Y-116811464D01*
X92871561Y-117026197D01*
X92873883Y-117031178D01*
X92873884Y-117031179D01*
X92963187Y-117222690D01*
X92963190Y-117222695D01*
X92965513Y-117227677D01*
X92968669Y-117232184D01*
X92968670Y-117232186D01*
X93064295Y-117368752D01*
X93093024Y-117409782D01*
X93250220Y-117566978D01*
X93254728Y-117570135D01*
X93254731Y-117570137D01*
X93290749Y-117595357D01*
X93432324Y-117694489D01*
X93437306Y-117696812D01*
X93437311Y-117696815D01*
X93628823Y-117786118D01*
X93633805Y-117788441D01*
X93639113Y-117789863D01*
X93639115Y-117789864D01*
X93704950Y-117807504D01*
X93848538Y-117845979D01*
X94070001Y-117865354D01*
X94291464Y-117845979D01*
X94435052Y-117807504D01*
X94500887Y-117789864D01*
X94500889Y-117789863D01*
X94506197Y-117788441D01*
X94511179Y-117786118D01*
X94702691Y-117696815D01*
X94702696Y-117696812D01*
X94707678Y-117694489D01*
X94849253Y-117595357D01*
X94885271Y-117570137D01*
X94885274Y-117570135D01*
X94889782Y-117566978D01*
X95046978Y-117409782D01*
X95075708Y-117368752D01*
X95171332Y-117232186D01*
X95171333Y-117232184D01*
X95174489Y-117227677D01*
X95176812Y-117222695D01*
X95176815Y-117222690D01*
X95266118Y-117031179D01*
X95266119Y-117031178D01*
X95268441Y-117026197D01*
X95325979Y-116811464D01*
X95345354Y-116590001D01*
X118194648Y-116590001D01*
X118214023Y-116811464D01*
X118271561Y-117026197D01*
X118273883Y-117031178D01*
X118273884Y-117031179D01*
X118363187Y-117222690D01*
X118363190Y-117222695D01*
X118365513Y-117227677D01*
X118368669Y-117232184D01*
X118368670Y-117232186D01*
X118464295Y-117368752D01*
X118493024Y-117409782D01*
X118650220Y-117566978D01*
X118654728Y-117570135D01*
X118654731Y-117570137D01*
X118690749Y-117595357D01*
X118832324Y-117694489D01*
X118837306Y-117696812D01*
X118837311Y-117696815D01*
X119028823Y-117786118D01*
X119033805Y-117788441D01*
X119039113Y-117789863D01*
X119039115Y-117789864D01*
X119104950Y-117807504D01*
X119248538Y-117845979D01*
X119470001Y-117865354D01*
X119691464Y-117845979D01*
X119835052Y-117807504D01*
X119900887Y-117789864D01*
X119900889Y-117789863D01*
X119906197Y-117788441D01*
X119911179Y-117786118D01*
X120102691Y-117696815D01*
X120102696Y-117696812D01*
X120107678Y-117694489D01*
X120249253Y-117595357D01*
X120285271Y-117570137D01*
X120285274Y-117570135D01*
X120289782Y-117566978D01*
X120446978Y-117409782D01*
X120475708Y-117368752D01*
X120571332Y-117232186D01*
X120571333Y-117232184D01*
X120574489Y-117227677D01*
X120576812Y-117222695D01*
X120576815Y-117222690D01*
X120666118Y-117031179D01*
X120666119Y-117031178D01*
X120668441Y-117026197D01*
X120725979Y-116811464D01*
X120745354Y-116590001D01*
X120745004Y-116586000D01*
X122638502Y-116586000D01*
X122658457Y-116814087D01*
X122659881Y-116819400D01*
X122659881Y-116819402D01*
X122697451Y-116959612D01*
X122717716Y-117035243D01*
X122720039Y-117040224D01*
X122720039Y-117040225D01*
X122812151Y-117237762D01*
X122812154Y-117237767D01*
X122814477Y-117242749D01*
X122876700Y-117331613D01*
X122902706Y-117368752D01*
X122945802Y-117430300D01*
X123107700Y-117592198D01*
X123112208Y-117595355D01*
X123112211Y-117595357D01*
X123182105Y-117644297D01*
X123295251Y-117723523D01*
X123300233Y-117725846D01*
X123300238Y-117725849D01*
X123497775Y-117817961D01*
X123502757Y-117820284D01*
X123508065Y-117821706D01*
X123508067Y-117821707D01*
X123718598Y-117878119D01*
X123718600Y-117878119D01*
X123723913Y-117879543D01*
X123952000Y-117899498D01*
X124180087Y-117879543D01*
X124185400Y-117878119D01*
X124185402Y-117878119D01*
X124395933Y-117821707D01*
X124395935Y-117821706D01*
X124401243Y-117820284D01*
X124406225Y-117817961D01*
X124603762Y-117725849D01*
X124603767Y-117725846D01*
X124608749Y-117723523D01*
X124721895Y-117644297D01*
X124791789Y-117595357D01*
X124791792Y-117595355D01*
X124796300Y-117592198D01*
X124958198Y-117430300D01*
X125001295Y-117368752D01*
X125027300Y-117331613D01*
X125089523Y-117242749D01*
X125091846Y-117237767D01*
X125091849Y-117237762D01*
X125183961Y-117040225D01*
X125183961Y-117040224D01*
X125186284Y-117035243D01*
X125206550Y-116959612D01*
X125244119Y-116819402D01*
X125244119Y-116819400D01*
X125245543Y-116814087D01*
X125265498Y-116586000D01*
X125940502Y-116586000D01*
X125960457Y-116814087D01*
X125961881Y-116819400D01*
X125961881Y-116819402D01*
X125999451Y-116959612D01*
X126019716Y-117035243D01*
X126022039Y-117040224D01*
X126022039Y-117040225D01*
X126114151Y-117237762D01*
X126114154Y-117237767D01*
X126116477Y-117242749D01*
X126178700Y-117331613D01*
X126204706Y-117368752D01*
X126247802Y-117430300D01*
X126409700Y-117592198D01*
X126414208Y-117595355D01*
X126414211Y-117595357D01*
X126484105Y-117644297D01*
X126597251Y-117723523D01*
X126602233Y-117725846D01*
X126602238Y-117725849D01*
X126799775Y-117817961D01*
X126804757Y-117820284D01*
X126810065Y-117821706D01*
X126810067Y-117821707D01*
X127020598Y-117878119D01*
X127020600Y-117878119D01*
X127025913Y-117879543D01*
X127254000Y-117899498D01*
X127482087Y-117879543D01*
X127487400Y-117878119D01*
X127487402Y-117878119D01*
X127697933Y-117821707D01*
X127697935Y-117821706D01*
X127703243Y-117820284D01*
X127708225Y-117817961D01*
X127905762Y-117725849D01*
X127905767Y-117725846D01*
X127910749Y-117723523D01*
X128023895Y-117644297D01*
X128093789Y-117595357D01*
X128093792Y-117595355D01*
X128098300Y-117592198D01*
X128260198Y-117430300D01*
X128303295Y-117368752D01*
X128329300Y-117331613D01*
X128391523Y-117242749D01*
X128393846Y-117237767D01*
X128393849Y-117237762D01*
X128485961Y-117040225D01*
X128485961Y-117040224D01*
X128488284Y-117035243D01*
X128508550Y-116959612D01*
X128546119Y-116819402D01*
X128546119Y-116819400D01*
X128547543Y-116814087D01*
X128567498Y-116586000D01*
X129242502Y-116586000D01*
X129262457Y-116814087D01*
X129263881Y-116819400D01*
X129263881Y-116819402D01*
X129301451Y-116959612D01*
X129321716Y-117035243D01*
X129324039Y-117040224D01*
X129324039Y-117040225D01*
X129416151Y-117237762D01*
X129416154Y-117237767D01*
X129418477Y-117242749D01*
X129480700Y-117331613D01*
X129506706Y-117368752D01*
X129549802Y-117430300D01*
X129711700Y-117592198D01*
X129716208Y-117595355D01*
X129716211Y-117595357D01*
X129786105Y-117644297D01*
X129899251Y-117723523D01*
X129904233Y-117725846D01*
X129904238Y-117725849D01*
X130101775Y-117817961D01*
X130106757Y-117820284D01*
X130112065Y-117821706D01*
X130112067Y-117821707D01*
X130322598Y-117878119D01*
X130322600Y-117878119D01*
X130327913Y-117879543D01*
X130556000Y-117899498D01*
X130784087Y-117879543D01*
X130789400Y-117878119D01*
X130789402Y-117878119D01*
X130999933Y-117821707D01*
X130999935Y-117821706D01*
X131005243Y-117820284D01*
X131010225Y-117817961D01*
X131207762Y-117725849D01*
X131207767Y-117725846D01*
X131212749Y-117723523D01*
X131325895Y-117644297D01*
X131395789Y-117595357D01*
X131395792Y-117595355D01*
X131400300Y-117592198D01*
X131562198Y-117430300D01*
X131605295Y-117368752D01*
X131631300Y-117331613D01*
X131693523Y-117242749D01*
X131695846Y-117237767D01*
X131695849Y-117237762D01*
X131787961Y-117040225D01*
X131787961Y-117040224D01*
X131790284Y-117035243D01*
X131810550Y-116959612D01*
X131848119Y-116819402D01*
X131848119Y-116819400D01*
X131849543Y-116814087D01*
X131869498Y-116586000D01*
X132544502Y-116586000D01*
X132564457Y-116814087D01*
X132565881Y-116819400D01*
X132565881Y-116819402D01*
X132603451Y-116959612D01*
X132623716Y-117035243D01*
X132626039Y-117040224D01*
X132626039Y-117040225D01*
X132718151Y-117237762D01*
X132718154Y-117237767D01*
X132720477Y-117242749D01*
X132782700Y-117331613D01*
X132808706Y-117368752D01*
X132851802Y-117430300D01*
X133013700Y-117592198D01*
X133018208Y-117595355D01*
X133018211Y-117595357D01*
X133088105Y-117644297D01*
X133201251Y-117723523D01*
X133206233Y-117725846D01*
X133206238Y-117725849D01*
X133403775Y-117817961D01*
X133408757Y-117820284D01*
X133414065Y-117821706D01*
X133414067Y-117821707D01*
X133624598Y-117878119D01*
X133624600Y-117878119D01*
X133629913Y-117879543D01*
X133858000Y-117899498D01*
X134086087Y-117879543D01*
X134091400Y-117878119D01*
X134091402Y-117878119D01*
X134301933Y-117821707D01*
X134301935Y-117821706D01*
X134307243Y-117820284D01*
X134312225Y-117817961D01*
X134509762Y-117725849D01*
X134509767Y-117725846D01*
X134514749Y-117723523D01*
X134627895Y-117644297D01*
X134697789Y-117595357D01*
X134697792Y-117595355D01*
X134702300Y-117592198D01*
X134864198Y-117430300D01*
X134907295Y-117368752D01*
X134933300Y-117331613D01*
X134995523Y-117242749D01*
X134997846Y-117237767D01*
X134997849Y-117237762D01*
X135089961Y-117040225D01*
X135089961Y-117040224D01*
X135092284Y-117035243D01*
X135112550Y-116959612D01*
X135150119Y-116819402D01*
X135150119Y-116819400D01*
X135151543Y-116814087D01*
X135171498Y-116586000D01*
X135151543Y-116357913D01*
X135092284Y-116136757D01*
X135064164Y-116076453D01*
X134997849Y-115934238D01*
X134997846Y-115934233D01*
X134995523Y-115929251D01*
X134884168Y-115770220D01*
X134867357Y-115746211D01*
X134867355Y-115746208D01*
X134864198Y-115741700D01*
X134702300Y-115579802D01*
X134697792Y-115576645D01*
X134697789Y-115576643D01*
X134572150Y-115488670D01*
X134514749Y-115448477D01*
X134509767Y-115446154D01*
X134509762Y-115446151D01*
X134312225Y-115354039D01*
X134312224Y-115354039D01*
X134307243Y-115351716D01*
X134301935Y-115350294D01*
X134301933Y-115350293D01*
X134091402Y-115293881D01*
X134091400Y-115293881D01*
X134086087Y-115292457D01*
X133858000Y-115272502D01*
X133629913Y-115292457D01*
X133624600Y-115293881D01*
X133624598Y-115293881D01*
X133414067Y-115350293D01*
X133414065Y-115350294D01*
X133408757Y-115351716D01*
X133403776Y-115354039D01*
X133403775Y-115354039D01*
X133206238Y-115446151D01*
X133206233Y-115446154D01*
X133201251Y-115448477D01*
X133143850Y-115488670D01*
X133018211Y-115576643D01*
X133018208Y-115576645D01*
X133013700Y-115579802D01*
X132851802Y-115741700D01*
X132848645Y-115746208D01*
X132848643Y-115746211D01*
X132831832Y-115770220D01*
X132720477Y-115929251D01*
X132718154Y-115934233D01*
X132718151Y-115934238D01*
X132651836Y-116076453D01*
X132623716Y-116136757D01*
X132564457Y-116357913D01*
X132544502Y-116586000D01*
X131869498Y-116586000D01*
X131849543Y-116357913D01*
X131790284Y-116136757D01*
X131762164Y-116076453D01*
X131695849Y-115934238D01*
X131695846Y-115934233D01*
X131693523Y-115929251D01*
X131582168Y-115770220D01*
X131565357Y-115746211D01*
X131565355Y-115746208D01*
X131562198Y-115741700D01*
X131400300Y-115579802D01*
X131395792Y-115576645D01*
X131395789Y-115576643D01*
X131270150Y-115488670D01*
X131212749Y-115448477D01*
X131207767Y-115446154D01*
X131207762Y-115446151D01*
X131010225Y-115354039D01*
X131010224Y-115354039D01*
X131005243Y-115351716D01*
X130999935Y-115350294D01*
X130999933Y-115350293D01*
X130789402Y-115293881D01*
X130789400Y-115293881D01*
X130784087Y-115292457D01*
X130556000Y-115272502D01*
X130327913Y-115292457D01*
X130322600Y-115293881D01*
X130322598Y-115293881D01*
X130112067Y-115350293D01*
X130112065Y-115350294D01*
X130106757Y-115351716D01*
X130101776Y-115354039D01*
X130101775Y-115354039D01*
X129904238Y-115446151D01*
X129904233Y-115446154D01*
X129899251Y-115448477D01*
X129841850Y-115488670D01*
X129716211Y-115576643D01*
X129716208Y-115576645D01*
X129711700Y-115579802D01*
X129549802Y-115741700D01*
X129546645Y-115746208D01*
X129546643Y-115746211D01*
X129529832Y-115770220D01*
X129418477Y-115929251D01*
X129416154Y-115934233D01*
X129416151Y-115934238D01*
X129349836Y-116076453D01*
X129321716Y-116136757D01*
X129262457Y-116357913D01*
X129242502Y-116586000D01*
X128567498Y-116586000D01*
X128547543Y-116357913D01*
X128488284Y-116136757D01*
X128460164Y-116076453D01*
X128393849Y-115934238D01*
X128393846Y-115934233D01*
X128391523Y-115929251D01*
X128280168Y-115770220D01*
X128263357Y-115746211D01*
X128263355Y-115746208D01*
X128260198Y-115741700D01*
X128098300Y-115579802D01*
X128093792Y-115576645D01*
X128093789Y-115576643D01*
X127968150Y-115488670D01*
X127910749Y-115448477D01*
X127905767Y-115446154D01*
X127905762Y-115446151D01*
X127708225Y-115354039D01*
X127708224Y-115354039D01*
X127703243Y-115351716D01*
X127697935Y-115350294D01*
X127697933Y-115350293D01*
X127487402Y-115293881D01*
X127487400Y-115293881D01*
X127482087Y-115292457D01*
X127254000Y-115272502D01*
X127025913Y-115292457D01*
X127020600Y-115293881D01*
X127020598Y-115293881D01*
X126810067Y-115350293D01*
X126810065Y-115350294D01*
X126804757Y-115351716D01*
X126799776Y-115354039D01*
X126799775Y-115354039D01*
X126602238Y-115446151D01*
X126602233Y-115446154D01*
X126597251Y-115448477D01*
X126539850Y-115488670D01*
X126414211Y-115576643D01*
X126414208Y-115576645D01*
X126409700Y-115579802D01*
X126247802Y-115741700D01*
X126244645Y-115746208D01*
X126244643Y-115746211D01*
X126227832Y-115770220D01*
X126116477Y-115929251D01*
X126114154Y-115934233D01*
X126114151Y-115934238D01*
X126047836Y-116076453D01*
X126019716Y-116136757D01*
X125960457Y-116357913D01*
X125940502Y-116586000D01*
X125265498Y-116586000D01*
X125245543Y-116357913D01*
X125186284Y-116136757D01*
X125158164Y-116076453D01*
X125091849Y-115934238D01*
X125091846Y-115934233D01*
X125089523Y-115929251D01*
X124978168Y-115770220D01*
X124961357Y-115746211D01*
X124961355Y-115746208D01*
X124958198Y-115741700D01*
X124796300Y-115579802D01*
X124791792Y-115576645D01*
X124791789Y-115576643D01*
X124666150Y-115488670D01*
X124608749Y-115448477D01*
X124603767Y-115446154D01*
X124603762Y-115446151D01*
X124406225Y-115354039D01*
X124406224Y-115354039D01*
X124401243Y-115351716D01*
X124395935Y-115350294D01*
X124395933Y-115350293D01*
X124185402Y-115293881D01*
X124185400Y-115293881D01*
X124180087Y-115292457D01*
X123952000Y-115272502D01*
X123723913Y-115292457D01*
X123718600Y-115293881D01*
X123718598Y-115293881D01*
X123508067Y-115350293D01*
X123508065Y-115350294D01*
X123502757Y-115351716D01*
X123497776Y-115354039D01*
X123497775Y-115354039D01*
X123300238Y-115446151D01*
X123300233Y-115446154D01*
X123295251Y-115448477D01*
X123237850Y-115488670D01*
X123112211Y-115576643D01*
X123112208Y-115576645D01*
X123107700Y-115579802D01*
X122945802Y-115741700D01*
X122942645Y-115746208D01*
X122942643Y-115746211D01*
X122925832Y-115770220D01*
X122814477Y-115929251D01*
X122812154Y-115934233D01*
X122812151Y-115934238D01*
X122745836Y-116076453D01*
X122717716Y-116136757D01*
X122658457Y-116357913D01*
X122638502Y-116586000D01*
X120745004Y-116586000D01*
X120725979Y-116368538D01*
X120668441Y-116153805D01*
X120666118Y-116148823D01*
X120576815Y-115957312D01*
X120576812Y-115957307D01*
X120574489Y-115952325D01*
X120571332Y-115947816D01*
X120450137Y-115774731D01*
X120450135Y-115774728D01*
X120446978Y-115770220D01*
X120289782Y-115613024D01*
X120285274Y-115609867D01*
X120285271Y-115609865D01*
X120180773Y-115536695D01*
X120107678Y-115485513D01*
X120102696Y-115483190D01*
X120102691Y-115483187D01*
X119997036Y-115433920D01*
X119943751Y-115387003D01*
X119924290Y-115318726D01*
X119944832Y-115250766D01*
X119997036Y-115205530D01*
X120102446Y-115156377D01*
X120111932Y-115150899D01*
X120155765Y-115120208D01*
X120164140Y-115109730D01*
X120157072Y-115096282D01*
X119482813Y-114422023D01*
X119468869Y-114414409D01*
X119467036Y-114414540D01*
X119460421Y-114418791D01*
X118782208Y-115097004D01*
X118775778Y-115108778D01*
X118785075Y-115120794D01*
X118828070Y-115150899D01*
X118837556Y-115156377D01*
X118942966Y-115205530D01*
X118996251Y-115252447D01*
X119015712Y-115320724D01*
X118995170Y-115388684D01*
X118942966Y-115433920D01*
X118837312Y-115483187D01*
X118837307Y-115483190D01*
X118832325Y-115485513D01*
X118827818Y-115488669D01*
X118827816Y-115488670D01*
X118654731Y-115609865D01*
X118654728Y-115609867D01*
X118650220Y-115613024D01*
X118493024Y-115770220D01*
X118489867Y-115774728D01*
X118489865Y-115774731D01*
X118368670Y-115947816D01*
X118365513Y-115952325D01*
X118363190Y-115957307D01*
X118363187Y-115957312D01*
X118273884Y-116148823D01*
X118271561Y-116153805D01*
X118214023Y-116368538D01*
X118194648Y-116590001D01*
X95345354Y-116590001D01*
X95325979Y-116368538D01*
X95268441Y-116153805D01*
X95266118Y-116148823D01*
X95176815Y-115957312D01*
X95176812Y-115957307D01*
X95174489Y-115952325D01*
X95171332Y-115947816D01*
X95050137Y-115774731D01*
X95050135Y-115774728D01*
X95046978Y-115770220D01*
X94889782Y-115613024D01*
X94885274Y-115609867D01*
X94885271Y-115609865D01*
X94780773Y-115536695D01*
X94707678Y-115485513D01*
X94702696Y-115483190D01*
X94702691Y-115483187D01*
X94597036Y-115433920D01*
X94543751Y-115387003D01*
X94524290Y-115318726D01*
X94544832Y-115250766D01*
X94597036Y-115205530D01*
X94702446Y-115156377D01*
X94711932Y-115150899D01*
X94755765Y-115120208D01*
X94764140Y-115109730D01*
X94757072Y-115096282D01*
X94082813Y-114422023D01*
X94068869Y-114414409D01*
X94067036Y-114414540D01*
X94060421Y-114418791D01*
X93382208Y-115097004D01*
X93375778Y-115108778D01*
X93385075Y-115120794D01*
X93428070Y-115150899D01*
X93437556Y-115156377D01*
X93542966Y-115205530D01*
X93596251Y-115252447D01*
X93615712Y-115320724D01*
X93595170Y-115388684D01*
X93542966Y-115433920D01*
X93437312Y-115483187D01*
X93437307Y-115483190D01*
X93432325Y-115485513D01*
X93427818Y-115488669D01*
X93427816Y-115488670D01*
X93254731Y-115609865D01*
X93254728Y-115609867D01*
X93250220Y-115613024D01*
X93093024Y-115770220D01*
X93089867Y-115774728D01*
X93089865Y-115774731D01*
X92968670Y-115947816D01*
X92965513Y-115952325D01*
X92963190Y-115957307D01*
X92963187Y-115957312D01*
X92873884Y-116148823D01*
X92871561Y-116153805D01*
X92814023Y-116368538D01*
X92794648Y-116590001D01*
X84328000Y-116590001D01*
X84328000Y-114055476D01*
X92795629Y-114055476D01*
X92814039Y-114265897D01*
X92815942Y-114276692D01*
X92870610Y-114480716D01*
X92874356Y-114491008D01*
X92963624Y-114682442D01*
X92969104Y-114691933D01*
X92999795Y-114735766D01*
X93010272Y-114744141D01*
X93023719Y-114737073D01*
X93697979Y-114062813D01*
X93704357Y-114051133D01*
X94434409Y-114051133D01*
X94434540Y-114052966D01*
X94438791Y-114059581D01*
X95117004Y-114737794D01*
X95128778Y-114744224D01*
X95140794Y-114734927D01*
X95170898Y-114691933D01*
X95176378Y-114682442D01*
X95265646Y-114491008D01*
X95269392Y-114480716D01*
X95324060Y-114276692D01*
X95325963Y-114265897D01*
X95344373Y-114055476D01*
X118195629Y-114055476D01*
X118214039Y-114265897D01*
X118215942Y-114276692D01*
X118270610Y-114480716D01*
X118274356Y-114491008D01*
X118363624Y-114682442D01*
X118369104Y-114691933D01*
X118399795Y-114735766D01*
X118410272Y-114744141D01*
X118423719Y-114737073D01*
X119097979Y-114062813D01*
X119104357Y-114051133D01*
X119834409Y-114051133D01*
X119834540Y-114052966D01*
X119838791Y-114059581D01*
X120517004Y-114737794D01*
X120528778Y-114744224D01*
X120540794Y-114734927D01*
X120570898Y-114691933D01*
X120576378Y-114682442D01*
X120665646Y-114491008D01*
X120669392Y-114480716D01*
X120724060Y-114276692D01*
X120725963Y-114265897D01*
X120744373Y-114055476D01*
X120744373Y-114044526D01*
X120725963Y-113834105D01*
X120724060Y-113823310D01*
X120669392Y-113619286D01*
X120665646Y-113608994D01*
X120576378Y-113417560D01*
X120570898Y-113408069D01*
X120540207Y-113364236D01*
X120529730Y-113355861D01*
X120516283Y-113362929D01*
X119842023Y-114037189D01*
X119834409Y-114051133D01*
X119104357Y-114051133D01*
X119105593Y-114048869D01*
X119105462Y-114047036D01*
X119101211Y-114040421D01*
X118422998Y-113362208D01*
X118411224Y-113355778D01*
X118399208Y-113365075D01*
X118369104Y-113408069D01*
X118363624Y-113417560D01*
X118274356Y-113608994D01*
X118270610Y-113619286D01*
X118215942Y-113823310D01*
X118214039Y-113834105D01*
X118195629Y-114044526D01*
X118195629Y-114055476D01*
X95344373Y-114055476D01*
X95344373Y-114044526D01*
X95325963Y-113834105D01*
X95324060Y-113823310D01*
X95269392Y-113619286D01*
X95265646Y-113608994D01*
X95176378Y-113417560D01*
X95170898Y-113408069D01*
X95140207Y-113364236D01*
X95129730Y-113355861D01*
X95116283Y-113362929D01*
X94442023Y-114037189D01*
X94434409Y-114051133D01*
X93704357Y-114051133D01*
X93705593Y-114048869D01*
X93705462Y-114047036D01*
X93701211Y-114040421D01*
X93022998Y-113362208D01*
X93011224Y-113355778D01*
X92999208Y-113365075D01*
X92969104Y-113408069D01*
X92963624Y-113417560D01*
X92874356Y-113608994D01*
X92870610Y-113619286D01*
X92815942Y-113823310D01*
X92814039Y-113834105D01*
X92795629Y-114044526D01*
X92795629Y-114055476D01*
X84328000Y-114055476D01*
X84328000Y-111510001D01*
X92794648Y-111510001D01*
X92814023Y-111731464D01*
X92871561Y-111946197D01*
X92873883Y-111951178D01*
X92873884Y-111951179D01*
X92963187Y-112142690D01*
X92963190Y-112142695D01*
X92965513Y-112147677D01*
X92968669Y-112152184D01*
X92968670Y-112152186D01*
X92998269Y-112194457D01*
X93093024Y-112329782D01*
X93250220Y-112486978D01*
X93254728Y-112490135D01*
X93254731Y-112490137D01*
X93330496Y-112543188D01*
X93432324Y-112614489D01*
X93437306Y-112616812D01*
X93437311Y-112616815D01*
X93542966Y-112666082D01*
X93596251Y-112712999D01*
X93615712Y-112781276D01*
X93595170Y-112849236D01*
X93542966Y-112894472D01*
X93437560Y-112943624D01*
X93428069Y-112949104D01*
X93384236Y-112979795D01*
X93375861Y-112990272D01*
X93382929Y-113003719D01*
X94057189Y-113677979D01*
X94071133Y-113685593D01*
X94072966Y-113685462D01*
X94079581Y-113681211D01*
X94757794Y-113002998D01*
X94764224Y-112991224D01*
X94754927Y-112979208D01*
X94711932Y-112949103D01*
X94702446Y-112943625D01*
X94597036Y-112894472D01*
X94543751Y-112847555D01*
X94524290Y-112779278D01*
X94544832Y-112711318D01*
X94597036Y-112666082D01*
X94702691Y-112616815D01*
X94702696Y-112616812D01*
X94707678Y-112614489D01*
X94809506Y-112543188D01*
X94885271Y-112490137D01*
X94885274Y-112490135D01*
X94889782Y-112486978D01*
X95046978Y-112329782D01*
X95141734Y-112194457D01*
X95171332Y-112152186D01*
X95171333Y-112152184D01*
X95174489Y-112147677D01*
X95176812Y-112142695D01*
X95176815Y-112142690D01*
X95266118Y-111951179D01*
X95266119Y-111951178D01*
X95268441Y-111946197D01*
X95325979Y-111731464D01*
X95345354Y-111510001D01*
X118194648Y-111510001D01*
X118214023Y-111731464D01*
X118271561Y-111946197D01*
X118273883Y-111951178D01*
X118273884Y-111951179D01*
X118363187Y-112142690D01*
X118363190Y-112142695D01*
X118365513Y-112147677D01*
X118368669Y-112152184D01*
X118368670Y-112152186D01*
X118398269Y-112194457D01*
X118493024Y-112329782D01*
X118650220Y-112486978D01*
X118654728Y-112490135D01*
X118654731Y-112490137D01*
X118730496Y-112543188D01*
X118832324Y-112614489D01*
X118837306Y-112616812D01*
X118837311Y-112616815D01*
X118942966Y-112666082D01*
X118996251Y-112712999D01*
X119015712Y-112781276D01*
X118995170Y-112849236D01*
X118942966Y-112894472D01*
X118837560Y-112943624D01*
X118828069Y-112949104D01*
X118784236Y-112979795D01*
X118775861Y-112990272D01*
X118782929Y-113003719D01*
X119457189Y-113677979D01*
X119471133Y-113685593D01*
X119472966Y-113685462D01*
X119479581Y-113681211D01*
X120157794Y-113002998D01*
X120164224Y-112991224D01*
X120154927Y-112979208D01*
X120111932Y-112949103D01*
X120102446Y-112943625D01*
X119997036Y-112894472D01*
X119943751Y-112847555D01*
X119924290Y-112779278D01*
X119944832Y-112711318D01*
X119997036Y-112666082D01*
X120102691Y-112616815D01*
X120102696Y-112616812D01*
X120107678Y-112614489D01*
X120209506Y-112543188D01*
X120285271Y-112490137D01*
X120285274Y-112490135D01*
X120289782Y-112486978D01*
X120446978Y-112329782D01*
X120541734Y-112194457D01*
X120571332Y-112152186D01*
X120571333Y-112152184D01*
X120574489Y-112147677D01*
X120576812Y-112142695D01*
X120576815Y-112142690D01*
X120666118Y-111951179D01*
X120666119Y-111951178D01*
X120668441Y-111946197D01*
X120725979Y-111731464D01*
X120745354Y-111510001D01*
X120725979Y-111288538D01*
X120668441Y-111073805D01*
X120632371Y-110996453D01*
X120576815Y-110877312D01*
X120576812Y-110877307D01*
X120574489Y-110872325D01*
X120571332Y-110867816D01*
X120450137Y-110694731D01*
X120450135Y-110694728D01*
X120446978Y-110690220D01*
X120289782Y-110533024D01*
X120285274Y-110529867D01*
X120285271Y-110529865D01*
X120180773Y-110456695D01*
X120107678Y-110405513D01*
X120102696Y-110403190D01*
X120102691Y-110403187D01*
X119997628Y-110354196D01*
X119944343Y-110307279D01*
X119924882Y-110239002D01*
X119945424Y-110171042D01*
X119997628Y-110125806D01*
X120102691Y-110076815D01*
X120102696Y-110076812D01*
X120107678Y-110074489D01*
X120209506Y-110003188D01*
X120285271Y-109950137D01*
X120285274Y-109950135D01*
X120289782Y-109946978D01*
X120446978Y-109789782D01*
X120535804Y-109662926D01*
X120571332Y-109612186D01*
X120571333Y-109612184D01*
X120574489Y-109607677D01*
X120576812Y-109602695D01*
X120576815Y-109602690D01*
X120666118Y-109411179D01*
X120666119Y-109411178D01*
X120668441Y-109406197D01*
X120725979Y-109191464D01*
X120745354Y-108970001D01*
X120725979Y-108748538D01*
X120668441Y-108533805D01*
X120632371Y-108456453D01*
X120576815Y-108337312D01*
X120576812Y-108337307D01*
X120574489Y-108332325D01*
X120571332Y-108327816D01*
X120450137Y-108154731D01*
X120450135Y-108154728D01*
X120446978Y-108150220D01*
X120289782Y-107993024D01*
X120285274Y-107989867D01*
X120285271Y-107989865D01*
X120180773Y-107916695D01*
X136305251Y-107916695D01*
X136305548Y-107921848D01*
X136305548Y-107921851D01*
X136311011Y-108016590D01*
X136318110Y-108139715D01*
X136319247Y-108144761D01*
X136319248Y-108144767D01*
X136319599Y-108146323D01*
X136367222Y-108357639D01*
X136451266Y-108564616D01*
X136567987Y-108755088D01*
X136714250Y-108923938D01*
X136886126Y-109066632D01*
X136959445Y-109109476D01*
X136959955Y-109109774D01*
X137008679Y-109161412D01*
X137021750Y-109231195D01*
X136995019Y-109296967D01*
X136954562Y-109330327D01*
X136946457Y-109334546D01*
X136937738Y-109340036D01*
X136767433Y-109467905D01*
X136759726Y-109474748D01*
X136612590Y-109628717D01*
X136606104Y-109636727D01*
X136486098Y-109812649D01*
X136481000Y-109821623D01*
X136391338Y-110014783D01*
X136387775Y-110024470D01*
X136332389Y-110224183D01*
X136333912Y-110232607D01*
X136346292Y-110236000D01*
X138986344Y-110236000D01*
X138999875Y-110232027D01*
X139001180Y-110222947D01*
X138959214Y-110055875D01*
X138955894Y-110046124D01*
X138870972Y-109850814D01*
X138866105Y-109841739D01*
X138750426Y-109662926D01*
X138744136Y-109654757D01*
X138600806Y-109497240D01*
X138593273Y-109490215D01*
X138426139Y-109358222D01*
X138417556Y-109352520D01*
X138380602Y-109332120D01*
X138330631Y-109281687D01*
X138315859Y-109212245D01*
X138340975Y-109145839D01*
X138368327Y-109119232D01*
X138391797Y-109102491D01*
X138547860Y-108991173D01*
X138706096Y-108833489D01*
X138765594Y-108750689D01*
X138833435Y-108656277D01*
X138836453Y-108652077D01*
X138894907Y-108533805D01*
X138933136Y-108456453D01*
X138933137Y-108456451D01*
X138935430Y-108451811D01*
X139000370Y-108238069D01*
X139029529Y-108016590D01*
X139031156Y-107950000D01*
X139012852Y-107727361D01*
X138958431Y-107510702D01*
X138869354Y-107305840D01*
X138748014Y-107118277D01*
X138744532Y-107114450D01*
X138600798Y-106956488D01*
X138569746Y-106892642D01*
X138578141Y-106822143D01*
X138623317Y-106767375D01*
X138649761Y-106753706D01*
X138756297Y-106713767D01*
X138764705Y-106710615D01*
X138881261Y-106623261D01*
X138968615Y-106506705D01*
X139019745Y-106370316D01*
X139026500Y-106308134D01*
X139026500Y-104511866D01*
X139019745Y-104449684D01*
X138968615Y-104313295D01*
X138881261Y-104196739D01*
X138764705Y-104109385D01*
X138628316Y-104058255D01*
X138566134Y-104051500D01*
X136769866Y-104051500D01*
X136707684Y-104058255D01*
X136571295Y-104109385D01*
X136454739Y-104196739D01*
X136367385Y-104313295D01*
X136316255Y-104449684D01*
X136309500Y-104511866D01*
X136309500Y-106308134D01*
X136316255Y-106370316D01*
X136367385Y-106506705D01*
X136454739Y-106623261D01*
X136571295Y-106710615D01*
X136579704Y-106713767D01*
X136579705Y-106713768D01*
X136688451Y-106754535D01*
X136745216Y-106797176D01*
X136769916Y-106863738D01*
X136754709Y-106933087D01*
X136735316Y-106959568D01*
X136627696Y-107072186D01*
X136608629Y-107092138D01*
X136482743Y-107276680D01*
X136467003Y-107310590D01*
X136420795Y-107410137D01*
X136388688Y-107479305D01*
X136328989Y-107694570D01*
X136305251Y-107916695D01*
X120180773Y-107916695D01*
X120107678Y-107865513D01*
X120102696Y-107863190D01*
X120102691Y-107863187D01*
X119997628Y-107814196D01*
X119944343Y-107767279D01*
X119924882Y-107699002D01*
X119945424Y-107631042D01*
X119997628Y-107585806D01*
X120102691Y-107536815D01*
X120102696Y-107536812D01*
X120107678Y-107534489D01*
X120249253Y-107435357D01*
X120285271Y-107410137D01*
X120285274Y-107410135D01*
X120289782Y-107406978D01*
X120446978Y-107249782D01*
X120541739Y-107114450D01*
X120571332Y-107072186D01*
X120571333Y-107072184D01*
X120574489Y-107067677D01*
X120576812Y-107062695D01*
X120576815Y-107062690D01*
X120666118Y-106871179D01*
X120666119Y-106871178D01*
X120668441Y-106866197D01*
X120725979Y-106651464D01*
X120745354Y-106430001D01*
X120745004Y-106426000D01*
X122638502Y-106426000D01*
X122658457Y-106654087D01*
X122659881Y-106659400D01*
X122659881Y-106659402D01*
X122696619Y-106796507D01*
X122717716Y-106875243D01*
X122720039Y-106880224D01*
X122720039Y-106880225D01*
X122812151Y-107077762D01*
X122812154Y-107077767D01*
X122814477Y-107082749D01*
X122945802Y-107270300D01*
X123107700Y-107432198D01*
X123112208Y-107435355D01*
X123112211Y-107435357D01*
X123182105Y-107484297D01*
X123295251Y-107563523D01*
X123300233Y-107565846D01*
X123300238Y-107565849D01*
X123497775Y-107657961D01*
X123502757Y-107660284D01*
X123508065Y-107661706D01*
X123508067Y-107661707D01*
X123718598Y-107718119D01*
X123718600Y-107718119D01*
X123723913Y-107719543D01*
X123952000Y-107739498D01*
X124180087Y-107719543D01*
X124185400Y-107718119D01*
X124185402Y-107718119D01*
X124395933Y-107661707D01*
X124395935Y-107661706D01*
X124401243Y-107660284D01*
X124406225Y-107657961D01*
X124603762Y-107565849D01*
X124603767Y-107565846D01*
X124608749Y-107563523D01*
X124721895Y-107484297D01*
X124791789Y-107435357D01*
X124791792Y-107435355D01*
X124796300Y-107432198D01*
X124958198Y-107270300D01*
X125089523Y-107082749D01*
X125091846Y-107077767D01*
X125091849Y-107077762D01*
X125183961Y-106880225D01*
X125183961Y-106880224D01*
X125186284Y-106875243D01*
X125207382Y-106796507D01*
X125244119Y-106659402D01*
X125244119Y-106659400D01*
X125245543Y-106654087D01*
X125265498Y-106426000D01*
X125940502Y-106426000D01*
X125960457Y-106654087D01*
X125961881Y-106659400D01*
X125961881Y-106659402D01*
X125998619Y-106796507D01*
X126019716Y-106875243D01*
X126022039Y-106880224D01*
X126022039Y-106880225D01*
X126114151Y-107077762D01*
X126114154Y-107077767D01*
X126116477Y-107082749D01*
X126247802Y-107270300D01*
X126409700Y-107432198D01*
X126414208Y-107435355D01*
X126414211Y-107435357D01*
X126484105Y-107484297D01*
X126597251Y-107563523D01*
X126602233Y-107565846D01*
X126602238Y-107565849D01*
X126799775Y-107657961D01*
X126804757Y-107660284D01*
X126810065Y-107661706D01*
X126810067Y-107661707D01*
X127020598Y-107718119D01*
X127020600Y-107718119D01*
X127025913Y-107719543D01*
X127254000Y-107739498D01*
X127482087Y-107719543D01*
X127487400Y-107718119D01*
X127487402Y-107718119D01*
X127697933Y-107661707D01*
X127697935Y-107661706D01*
X127703243Y-107660284D01*
X127708225Y-107657961D01*
X127905762Y-107565849D01*
X127905767Y-107565846D01*
X127910749Y-107563523D01*
X128023895Y-107484297D01*
X128093789Y-107435357D01*
X128093792Y-107435355D01*
X128098300Y-107432198D01*
X128260198Y-107270300D01*
X128391523Y-107082749D01*
X128393846Y-107077767D01*
X128393849Y-107077762D01*
X128485961Y-106880225D01*
X128485961Y-106880224D01*
X128488284Y-106875243D01*
X128509382Y-106796507D01*
X128546119Y-106659402D01*
X128546119Y-106659400D01*
X128547543Y-106654087D01*
X128567498Y-106426000D01*
X129242502Y-106426000D01*
X129262457Y-106654087D01*
X129263881Y-106659400D01*
X129263881Y-106659402D01*
X129300619Y-106796507D01*
X129321716Y-106875243D01*
X129324039Y-106880224D01*
X129324039Y-106880225D01*
X129416151Y-107077762D01*
X129416154Y-107077767D01*
X129418477Y-107082749D01*
X129549802Y-107270300D01*
X129711700Y-107432198D01*
X129716208Y-107435355D01*
X129716211Y-107435357D01*
X129786105Y-107484297D01*
X129899251Y-107563523D01*
X129904233Y-107565846D01*
X129904238Y-107565849D01*
X130101775Y-107657961D01*
X130106757Y-107660284D01*
X130112065Y-107661706D01*
X130112067Y-107661707D01*
X130322598Y-107718119D01*
X130322600Y-107718119D01*
X130327913Y-107719543D01*
X130556000Y-107739498D01*
X130784087Y-107719543D01*
X130789400Y-107718119D01*
X130789402Y-107718119D01*
X130999933Y-107661707D01*
X130999935Y-107661706D01*
X131005243Y-107660284D01*
X131010225Y-107657961D01*
X131207762Y-107565849D01*
X131207767Y-107565846D01*
X131212749Y-107563523D01*
X131325895Y-107484297D01*
X131395789Y-107435357D01*
X131395792Y-107435355D01*
X131400300Y-107432198D01*
X131562198Y-107270300D01*
X131693523Y-107082749D01*
X131695846Y-107077767D01*
X131695849Y-107077762D01*
X131787961Y-106880225D01*
X131787961Y-106880224D01*
X131790284Y-106875243D01*
X131811382Y-106796507D01*
X131848119Y-106659402D01*
X131848119Y-106659400D01*
X131849543Y-106654087D01*
X131869498Y-106426000D01*
X132544502Y-106426000D01*
X132564457Y-106654087D01*
X132565881Y-106659400D01*
X132565881Y-106659402D01*
X132602619Y-106796507D01*
X132623716Y-106875243D01*
X132626039Y-106880224D01*
X132626039Y-106880225D01*
X132718151Y-107077762D01*
X132718154Y-107077767D01*
X132720477Y-107082749D01*
X132851802Y-107270300D01*
X133013700Y-107432198D01*
X133018208Y-107435355D01*
X133018211Y-107435357D01*
X133088105Y-107484297D01*
X133201251Y-107563523D01*
X133206233Y-107565846D01*
X133206238Y-107565849D01*
X133403775Y-107657961D01*
X133408757Y-107660284D01*
X133414065Y-107661706D01*
X133414067Y-107661707D01*
X133624598Y-107718119D01*
X133624600Y-107718119D01*
X133629913Y-107719543D01*
X133858000Y-107739498D01*
X134086087Y-107719543D01*
X134091400Y-107718119D01*
X134091402Y-107718119D01*
X134301933Y-107661707D01*
X134301935Y-107661706D01*
X134307243Y-107660284D01*
X134312225Y-107657961D01*
X134509762Y-107565849D01*
X134509767Y-107565846D01*
X134514749Y-107563523D01*
X134627895Y-107484297D01*
X134697789Y-107435357D01*
X134697792Y-107435355D01*
X134702300Y-107432198D01*
X134864198Y-107270300D01*
X134995523Y-107082749D01*
X134997846Y-107077767D01*
X134997849Y-107077762D01*
X135089961Y-106880225D01*
X135089961Y-106880224D01*
X135092284Y-106875243D01*
X135113382Y-106796507D01*
X135150119Y-106659402D01*
X135150119Y-106659400D01*
X135151543Y-106654087D01*
X135171498Y-106426000D01*
X135151543Y-106197913D01*
X135092284Y-105976757D01*
X135004180Y-105787816D01*
X134997849Y-105774238D01*
X134997846Y-105774233D01*
X134995523Y-105769251D01*
X134884168Y-105610220D01*
X134867357Y-105586211D01*
X134867355Y-105586208D01*
X134864198Y-105581700D01*
X134702300Y-105419802D01*
X134697792Y-105416645D01*
X134697789Y-105416643D01*
X134572150Y-105328670D01*
X134514749Y-105288477D01*
X134509767Y-105286154D01*
X134509762Y-105286151D01*
X134312225Y-105194039D01*
X134312224Y-105194039D01*
X134307243Y-105191716D01*
X134301935Y-105190294D01*
X134301933Y-105190293D01*
X134091402Y-105133881D01*
X134091400Y-105133881D01*
X134086087Y-105132457D01*
X133858000Y-105112502D01*
X133629913Y-105132457D01*
X133624600Y-105133881D01*
X133624598Y-105133881D01*
X133414067Y-105190293D01*
X133414065Y-105190294D01*
X133408757Y-105191716D01*
X133403776Y-105194039D01*
X133403775Y-105194039D01*
X133206238Y-105286151D01*
X133206233Y-105286154D01*
X133201251Y-105288477D01*
X133143850Y-105328670D01*
X133018211Y-105416643D01*
X133018208Y-105416645D01*
X133013700Y-105419802D01*
X132851802Y-105581700D01*
X132848645Y-105586208D01*
X132848643Y-105586211D01*
X132831832Y-105610220D01*
X132720477Y-105769251D01*
X132718154Y-105774233D01*
X132718151Y-105774238D01*
X132711820Y-105787816D01*
X132623716Y-105976757D01*
X132564457Y-106197913D01*
X132544502Y-106426000D01*
X131869498Y-106426000D01*
X131849543Y-106197913D01*
X131790284Y-105976757D01*
X131702180Y-105787816D01*
X131695849Y-105774238D01*
X131695846Y-105774233D01*
X131693523Y-105769251D01*
X131582168Y-105610220D01*
X131565357Y-105586211D01*
X131565355Y-105586208D01*
X131562198Y-105581700D01*
X131400300Y-105419802D01*
X131395792Y-105416645D01*
X131395789Y-105416643D01*
X131270150Y-105328670D01*
X131212749Y-105288477D01*
X131207767Y-105286154D01*
X131207762Y-105286151D01*
X131010225Y-105194039D01*
X131010224Y-105194039D01*
X131005243Y-105191716D01*
X130999935Y-105190294D01*
X130999933Y-105190293D01*
X130789402Y-105133881D01*
X130789400Y-105133881D01*
X130784087Y-105132457D01*
X130556000Y-105112502D01*
X130327913Y-105132457D01*
X130322600Y-105133881D01*
X130322598Y-105133881D01*
X130112067Y-105190293D01*
X130112065Y-105190294D01*
X130106757Y-105191716D01*
X130101776Y-105194039D01*
X130101775Y-105194039D01*
X129904238Y-105286151D01*
X129904233Y-105286154D01*
X129899251Y-105288477D01*
X129841850Y-105328670D01*
X129716211Y-105416643D01*
X129716208Y-105416645D01*
X129711700Y-105419802D01*
X129549802Y-105581700D01*
X129546645Y-105586208D01*
X129546643Y-105586211D01*
X129529832Y-105610220D01*
X129418477Y-105769251D01*
X129416154Y-105774233D01*
X129416151Y-105774238D01*
X129409820Y-105787816D01*
X129321716Y-105976757D01*
X129262457Y-106197913D01*
X129242502Y-106426000D01*
X128567498Y-106426000D01*
X128547543Y-106197913D01*
X128488284Y-105976757D01*
X128400180Y-105787816D01*
X128393849Y-105774238D01*
X128393846Y-105774233D01*
X128391523Y-105769251D01*
X128280168Y-105610220D01*
X128263357Y-105586211D01*
X128263355Y-105586208D01*
X128260198Y-105581700D01*
X128098300Y-105419802D01*
X128093792Y-105416645D01*
X128093789Y-105416643D01*
X127968150Y-105328670D01*
X127910749Y-105288477D01*
X127905767Y-105286154D01*
X127905762Y-105286151D01*
X127708225Y-105194039D01*
X127708224Y-105194039D01*
X127703243Y-105191716D01*
X127697935Y-105190294D01*
X127697933Y-105190293D01*
X127487402Y-105133881D01*
X127487400Y-105133881D01*
X127482087Y-105132457D01*
X127254000Y-105112502D01*
X127025913Y-105132457D01*
X127020600Y-105133881D01*
X127020598Y-105133881D01*
X126810067Y-105190293D01*
X126810065Y-105190294D01*
X126804757Y-105191716D01*
X126799776Y-105194039D01*
X126799775Y-105194039D01*
X126602238Y-105286151D01*
X126602233Y-105286154D01*
X126597251Y-105288477D01*
X126539850Y-105328670D01*
X126414211Y-105416643D01*
X126414208Y-105416645D01*
X126409700Y-105419802D01*
X126247802Y-105581700D01*
X126244645Y-105586208D01*
X126244643Y-105586211D01*
X126227832Y-105610220D01*
X126116477Y-105769251D01*
X126114154Y-105774233D01*
X126114151Y-105774238D01*
X126107820Y-105787816D01*
X126019716Y-105976757D01*
X125960457Y-106197913D01*
X125940502Y-106426000D01*
X125265498Y-106426000D01*
X125245543Y-106197913D01*
X125186284Y-105976757D01*
X125098180Y-105787816D01*
X125091849Y-105774238D01*
X125091846Y-105774233D01*
X125089523Y-105769251D01*
X124978168Y-105610220D01*
X124961357Y-105586211D01*
X124961355Y-105586208D01*
X124958198Y-105581700D01*
X124796300Y-105419802D01*
X124791792Y-105416645D01*
X124791789Y-105416643D01*
X124666150Y-105328670D01*
X124608749Y-105288477D01*
X124603767Y-105286154D01*
X124603762Y-105286151D01*
X124406225Y-105194039D01*
X124406224Y-105194039D01*
X124401243Y-105191716D01*
X124395935Y-105190294D01*
X124395933Y-105190293D01*
X124185402Y-105133881D01*
X124185400Y-105133881D01*
X124180087Y-105132457D01*
X123952000Y-105112502D01*
X123723913Y-105132457D01*
X123718600Y-105133881D01*
X123718598Y-105133881D01*
X123508067Y-105190293D01*
X123508065Y-105190294D01*
X123502757Y-105191716D01*
X123497776Y-105194039D01*
X123497775Y-105194039D01*
X123300238Y-105286151D01*
X123300233Y-105286154D01*
X123295251Y-105288477D01*
X123237850Y-105328670D01*
X123112211Y-105416643D01*
X123112208Y-105416645D01*
X123107700Y-105419802D01*
X122945802Y-105581700D01*
X122942645Y-105586208D01*
X122942643Y-105586211D01*
X122925832Y-105610220D01*
X122814477Y-105769251D01*
X122812154Y-105774233D01*
X122812151Y-105774238D01*
X122805820Y-105787816D01*
X122717716Y-105976757D01*
X122658457Y-106197913D01*
X122638502Y-106426000D01*
X120745004Y-106426000D01*
X120725979Y-106208538D01*
X120668441Y-105993805D01*
X120666118Y-105988823D01*
X120576815Y-105797312D01*
X120576812Y-105797307D01*
X120574489Y-105792325D01*
X120571332Y-105787816D01*
X120450137Y-105614731D01*
X120450135Y-105614728D01*
X120446978Y-105610220D01*
X120289782Y-105453024D01*
X120285274Y-105449867D01*
X120285271Y-105449865D01*
X120209506Y-105396814D01*
X120107678Y-105325513D01*
X120102696Y-105323190D01*
X120102691Y-105323187D01*
X119997628Y-105274196D01*
X119944343Y-105227279D01*
X119924882Y-105159002D01*
X119945424Y-105091042D01*
X119997628Y-105045806D01*
X120102691Y-104996815D01*
X120102696Y-104996812D01*
X120107678Y-104994489D01*
X120209506Y-104923188D01*
X120285271Y-104870137D01*
X120285274Y-104870135D01*
X120289782Y-104866978D01*
X120446978Y-104709782D01*
X120574489Y-104527677D01*
X120576812Y-104522695D01*
X120576815Y-104522690D01*
X120666118Y-104331179D01*
X120666119Y-104331178D01*
X120668441Y-104326197D01*
X120725979Y-104111464D01*
X120745354Y-103890001D01*
X120725979Y-103668538D01*
X120668441Y-103453805D01*
X120666118Y-103448823D01*
X120576815Y-103257312D01*
X120576812Y-103257307D01*
X120574489Y-103252325D01*
X120446978Y-103070220D01*
X120289782Y-102913024D01*
X120285274Y-102909867D01*
X120285271Y-102909865D01*
X120209506Y-102856814D01*
X120107678Y-102785513D01*
X120102696Y-102783190D01*
X120102691Y-102783187D01*
X119997628Y-102734196D01*
X119944343Y-102687279D01*
X119924882Y-102619002D01*
X119945424Y-102551042D01*
X119997628Y-102505806D01*
X120102691Y-102456815D01*
X120102696Y-102456812D01*
X120107678Y-102454489D01*
X120209506Y-102383188D01*
X120285271Y-102330137D01*
X120285274Y-102330135D01*
X120289782Y-102326978D01*
X120446978Y-102169782D01*
X120574489Y-101987677D01*
X120576812Y-101982695D01*
X120576815Y-101982690D01*
X120666118Y-101791179D01*
X120666119Y-101791178D01*
X120668441Y-101786197D01*
X120725979Y-101571464D01*
X120745354Y-101350001D01*
X120725979Y-101128538D01*
X120668441Y-100913805D01*
X120666118Y-100908823D01*
X120576815Y-100717312D01*
X120576812Y-100717307D01*
X120574489Y-100712325D01*
X120446978Y-100530220D01*
X120289782Y-100373024D01*
X120285274Y-100369867D01*
X120285271Y-100369865D01*
X120209506Y-100316814D01*
X120107678Y-100245513D01*
X120102696Y-100243190D01*
X120102691Y-100243187D01*
X119997628Y-100194196D01*
X119944343Y-100147279D01*
X119924882Y-100079002D01*
X119945424Y-100011042D01*
X119997628Y-99965806D01*
X120102691Y-99916815D01*
X120102696Y-99916812D01*
X120107678Y-99914489D01*
X120209506Y-99843188D01*
X120285271Y-99790137D01*
X120285274Y-99790135D01*
X120289782Y-99786978D01*
X120446978Y-99629782D01*
X120574489Y-99447677D01*
X120576812Y-99442695D01*
X120576815Y-99442690D01*
X120666118Y-99251179D01*
X120666119Y-99251178D01*
X120668441Y-99246197D01*
X120725979Y-99031464D01*
X120745354Y-98810001D01*
X120725979Y-98588538D01*
X120668441Y-98373805D01*
X120666118Y-98368823D01*
X120576815Y-98177312D01*
X120576812Y-98177307D01*
X120574489Y-98172325D01*
X120446978Y-97990220D01*
X120289782Y-97833024D01*
X120285274Y-97829867D01*
X120285271Y-97829865D01*
X120209506Y-97776814D01*
X120107678Y-97705513D01*
X120102696Y-97703190D01*
X120102691Y-97703187D01*
X119997628Y-97654196D01*
X119944343Y-97607279D01*
X119924882Y-97539002D01*
X119945424Y-97471042D01*
X119997628Y-97425806D01*
X120102691Y-97376815D01*
X120102696Y-97376812D01*
X120107678Y-97374489D01*
X120209506Y-97303188D01*
X120285271Y-97250137D01*
X120285274Y-97250135D01*
X120289782Y-97246978D01*
X120446978Y-97089782D01*
X120574489Y-96907677D01*
X120576812Y-96902695D01*
X120576815Y-96902690D01*
X120666118Y-96711179D01*
X120666119Y-96711178D01*
X120668441Y-96706197D01*
X120725979Y-96491464D01*
X120745354Y-96270001D01*
X120725979Y-96048538D01*
X120668441Y-95833805D01*
X120666118Y-95828823D01*
X120576815Y-95637312D01*
X120576812Y-95637307D01*
X120574489Y-95632325D01*
X120446978Y-95450220D01*
X120289782Y-95293024D01*
X120285274Y-95289867D01*
X120285271Y-95289865D01*
X120209506Y-95236814D01*
X120107678Y-95165513D01*
X120102696Y-95163190D01*
X120102691Y-95163187D01*
X119997628Y-95114196D01*
X119944343Y-95067279D01*
X119924882Y-94999002D01*
X119945424Y-94931042D01*
X119997628Y-94885806D01*
X120102691Y-94836815D01*
X120102696Y-94836812D01*
X120107678Y-94834489D01*
X120209506Y-94763188D01*
X120285271Y-94710137D01*
X120285274Y-94710135D01*
X120289782Y-94706978D01*
X120446978Y-94549782D01*
X120574489Y-94367677D01*
X120576812Y-94362695D01*
X120576815Y-94362690D01*
X120666118Y-94171179D01*
X120666119Y-94171178D01*
X120668441Y-94166197D01*
X120725979Y-93951464D01*
X120745354Y-93730001D01*
X120725979Y-93508538D01*
X120668441Y-93293805D01*
X120666118Y-93288823D01*
X120576815Y-93097312D01*
X120576812Y-93097307D01*
X120574489Y-93092325D01*
X120446978Y-92910220D01*
X120289782Y-92753024D01*
X120285274Y-92749867D01*
X120285271Y-92749865D01*
X120209506Y-92696814D01*
X120107678Y-92625513D01*
X120102696Y-92623190D01*
X120102691Y-92623187D01*
X119997628Y-92574196D01*
X119944343Y-92527279D01*
X119924882Y-92459002D01*
X119945424Y-92391042D01*
X119997628Y-92345806D01*
X120102691Y-92296815D01*
X120102696Y-92296812D01*
X120107678Y-92294489D01*
X120209506Y-92223188D01*
X120285271Y-92170137D01*
X120285274Y-92170135D01*
X120289782Y-92166978D01*
X120446978Y-92009782D01*
X120574489Y-91827677D01*
X120576812Y-91822695D01*
X120576815Y-91822690D01*
X120666118Y-91631179D01*
X120666119Y-91631178D01*
X120668441Y-91626197D01*
X120725979Y-91411464D01*
X120745354Y-91190001D01*
X120725979Y-90968538D01*
X120668441Y-90753805D01*
X120666118Y-90748823D01*
X120576815Y-90557312D01*
X120576812Y-90557307D01*
X120574489Y-90552325D01*
X120446978Y-90370220D01*
X120289782Y-90213024D01*
X120285274Y-90209867D01*
X120285271Y-90209865D01*
X120209506Y-90156814D01*
X120107678Y-90085513D01*
X120102696Y-90083190D01*
X120102691Y-90083187D01*
X119997628Y-90034196D01*
X119944343Y-89987279D01*
X119924882Y-89919002D01*
X119945424Y-89851042D01*
X119997628Y-89805806D01*
X120102691Y-89756815D01*
X120102696Y-89756812D01*
X120107678Y-89754489D01*
X120209506Y-89683188D01*
X120285271Y-89630137D01*
X120285274Y-89630135D01*
X120289782Y-89626978D01*
X120446978Y-89469782D01*
X120574489Y-89287677D01*
X120576812Y-89282695D01*
X120576815Y-89282690D01*
X120666118Y-89091179D01*
X120666119Y-89091178D01*
X120668441Y-89086197D01*
X120725979Y-88871464D01*
X120745354Y-88650001D01*
X120725979Y-88428538D01*
X120668441Y-88213805D01*
X120666118Y-88208823D01*
X120576815Y-88017312D01*
X120576812Y-88017307D01*
X120574489Y-88012325D01*
X120446978Y-87830220D01*
X120289782Y-87673024D01*
X120285274Y-87669867D01*
X120285271Y-87669865D01*
X120209506Y-87616814D01*
X120107678Y-87545513D01*
X120102696Y-87543190D01*
X120102691Y-87543187D01*
X119997628Y-87494196D01*
X119944343Y-87447279D01*
X119924882Y-87379002D01*
X119945424Y-87311042D01*
X119997628Y-87265806D01*
X120102691Y-87216815D01*
X120102696Y-87216812D01*
X120107678Y-87214489D01*
X120209506Y-87143188D01*
X120285271Y-87090137D01*
X120285274Y-87090135D01*
X120289782Y-87086978D01*
X120446978Y-86929782D01*
X120574489Y-86747677D01*
X120576812Y-86742695D01*
X120576815Y-86742690D01*
X120666118Y-86551179D01*
X120666119Y-86551178D01*
X120668441Y-86546197D01*
X120725979Y-86331464D01*
X120745354Y-86110001D01*
X120725979Y-85888538D01*
X120668441Y-85673805D01*
X120666118Y-85668823D01*
X120576815Y-85477312D01*
X120576812Y-85477307D01*
X120574489Y-85472325D01*
X120446978Y-85290220D01*
X120289782Y-85133024D01*
X120285274Y-85129867D01*
X120285271Y-85129865D01*
X120209506Y-85076814D01*
X120107678Y-85005513D01*
X120102696Y-85003190D01*
X120102691Y-85003187D01*
X119997628Y-84954196D01*
X119944343Y-84907279D01*
X119924882Y-84839002D01*
X119945424Y-84771042D01*
X119997628Y-84725806D01*
X120102691Y-84676815D01*
X120102696Y-84676812D01*
X120107678Y-84674489D01*
X120209506Y-84603188D01*
X120285271Y-84550137D01*
X120285274Y-84550135D01*
X120289782Y-84546978D01*
X120446978Y-84389782D01*
X120574489Y-84207677D01*
X120576812Y-84202695D01*
X120576815Y-84202690D01*
X120666118Y-84011179D01*
X120666119Y-84011178D01*
X120668441Y-84006197D01*
X120725979Y-83791464D01*
X120745354Y-83570001D01*
X120725979Y-83348538D01*
X120668441Y-83133805D01*
X120666118Y-83128823D01*
X120576815Y-82937312D01*
X120576812Y-82937307D01*
X120574489Y-82932325D01*
X120446978Y-82750220D01*
X120289782Y-82593024D01*
X120285274Y-82589867D01*
X120285271Y-82589865D01*
X120169802Y-82509013D01*
X120107678Y-82465513D01*
X120102696Y-82463190D01*
X120102691Y-82463187D01*
X119997628Y-82414196D01*
X119944343Y-82367279D01*
X119924882Y-82299002D01*
X119945424Y-82231042D01*
X119997628Y-82185806D01*
X120102691Y-82136815D01*
X120102696Y-82136812D01*
X120107678Y-82134489D01*
X120256478Y-82030298D01*
X120285271Y-82010137D01*
X120285274Y-82010135D01*
X120289782Y-82006978D01*
X120446978Y-81849782D01*
X120451355Y-81843532D01*
X120571332Y-81672186D01*
X120571333Y-81672184D01*
X120574489Y-81667677D01*
X120576812Y-81662695D01*
X120576815Y-81662690D01*
X120666118Y-81471179D01*
X120666119Y-81471178D01*
X120668441Y-81466197D01*
X120725979Y-81251464D01*
X120745354Y-81030001D01*
X120725979Y-80808538D01*
X120668441Y-80593805D01*
X120666118Y-80588823D01*
X120576815Y-80397312D01*
X120576812Y-80397307D01*
X120574489Y-80392325D01*
X120571332Y-80387816D01*
X120450137Y-80214731D01*
X120450135Y-80214728D01*
X120446978Y-80210220D01*
X120289782Y-80053024D01*
X120285274Y-80049867D01*
X120285271Y-80049865D01*
X120209506Y-79996814D01*
X120107678Y-79925513D01*
X120102696Y-79923190D01*
X120102691Y-79923187D01*
X119911179Y-79833884D01*
X119911178Y-79833883D01*
X119906197Y-79831561D01*
X119900889Y-79830139D01*
X119900887Y-79830138D01*
X119835052Y-79812498D01*
X119691464Y-79774023D01*
X119470001Y-79754648D01*
X119248538Y-79774023D01*
X119104950Y-79812498D01*
X119039115Y-79830138D01*
X119039113Y-79830139D01*
X119033805Y-79831561D01*
X119028824Y-79833883D01*
X119028823Y-79833884D01*
X118837312Y-79923187D01*
X118837307Y-79923190D01*
X118832325Y-79925513D01*
X118827818Y-79928669D01*
X118827816Y-79928670D01*
X118654731Y-80049865D01*
X118654728Y-80049867D01*
X118650220Y-80053024D01*
X118493024Y-80210220D01*
X118489867Y-80214728D01*
X118489865Y-80214731D01*
X118368670Y-80387816D01*
X118365513Y-80392325D01*
X118363190Y-80397307D01*
X118363187Y-80397312D01*
X118273884Y-80588823D01*
X118271561Y-80593805D01*
X118214023Y-80808538D01*
X118194648Y-81030001D01*
X118214023Y-81251464D01*
X118271561Y-81466197D01*
X118273883Y-81471178D01*
X118273884Y-81471179D01*
X118363187Y-81662690D01*
X118363190Y-81662695D01*
X118365513Y-81667677D01*
X118368669Y-81672184D01*
X118368670Y-81672186D01*
X118488648Y-81843532D01*
X118493024Y-81849782D01*
X118650220Y-82006978D01*
X118654728Y-82010135D01*
X118654731Y-82010137D01*
X118683524Y-82030298D01*
X118832324Y-82134489D01*
X118837306Y-82136812D01*
X118837311Y-82136815D01*
X118942374Y-82185806D01*
X118995659Y-82232723D01*
X119015120Y-82301000D01*
X118994578Y-82368960D01*
X118942374Y-82414196D01*
X118837312Y-82463187D01*
X118837307Y-82463190D01*
X118832325Y-82465513D01*
X118827818Y-82468669D01*
X118827816Y-82468670D01*
X118654731Y-82589865D01*
X118654728Y-82589867D01*
X118650220Y-82593024D01*
X118493024Y-82750220D01*
X118365513Y-82932325D01*
X118363190Y-82937307D01*
X118363187Y-82937312D01*
X118273884Y-83128823D01*
X118271561Y-83133805D01*
X118214023Y-83348538D01*
X118194648Y-83570001D01*
X118214023Y-83791464D01*
X118271561Y-84006197D01*
X118273883Y-84011178D01*
X118273884Y-84011179D01*
X118363187Y-84202690D01*
X118363190Y-84202695D01*
X118365513Y-84207677D01*
X118493024Y-84389782D01*
X118650220Y-84546978D01*
X118654728Y-84550135D01*
X118654731Y-84550137D01*
X118730496Y-84603188D01*
X118832324Y-84674489D01*
X118837306Y-84676812D01*
X118837311Y-84676815D01*
X118942374Y-84725806D01*
X118995659Y-84772723D01*
X119015120Y-84841000D01*
X118994578Y-84908960D01*
X118942374Y-84954196D01*
X118837312Y-85003187D01*
X118837307Y-85003190D01*
X118832325Y-85005513D01*
X118827818Y-85008669D01*
X118827816Y-85008670D01*
X118654731Y-85129865D01*
X118654728Y-85129867D01*
X118650220Y-85133024D01*
X118493024Y-85290220D01*
X118365513Y-85472325D01*
X118363190Y-85477307D01*
X118363187Y-85477312D01*
X118273884Y-85668823D01*
X118271561Y-85673805D01*
X118214023Y-85888538D01*
X118194648Y-86110001D01*
X118214023Y-86331464D01*
X118271561Y-86546197D01*
X118273883Y-86551178D01*
X118273884Y-86551179D01*
X118363187Y-86742690D01*
X118363190Y-86742695D01*
X118365513Y-86747677D01*
X118493024Y-86929782D01*
X118650220Y-87086978D01*
X118654728Y-87090135D01*
X118654731Y-87090137D01*
X118730496Y-87143188D01*
X118832324Y-87214489D01*
X118837306Y-87216812D01*
X118837311Y-87216815D01*
X118942374Y-87265806D01*
X118995659Y-87312723D01*
X119015120Y-87381000D01*
X118994578Y-87448960D01*
X118942374Y-87494196D01*
X118837312Y-87543187D01*
X118837307Y-87543190D01*
X118832325Y-87545513D01*
X118827818Y-87548669D01*
X118827816Y-87548670D01*
X118654731Y-87669865D01*
X118654728Y-87669867D01*
X118650220Y-87673024D01*
X118493024Y-87830220D01*
X118365513Y-88012325D01*
X118363190Y-88017307D01*
X118363187Y-88017312D01*
X118273884Y-88208823D01*
X118271561Y-88213805D01*
X118214023Y-88428538D01*
X118194648Y-88650001D01*
X118214023Y-88871464D01*
X118271561Y-89086197D01*
X118273883Y-89091178D01*
X118273884Y-89091179D01*
X118363187Y-89282690D01*
X118363190Y-89282695D01*
X118365513Y-89287677D01*
X118493024Y-89469782D01*
X118650220Y-89626978D01*
X118654728Y-89630135D01*
X118654731Y-89630137D01*
X118730496Y-89683188D01*
X118832324Y-89754489D01*
X118837306Y-89756812D01*
X118837311Y-89756815D01*
X118942374Y-89805806D01*
X118995659Y-89852723D01*
X119015120Y-89921000D01*
X118994578Y-89988960D01*
X118942374Y-90034196D01*
X118837312Y-90083187D01*
X118837307Y-90083190D01*
X118832325Y-90085513D01*
X118827818Y-90088669D01*
X118827816Y-90088670D01*
X118654731Y-90209865D01*
X118654728Y-90209867D01*
X118650220Y-90213024D01*
X118493024Y-90370220D01*
X118365513Y-90552325D01*
X118363190Y-90557307D01*
X118363187Y-90557312D01*
X118273884Y-90748823D01*
X118271561Y-90753805D01*
X118214023Y-90968538D01*
X118194648Y-91190001D01*
X118214023Y-91411464D01*
X118271561Y-91626197D01*
X118273883Y-91631178D01*
X118273884Y-91631179D01*
X118363187Y-91822690D01*
X118363190Y-91822695D01*
X118365513Y-91827677D01*
X118493024Y-92009782D01*
X118650220Y-92166978D01*
X118654728Y-92170135D01*
X118654731Y-92170137D01*
X118730496Y-92223188D01*
X118832324Y-92294489D01*
X118837306Y-92296812D01*
X118837311Y-92296815D01*
X118942374Y-92345806D01*
X118995659Y-92392723D01*
X119015120Y-92461000D01*
X118994578Y-92528960D01*
X118942374Y-92574196D01*
X118837312Y-92623187D01*
X118837307Y-92623190D01*
X118832325Y-92625513D01*
X118827818Y-92628669D01*
X118827816Y-92628670D01*
X118654731Y-92749865D01*
X118654728Y-92749867D01*
X118650220Y-92753024D01*
X118493024Y-92910220D01*
X118365513Y-93092325D01*
X118363190Y-93097307D01*
X118363187Y-93097312D01*
X118273884Y-93288823D01*
X118271561Y-93293805D01*
X118214023Y-93508538D01*
X118194648Y-93730001D01*
X118214023Y-93951464D01*
X118271561Y-94166197D01*
X118273883Y-94171178D01*
X118273884Y-94171179D01*
X118363187Y-94362690D01*
X118363190Y-94362695D01*
X118365513Y-94367677D01*
X118493024Y-94549782D01*
X118650220Y-94706978D01*
X118654728Y-94710135D01*
X118654731Y-94710137D01*
X118730496Y-94763188D01*
X118832324Y-94834489D01*
X118837306Y-94836812D01*
X118837311Y-94836815D01*
X118942374Y-94885806D01*
X118995659Y-94932723D01*
X119015120Y-95001000D01*
X118994578Y-95068960D01*
X118942374Y-95114196D01*
X118837312Y-95163187D01*
X118837307Y-95163190D01*
X118832325Y-95165513D01*
X118827818Y-95168669D01*
X118827816Y-95168670D01*
X118654731Y-95289865D01*
X118654728Y-95289867D01*
X118650220Y-95293024D01*
X118493024Y-95450220D01*
X118365513Y-95632325D01*
X118363190Y-95637307D01*
X118363187Y-95637312D01*
X118273884Y-95828823D01*
X118271561Y-95833805D01*
X118214023Y-96048538D01*
X118194648Y-96270001D01*
X118214023Y-96491464D01*
X118271561Y-96706197D01*
X118273883Y-96711178D01*
X118273884Y-96711179D01*
X118363187Y-96902690D01*
X118363190Y-96902695D01*
X118365513Y-96907677D01*
X118493024Y-97089782D01*
X118650220Y-97246978D01*
X118654728Y-97250135D01*
X118654731Y-97250137D01*
X118730496Y-97303188D01*
X118832324Y-97374489D01*
X118837306Y-97376812D01*
X118837311Y-97376815D01*
X118942374Y-97425806D01*
X118995659Y-97472723D01*
X119015120Y-97541000D01*
X118994578Y-97608960D01*
X118942374Y-97654196D01*
X118837312Y-97703187D01*
X118837307Y-97703190D01*
X118832325Y-97705513D01*
X118827818Y-97708669D01*
X118827816Y-97708670D01*
X118654731Y-97829865D01*
X118654728Y-97829867D01*
X118650220Y-97833024D01*
X118493024Y-97990220D01*
X118365513Y-98172325D01*
X118363190Y-98177307D01*
X118363187Y-98177312D01*
X118273884Y-98368823D01*
X118271561Y-98373805D01*
X118214023Y-98588538D01*
X118194648Y-98810001D01*
X118214023Y-99031464D01*
X118271561Y-99246197D01*
X118273883Y-99251178D01*
X118273884Y-99251179D01*
X118363187Y-99442690D01*
X118363190Y-99442695D01*
X118365513Y-99447677D01*
X118493024Y-99629782D01*
X118650220Y-99786978D01*
X118654728Y-99790135D01*
X118654731Y-99790137D01*
X118730496Y-99843188D01*
X118832324Y-99914489D01*
X118837306Y-99916812D01*
X118837311Y-99916815D01*
X118942374Y-99965806D01*
X118995659Y-100012723D01*
X119015120Y-100081000D01*
X118994578Y-100148960D01*
X118942374Y-100194196D01*
X118837312Y-100243187D01*
X118837307Y-100243190D01*
X118832325Y-100245513D01*
X118827818Y-100248669D01*
X118827816Y-100248670D01*
X118654731Y-100369865D01*
X118654728Y-100369867D01*
X118650220Y-100373024D01*
X118493024Y-100530220D01*
X118365513Y-100712325D01*
X118363190Y-100717307D01*
X118363187Y-100717312D01*
X118273884Y-100908823D01*
X118271561Y-100913805D01*
X118214023Y-101128538D01*
X118194648Y-101350001D01*
X118214023Y-101571464D01*
X118271561Y-101786197D01*
X118273883Y-101791178D01*
X118273884Y-101791179D01*
X118363187Y-101982690D01*
X118363190Y-101982695D01*
X118365513Y-101987677D01*
X118493024Y-102169782D01*
X118650220Y-102326978D01*
X118654728Y-102330135D01*
X118654731Y-102330137D01*
X118730496Y-102383188D01*
X118832324Y-102454489D01*
X118837306Y-102456812D01*
X118837311Y-102456815D01*
X118942374Y-102505806D01*
X118995659Y-102552723D01*
X119015120Y-102621000D01*
X118994578Y-102688960D01*
X118942374Y-102734196D01*
X118837312Y-102783187D01*
X118837307Y-102783190D01*
X118832325Y-102785513D01*
X118827818Y-102788669D01*
X118827816Y-102788670D01*
X118654731Y-102909865D01*
X118654728Y-102909867D01*
X118650220Y-102913024D01*
X118493024Y-103070220D01*
X118365513Y-103252325D01*
X118363190Y-103257307D01*
X118363187Y-103257312D01*
X118273884Y-103448823D01*
X118271561Y-103453805D01*
X118214023Y-103668538D01*
X118194648Y-103890001D01*
X118214023Y-104111464D01*
X118271561Y-104326197D01*
X118273883Y-104331178D01*
X118273884Y-104331179D01*
X118363187Y-104522690D01*
X118363190Y-104522695D01*
X118365513Y-104527677D01*
X118493024Y-104709782D01*
X118650220Y-104866978D01*
X118654728Y-104870135D01*
X118654731Y-104870137D01*
X118730496Y-104923188D01*
X118832324Y-104994489D01*
X118837306Y-104996812D01*
X118837311Y-104996815D01*
X118942374Y-105045806D01*
X118995659Y-105092723D01*
X119015120Y-105161000D01*
X118994578Y-105228960D01*
X118942374Y-105274196D01*
X118837312Y-105323187D01*
X118837307Y-105323190D01*
X118832325Y-105325513D01*
X118827818Y-105328669D01*
X118827816Y-105328670D01*
X118654731Y-105449865D01*
X118654728Y-105449867D01*
X118650220Y-105453024D01*
X118493024Y-105610220D01*
X118489867Y-105614728D01*
X118489865Y-105614731D01*
X118368670Y-105787816D01*
X118365513Y-105792325D01*
X118363190Y-105797307D01*
X118363187Y-105797312D01*
X118273884Y-105988823D01*
X118271561Y-105993805D01*
X118214023Y-106208538D01*
X118194648Y-106430001D01*
X118214023Y-106651464D01*
X118271561Y-106866197D01*
X118273883Y-106871178D01*
X118273884Y-106871179D01*
X118363187Y-107062690D01*
X118363190Y-107062695D01*
X118365513Y-107067677D01*
X118368669Y-107072184D01*
X118368670Y-107072186D01*
X118398264Y-107114450D01*
X118493024Y-107249782D01*
X118650220Y-107406978D01*
X118654728Y-107410135D01*
X118654731Y-107410137D01*
X118690749Y-107435357D01*
X118832324Y-107534489D01*
X118837306Y-107536812D01*
X118837311Y-107536815D01*
X118942374Y-107585806D01*
X118995659Y-107632723D01*
X119015120Y-107701000D01*
X118994578Y-107768960D01*
X118942374Y-107814196D01*
X118837312Y-107863187D01*
X118837307Y-107863190D01*
X118832325Y-107865513D01*
X118827818Y-107868669D01*
X118827816Y-107868670D01*
X118654731Y-107989865D01*
X118654728Y-107989867D01*
X118650220Y-107993024D01*
X118493024Y-108150220D01*
X118489867Y-108154728D01*
X118489865Y-108154731D01*
X118368670Y-108327816D01*
X118365513Y-108332325D01*
X118363190Y-108337307D01*
X118363187Y-108337312D01*
X118307631Y-108456453D01*
X118271561Y-108533805D01*
X118214023Y-108748538D01*
X118194648Y-108970001D01*
X118214023Y-109191464D01*
X118271561Y-109406197D01*
X118273883Y-109411178D01*
X118273884Y-109411179D01*
X118363187Y-109602690D01*
X118363190Y-109602695D01*
X118365513Y-109607677D01*
X118368669Y-109612184D01*
X118368670Y-109612186D01*
X118404199Y-109662926D01*
X118493024Y-109789782D01*
X118650220Y-109946978D01*
X118654728Y-109950135D01*
X118654731Y-109950137D01*
X118730496Y-110003188D01*
X118832324Y-110074489D01*
X118837306Y-110076812D01*
X118837311Y-110076815D01*
X118942374Y-110125806D01*
X118995659Y-110172723D01*
X119015120Y-110241000D01*
X118994578Y-110308960D01*
X118942374Y-110354196D01*
X118837312Y-110403187D01*
X118837307Y-110403190D01*
X118832325Y-110405513D01*
X118827818Y-110408669D01*
X118827816Y-110408670D01*
X118654731Y-110529865D01*
X118654728Y-110529867D01*
X118650220Y-110533024D01*
X118493024Y-110690220D01*
X118489867Y-110694728D01*
X118489865Y-110694731D01*
X118368670Y-110867816D01*
X118365513Y-110872325D01*
X118363190Y-110877307D01*
X118363187Y-110877312D01*
X118307631Y-110996453D01*
X118271561Y-111073805D01*
X118214023Y-111288538D01*
X118194648Y-111510001D01*
X95345354Y-111510001D01*
X95325979Y-111288538D01*
X95268441Y-111073805D01*
X95232371Y-110996453D01*
X95176815Y-110877312D01*
X95176812Y-110877307D01*
X95174489Y-110872325D01*
X95171332Y-110867816D01*
X95050137Y-110694731D01*
X95050135Y-110694728D01*
X95046978Y-110690220D01*
X94889782Y-110533024D01*
X94885274Y-110529867D01*
X94885271Y-110529865D01*
X94780773Y-110456695D01*
X94707678Y-110405513D01*
X94702696Y-110403190D01*
X94702691Y-110403187D01*
X94597628Y-110354196D01*
X94544343Y-110307279D01*
X94524882Y-110239002D01*
X94545424Y-110171042D01*
X94597628Y-110125806D01*
X94702691Y-110076815D01*
X94702696Y-110076812D01*
X94707678Y-110074489D01*
X94809506Y-110003188D01*
X94885271Y-109950137D01*
X94885274Y-109950135D01*
X94889782Y-109946978D01*
X95046978Y-109789782D01*
X95135804Y-109662926D01*
X95171332Y-109612186D01*
X95171333Y-109612184D01*
X95174489Y-109607677D01*
X95176812Y-109602695D01*
X95176815Y-109602690D01*
X95266118Y-109411179D01*
X95266119Y-109411178D01*
X95268441Y-109406197D01*
X95325979Y-109191464D01*
X95345354Y-108970001D01*
X95325979Y-108748538D01*
X95268441Y-108533805D01*
X95232371Y-108456453D01*
X95176815Y-108337312D01*
X95176812Y-108337307D01*
X95174489Y-108332325D01*
X95171332Y-108327816D01*
X95050137Y-108154731D01*
X95050135Y-108154728D01*
X95046978Y-108150220D01*
X94889782Y-107993024D01*
X94885274Y-107989867D01*
X94885271Y-107989865D01*
X94780773Y-107916695D01*
X94707678Y-107865513D01*
X94702696Y-107863190D01*
X94702691Y-107863187D01*
X94597628Y-107814196D01*
X94544343Y-107767279D01*
X94524882Y-107699002D01*
X94545424Y-107631042D01*
X94597628Y-107585806D01*
X94702691Y-107536815D01*
X94702696Y-107536812D01*
X94707678Y-107534489D01*
X94849253Y-107435357D01*
X94885271Y-107410137D01*
X94885274Y-107410135D01*
X94889782Y-107406978D01*
X95046978Y-107249782D01*
X95141739Y-107114450D01*
X95171332Y-107072186D01*
X95171333Y-107072184D01*
X95174489Y-107067677D01*
X95176812Y-107062695D01*
X95176815Y-107062690D01*
X95266118Y-106871179D01*
X95266119Y-106871178D01*
X95268441Y-106866197D01*
X95325979Y-106651464D01*
X95345354Y-106430001D01*
X95325979Y-106208538D01*
X95268441Y-105993805D01*
X95266118Y-105988823D01*
X95176815Y-105797312D01*
X95176812Y-105797307D01*
X95174489Y-105792325D01*
X95171332Y-105787816D01*
X95050137Y-105614731D01*
X95050135Y-105614728D01*
X95046978Y-105610220D01*
X94889782Y-105453024D01*
X94885274Y-105449867D01*
X94885271Y-105449865D01*
X94809506Y-105396814D01*
X94707678Y-105325513D01*
X94702696Y-105323190D01*
X94702691Y-105323187D01*
X94597628Y-105274196D01*
X94544343Y-105227279D01*
X94524882Y-105159002D01*
X94545424Y-105091042D01*
X94597628Y-105045806D01*
X94702691Y-104996815D01*
X94702696Y-104996812D01*
X94707678Y-104994489D01*
X94809506Y-104923188D01*
X94885271Y-104870137D01*
X94885274Y-104870135D01*
X94889782Y-104866978D01*
X95046978Y-104709782D01*
X95174489Y-104527677D01*
X95176812Y-104522695D01*
X95176815Y-104522690D01*
X95266118Y-104331179D01*
X95266119Y-104331178D01*
X95268441Y-104326197D01*
X95325979Y-104111464D01*
X95345354Y-103890001D01*
X95325979Y-103668538D01*
X95268441Y-103453805D01*
X95266118Y-103448823D01*
X95176815Y-103257312D01*
X95176812Y-103257307D01*
X95174489Y-103252325D01*
X95046978Y-103070220D01*
X94889782Y-102913024D01*
X94885274Y-102909867D01*
X94885271Y-102909865D01*
X94809506Y-102856814D01*
X94707678Y-102785513D01*
X94702696Y-102783190D01*
X94702691Y-102783187D01*
X94597628Y-102734196D01*
X94544343Y-102687279D01*
X94524882Y-102619002D01*
X94545424Y-102551042D01*
X94597628Y-102505806D01*
X94702691Y-102456815D01*
X94702696Y-102456812D01*
X94707678Y-102454489D01*
X94809506Y-102383188D01*
X94885271Y-102330137D01*
X94885274Y-102330135D01*
X94889782Y-102326978D01*
X95046978Y-102169782D01*
X95174489Y-101987677D01*
X95176812Y-101982695D01*
X95176815Y-101982690D01*
X95266118Y-101791179D01*
X95266119Y-101791178D01*
X95268441Y-101786197D01*
X95325979Y-101571464D01*
X95345354Y-101350001D01*
X95325979Y-101128538D01*
X95268441Y-100913805D01*
X95266118Y-100908823D01*
X95176815Y-100717312D01*
X95176812Y-100717307D01*
X95174489Y-100712325D01*
X95046978Y-100530220D01*
X94889782Y-100373024D01*
X94885274Y-100369867D01*
X94885271Y-100369865D01*
X94809506Y-100316814D01*
X94707678Y-100245513D01*
X94702696Y-100243190D01*
X94702691Y-100243187D01*
X94597628Y-100194196D01*
X94544343Y-100147279D01*
X94524882Y-100079002D01*
X94545424Y-100011042D01*
X94597628Y-99965806D01*
X94702691Y-99916815D01*
X94702696Y-99916812D01*
X94707678Y-99914489D01*
X94809506Y-99843188D01*
X94885271Y-99790137D01*
X94885274Y-99790135D01*
X94889782Y-99786978D01*
X95046978Y-99629782D01*
X95174489Y-99447677D01*
X95176812Y-99442695D01*
X95176815Y-99442690D01*
X95266118Y-99251179D01*
X95266119Y-99251178D01*
X95268441Y-99246197D01*
X95325979Y-99031464D01*
X95345354Y-98810001D01*
X95325979Y-98588538D01*
X95268441Y-98373805D01*
X95266118Y-98368823D01*
X95176815Y-98177312D01*
X95176812Y-98177307D01*
X95174489Y-98172325D01*
X95046978Y-97990220D01*
X94889782Y-97833024D01*
X94885274Y-97829867D01*
X94885271Y-97829865D01*
X94809506Y-97776814D01*
X94707678Y-97705513D01*
X94702696Y-97703190D01*
X94702691Y-97703187D01*
X94597628Y-97654196D01*
X94544343Y-97607279D01*
X94524882Y-97539002D01*
X94545424Y-97471042D01*
X94597628Y-97425806D01*
X94702691Y-97376815D01*
X94702696Y-97376812D01*
X94707678Y-97374489D01*
X94809506Y-97303188D01*
X94885271Y-97250137D01*
X94885274Y-97250135D01*
X94889782Y-97246978D01*
X95046978Y-97089782D01*
X95174489Y-96907677D01*
X95176812Y-96902695D01*
X95176815Y-96902690D01*
X95266118Y-96711179D01*
X95266119Y-96711178D01*
X95268441Y-96706197D01*
X95325979Y-96491464D01*
X95345354Y-96270001D01*
X95325979Y-96048538D01*
X95268441Y-95833805D01*
X95266118Y-95828823D01*
X95176815Y-95637312D01*
X95176812Y-95637307D01*
X95174489Y-95632325D01*
X95046978Y-95450220D01*
X94889782Y-95293024D01*
X94885274Y-95289867D01*
X94885271Y-95289865D01*
X94809506Y-95236814D01*
X94707678Y-95165513D01*
X94702696Y-95163190D01*
X94702691Y-95163187D01*
X94597628Y-95114196D01*
X94544343Y-95067279D01*
X94524882Y-94999002D01*
X94545424Y-94931042D01*
X94597628Y-94885806D01*
X94702691Y-94836815D01*
X94702696Y-94836812D01*
X94707678Y-94834489D01*
X94809506Y-94763188D01*
X94885271Y-94710137D01*
X94885274Y-94710135D01*
X94889782Y-94706978D01*
X95046978Y-94549782D01*
X95174489Y-94367677D01*
X95176812Y-94362695D01*
X95176815Y-94362690D01*
X95266118Y-94171179D01*
X95266119Y-94171178D01*
X95268441Y-94166197D01*
X95325979Y-93951464D01*
X95345354Y-93730001D01*
X95325979Y-93508538D01*
X95268441Y-93293805D01*
X95266118Y-93288823D01*
X95176815Y-93097312D01*
X95176812Y-93097307D01*
X95174489Y-93092325D01*
X95046978Y-92910220D01*
X94889782Y-92753024D01*
X94885274Y-92749867D01*
X94885271Y-92749865D01*
X94809506Y-92696814D01*
X94707678Y-92625513D01*
X94702696Y-92623190D01*
X94702691Y-92623187D01*
X94597628Y-92574196D01*
X94544343Y-92527279D01*
X94524882Y-92459002D01*
X94545424Y-92391042D01*
X94597628Y-92345806D01*
X94702691Y-92296815D01*
X94702696Y-92296812D01*
X94707678Y-92294489D01*
X94809506Y-92223188D01*
X94885271Y-92170137D01*
X94885274Y-92170135D01*
X94889782Y-92166978D01*
X95046978Y-92009782D01*
X95174489Y-91827677D01*
X95176812Y-91822695D01*
X95176815Y-91822690D01*
X95266118Y-91631179D01*
X95266119Y-91631178D01*
X95268441Y-91626197D01*
X95325979Y-91411464D01*
X95345354Y-91190001D01*
X95325979Y-90968538D01*
X95268441Y-90753805D01*
X95266118Y-90748823D01*
X95176815Y-90557312D01*
X95176812Y-90557307D01*
X95174489Y-90552325D01*
X95046978Y-90370220D01*
X94889782Y-90213024D01*
X94885274Y-90209867D01*
X94885271Y-90209865D01*
X94809506Y-90156814D01*
X94707678Y-90085513D01*
X94702696Y-90083190D01*
X94702691Y-90083187D01*
X94597628Y-90034196D01*
X94544343Y-89987279D01*
X94524882Y-89919002D01*
X94545424Y-89851042D01*
X94597628Y-89805806D01*
X94702691Y-89756815D01*
X94702696Y-89756812D01*
X94707678Y-89754489D01*
X94809506Y-89683188D01*
X94885271Y-89630137D01*
X94885274Y-89630135D01*
X94889782Y-89626978D01*
X95046978Y-89469782D01*
X95174489Y-89287677D01*
X95176812Y-89282695D01*
X95176815Y-89282690D01*
X95266118Y-89091179D01*
X95266119Y-89091178D01*
X95268441Y-89086197D01*
X95325979Y-88871464D01*
X95345354Y-88650001D01*
X95325979Y-88428538D01*
X95268441Y-88213805D01*
X95266118Y-88208823D01*
X95176815Y-88017312D01*
X95176812Y-88017307D01*
X95174489Y-88012325D01*
X95046978Y-87830220D01*
X94889782Y-87673024D01*
X94885274Y-87669867D01*
X94885271Y-87669865D01*
X94809506Y-87616814D01*
X94707678Y-87545513D01*
X94702696Y-87543190D01*
X94702691Y-87543187D01*
X94597628Y-87494196D01*
X94544343Y-87447279D01*
X94524882Y-87379002D01*
X94545424Y-87311042D01*
X94597628Y-87265806D01*
X94702691Y-87216815D01*
X94702696Y-87216812D01*
X94707678Y-87214489D01*
X94809506Y-87143188D01*
X94885271Y-87090137D01*
X94885274Y-87090135D01*
X94889782Y-87086978D01*
X95046978Y-86929782D01*
X95174489Y-86747677D01*
X95176812Y-86742695D01*
X95176815Y-86742690D01*
X95266118Y-86551179D01*
X95266119Y-86551178D01*
X95268441Y-86546197D01*
X95325979Y-86331464D01*
X95345354Y-86110001D01*
X95325979Y-85888538D01*
X95268441Y-85673805D01*
X95266118Y-85668823D01*
X95176815Y-85477312D01*
X95176812Y-85477307D01*
X95174489Y-85472325D01*
X95046978Y-85290220D01*
X94889782Y-85133024D01*
X94885274Y-85129867D01*
X94885271Y-85129865D01*
X94809506Y-85076814D01*
X94707678Y-85005513D01*
X94702696Y-85003190D01*
X94702691Y-85003187D01*
X94597628Y-84954196D01*
X94544343Y-84907279D01*
X94524882Y-84839002D01*
X94545424Y-84771042D01*
X94597628Y-84725806D01*
X94702691Y-84676815D01*
X94702696Y-84676812D01*
X94707678Y-84674489D01*
X94809506Y-84603188D01*
X94885271Y-84550137D01*
X94885274Y-84550135D01*
X94889782Y-84546978D01*
X95046978Y-84389782D01*
X95174489Y-84207677D01*
X95176812Y-84202695D01*
X95176815Y-84202690D01*
X95266118Y-84011179D01*
X95266119Y-84011178D01*
X95268441Y-84006197D01*
X95325979Y-83791464D01*
X95345354Y-83570001D01*
X95325979Y-83348538D01*
X95268441Y-83133805D01*
X95266118Y-83128823D01*
X95176815Y-82937312D01*
X95176812Y-82937307D01*
X95174489Y-82932325D01*
X95046978Y-82750220D01*
X94889782Y-82593024D01*
X94885274Y-82589867D01*
X94885271Y-82589865D01*
X94799366Y-82529714D01*
X94755038Y-82474257D01*
X94747729Y-82403638D01*
X94779760Y-82340277D01*
X94840961Y-82304292D01*
X94871637Y-82300501D01*
X94880135Y-82300501D01*
X94942317Y-82293746D01*
X95078706Y-82242616D01*
X95195262Y-82155262D01*
X95282616Y-82038706D01*
X95333746Y-81902317D01*
X95340501Y-81840135D01*
X95340501Y-80219867D01*
X95333746Y-80157685D01*
X95282616Y-80021296D01*
X95195262Y-79904740D01*
X95078706Y-79817386D01*
X94942317Y-79766256D01*
X94880135Y-79759501D01*
X93259867Y-79759501D01*
X93197685Y-79766256D01*
X93061296Y-79817386D01*
X92944740Y-79904740D01*
X92857386Y-80021296D01*
X92806256Y-80157685D01*
X92799501Y-80219867D01*
X92799501Y-81840135D01*
X92806256Y-81902317D01*
X92857386Y-82038706D01*
X92944740Y-82155262D01*
X93061296Y-82242616D01*
X93197685Y-82293746D01*
X93259867Y-82300501D01*
X93268365Y-82300501D01*
X93336486Y-82320503D01*
X93382979Y-82374159D01*
X93393083Y-82444433D01*
X93363589Y-82509013D01*
X93340636Y-82529714D01*
X93254731Y-82589865D01*
X93254728Y-82589867D01*
X93250220Y-82593024D01*
X93093024Y-82750220D01*
X92965513Y-82932325D01*
X92963190Y-82937307D01*
X92963187Y-82937312D01*
X92873884Y-83128823D01*
X92871561Y-83133805D01*
X92814023Y-83348538D01*
X92794648Y-83570001D01*
X92814023Y-83791464D01*
X92871561Y-84006197D01*
X92873883Y-84011178D01*
X92873884Y-84011179D01*
X92963187Y-84202690D01*
X92963190Y-84202695D01*
X92965513Y-84207677D01*
X93093024Y-84389782D01*
X93250220Y-84546978D01*
X93254728Y-84550135D01*
X93254731Y-84550137D01*
X93330496Y-84603188D01*
X93432324Y-84674489D01*
X93437306Y-84676812D01*
X93437311Y-84676815D01*
X93542374Y-84725806D01*
X93595659Y-84772723D01*
X93615120Y-84841000D01*
X93594578Y-84908960D01*
X93542374Y-84954196D01*
X93437312Y-85003187D01*
X93437307Y-85003190D01*
X93432325Y-85005513D01*
X93427818Y-85008669D01*
X93427816Y-85008670D01*
X93254731Y-85129865D01*
X93254728Y-85129867D01*
X93250220Y-85133024D01*
X93093024Y-85290220D01*
X92965513Y-85472325D01*
X92963190Y-85477307D01*
X92963187Y-85477312D01*
X92873884Y-85668823D01*
X92871561Y-85673805D01*
X92814023Y-85888538D01*
X92794648Y-86110001D01*
X92814023Y-86331464D01*
X92871561Y-86546197D01*
X92873883Y-86551178D01*
X92873884Y-86551179D01*
X92963187Y-86742690D01*
X92963190Y-86742695D01*
X92965513Y-86747677D01*
X93093024Y-86929782D01*
X93250220Y-87086978D01*
X93254728Y-87090135D01*
X93254731Y-87090137D01*
X93330496Y-87143188D01*
X93432324Y-87214489D01*
X93437306Y-87216812D01*
X93437311Y-87216815D01*
X93542374Y-87265806D01*
X93595659Y-87312723D01*
X93615120Y-87381000D01*
X93594578Y-87448960D01*
X93542374Y-87494196D01*
X93437312Y-87543187D01*
X93437307Y-87543190D01*
X93432325Y-87545513D01*
X93427818Y-87548669D01*
X93427816Y-87548670D01*
X93254731Y-87669865D01*
X93254728Y-87669867D01*
X93250220Y-87673024D01*
X93093024Y-87830220D01*
X92965513Y-88012325D01*
X92963190Y-88017307D01*
X92963187Y-88017312D01*
X92873884Y-88208823D01*
X92871561Y-88213805D01*
X92814023Y-88428538D01*
X92794648Y-88650001D01*
X92814023Y-88871464D01*
X92871561Y-89086197D01*
X92873883Y-89091178D01*
X92873884Y-89091179D01*
X92963187Y-89282690D01*
X92963190Y-89282695D01*
X92965513Y-89287677D01*
X93093024Y-89469782D01*
X93250220Y-89626978D01*
X93254728Y-89630135D01*
X93254731Y-89630137D01*
X93330496Y-89683188D01*
X93432324Y-89754489D01*
X93437306Y-89756812D01*
X93437311Y-89756815D01*
X93542374Y-89805806D01*
X93595659Y-89852723D01*
X93615120Y-89921000D01*
X93594578Y-89988960D01*
X93542374Y-90034196D01*
X93437312Y-90083187D01*
X93437307Y-90083190D01*
X93432325Y-90085513D01*
X93427818Y-90088669D01*
X93427816Y-90088670D01*
X93254731Y-90209865D01*
X93254728Y-90209867D01*
X93250220Y-90213024D01*
X93093024Y-90370220D01*
X92965513Y-90552325D01*
X92963190Y-90557307D01*
X92963187Y-90557312D01*
X92873884Y-90748823D01*
X92871561Y-90753805D01*
X92814023Y-90968538D01*
X92794648Y-91190001D01*
X92814023Y-91411464D01*
X92871561Y-91626197D01*
X92873883Y-91631178D01*
X92873884Y-91631179D01*
X92963187Y-91822690D01*
X92963190Y-91822695D01*
X92965513Y-91827677D01*
X93093024Y-92009782D01*
X93250220Y-92166978D01*
X93254728Y-92170135D01*
X93254731Y-92170137D01*
X93330496Y-92223188D01*
X93432324Y-92294489D01*
X93437306Y-92296812D01*
X93437311Y-92296815D01*
X93542374Y-92345806D01*
X93595659Y-92392723D01*
X93615120Y-92461000D01*
X93594578Y-92528960D01*
X93542374Y-92574196D01*
X93437312Y-92623187D01*
X93437307Y-92623190D01*
X93432325Y-92625513D01*
X93427818Y-92628669D01*
X93427816Y-92628670D01*
X93254731Y-92749865D01*
X93254728Y-92749867D01*
X93250220Y-92753024D01*
X93093024Y-92910220D01*
X92965513Y-93092325D01*
X92963190Y-93097307D01*
X92963187Y-93097312D01*
X92873884Y-93288823D01*
X92871561Y-93293805D01*
X92814023Y-93508538D01*
X92794648Y-93730001D01*
X92814023Y-93951464D01*
X92871561Y-94166197D01*
X92873883Y-94171178D01*
X92873884Y-94171179D01*
X92963187Y-94362690D01*
X92963190Y-94362695D01*
X92965513Y-94367677D01*
X93093024Y-94549782D01*
X93250220Y-94706978D01*
X93254728Y-94710135D01*
X93254731Y-94710137D01*
X93330496Y-94763188D01*
X93432324Y-94834489D01*
X93437306Y-94836812D01*
X93437311Y-94836815D01*
X93542374Y-94885806D01*
X93595659Y-94932723D01*
X93615120Y-95001000D01*
X93594578Y-95068960D01*
X93542374Y-95114196D01*
X93437312Y-95163187D01*
X93437307Y-95163190D01*
X93432325Y-95165513D01*
X93427818Y-95168669D01*
X93427816Y-95168670D01*
X93254731Y-95289865D01*
X93254728Y-95289867D01*
X93250220Y-95293024D01*
X93093024Y-95450220D01*
X92965513Y-95632325D01*
X92963190Y-95637307D01*
X92963187Y-95637312D01*
X92873884Y-95828823D01*
X92871561Y-95833805D01*
X92814023Y-96048538D01*
X92794648Y-96270001D01*
X92814023Y-96491464D01*
X92871561Y-96706197D01*
X92873883Y-96711178D01*
X92873884Y-96711179D01*
X92963187Y-96902690D01*
X92963190Y-96902695D01*
X92965513Y-96907677D01*
X93093024Y-97089782D01*
X93250220Y-97246978D01*
X93254728Y-97250135D01*
X93254731Y-97250137D01*
X93330496Y-97303188D01*
X93432324Y-97374489D01*
X93437306Y-97376812D01*
X93437311Y-97376815D01*
X93542374Y-97425806D01*
X93595659Y-97472723D01*
X93615120Y-97541000D01*
X93594578Y-97608960D01*
X93542374Y-97654196D01*
X93437312Y-97703187D01*
X93437307Y-97703190D01*
X93432325Y-97705513D01*
X93427818Y-97708669D01*
X93427816Y-97708670D01*
X93254731Y-97829865D01*
X93254728Y-97829867D01*
X93250220Y-97833024D01*
X93093024Y-97990220D01*
X92965513Y-98172325D01*
X92963190Y-98177307D01*
X92963187Y-98177312D01*
X92873884Y-98368823D01*
X92871561Y-98373805D01*
X92814023Y-98588538D01*
X92794648Y-98810001D01*
X92814023Y-99031464D01*
X92871561Y-99246197D01*
X92873883Y-99251178D01*
X92873884Y-99251179D01*
X92963187Y-99442690D01*
X92963190Y-99442695D01*
X92965513Y-99447677D01*
X93093024Y-99629782D01*
X93250220Y-99786978D01*
X93254728Y-99790135D01*
X93254731Y-99790137D01*
X93330496Y-99843188D01*
X93432324Y-99914489D01*
X93437306Y-99916812D01*
X93437311Y-99916815D01*
X93542374Y-99965806D01*
X93595659Y-100012723D01*
X93615120Y-100081000D01*
X93594578Y-100148960D01*
X93542374Y-100194196D01*
X93437312Y-100243187D01*
X93437307Y-100243190D01*
X93432325Y-100245513D01*
X93427818Y-100248669D01*
X93427816Y-100248670D01*
X93254731Y-100369865D01*
X93254728Y-100369867D01*
X93250220Y-100373024D01*
X93093024Y-100530220D01*
X92965513Y-100712325D01*
X92963190Y-100717307D01*
X92963187Y-100717312D01*
X92873884Y-100908823D01*
X92871561Y-100913805D01*
X92814023Y-101128538D01*
X92794648Y-101350001D01*
X92814023Y-101571464D01*
X92871561Y-101786197D01*
X92873883Y-101791178D01*
X92873884Y-101791179D01*
X92963187Y-101982690D01*
X92963190Y-101982695D01*
X92965513Y-101987677D01*
X93093024Y-102169782D01*
X93250220Y-102326978D01*
X93254728Y-102330135D01*
X93254731Y-102330137D01*
X93330496Y-102383188D01*
X93432324Y-102454489D01*
X93437306Y-102456812D01*
X93437311Y-102456815D01*
X93542374Y-102505806D01*
X93595659Y-102552723D01*
X93615120Y-102621000D01*
X93594578Y-102688960D01*
X93542374Y-102734196D01*
X93437312Y-102783187D01*
X93437307Y-102783190D01*
X93432325Y-102785513D01*
X93427818Y-102788669D01*
X93427816Y-102788670D01*
X93254731Y-102909865D01*
X93254728Y-102909867D01*
X93250220Y-102913024D01*
X93093024Y-103070220D01*
X92965513Y-103252325D01*
X92963190Y-103257307D01*
X92963187Y-103257312D01*
X92873884Y-103448823D01*
X92871561Y-103453805D01*
X92814023Y-103668538D01*
X92794648Y-103890001D01*
X92814023Y-104111464D01*
X92871561Y-104326197D01*
X92873883Y-104331178D01*
X92873884Y-104331179D01*
X92963187Y-104522690D01*
X92963190Y-104522695D01*
X92965513Y-104527677D01*
X93093024Y-104709782D01*
X93250220Y-104866978D01*
X93254728Y-104870135D01*
X93254731Y-104870137D01*
X93330496Y-104923188D01*
X93432324Y-104994489D01*
X93437306Y-104996812D01*
X93437311Y-104996815D01*
X93542374Y-105045806D01*
X93595659Y-105092723D01*
X93615120Y-105161000D01*
X93594578Y-105228960D01*
X93542374Y-105274196D01*
X93437312Y-105323187D01*
X93437307Y-105323190D01*
X93432325Y-105325513D01*
X93427818Y-105328669D01*
X93427816Y-105328670D01*
X93254731Y-105449865D01*
X93254728Y-105449867D01*
X93250220Y-105453024D01*
X93093024Y-105610220D01*
X93089867Y-105614728D01*
X93089865Y-105614731D01*
X92968670Y-105787816D01*
X92965513Y-105792325D01*
X92963190Y-105797307D01*
X92963187Y-105797312D01*
X92873884Y-105988823D01*
X92871561Y-105993805D01*
X92814023Y-106208538D01*
X92794648Y-106430001D01*
X92814023Y-106651464D01*
X92871561Y-106866197D01*
X92873883Y-106871178D01*
X92873884Y-106871179D01*
X92963187Y-107062690D01*
X92963190Y-107062695D01*
X92965513Y-107067677D01*
X92968669Y-107072184D01*
X92968670Y-107072186D01*
X92998264Y-107114450D01*
X93093024Y-107249782D01*
X93250220Y-107406978D01*
X93254728Y-107410135D01*
X93254731Y-107410137D01*
X93290749Y-107435357D01*
X93432324Y-107534489D01*
X93437306Y-107536812D01*
X93437311Y-107536815D01*
X93542374Y-107585806D01*
X93595659Y-107632723D01*
X93615120Y-107701000D01*
X93594578Y-107768960D01*
X93542374Y-107814196D01*
X93437312Y-107863187D01*
X93437307Y-107863190D01*
X93432325Y-107865513D01*
X93427818Y-107868669D01*
X93427816Y-107868670D01*
X93254731Y-107989865D01*
X93254728Y-107989867D01*
X93250220Y-107993024D01*
X93093024Y-108150220D01*
X93089867Y-108154728D01*
X93089865Y-108154731D01*
X92968670Y-108327816D01*
X92965513Y-108332325D01*
X92963190Y-108337307D01*
X92963187Y-108337312D01*
X92907631Y-108456453D01*
X92871561Y-108533805D01*
X92814023Y-108748538D01*
X92794648Y-108970001D01*
X92814023Y-109191464D01*
X92871561Y-109406197D01*
X92873883Y-109411178D01*
X92873884Y-109411179D01*
X92963187Y-109602690D01*
X92963190Y-109602695D01*
X92965513Y-109607677D01*
X92968669Y-109612184D01*
X92968670Y-109612186D01*
X93004199Y-109662926D01*
X93093024Y-109789782D01*
X93250220Y-109946978D01*
X93254728Y-109950135D01*
X93254731Y-109950137D01*
X93330496Y-110003188D01*
X93432324Y-110074489D01*
X93437306Y-110076812D01*
X93437311Y-110076815D01*
X93542374Y-110125806D01*
X93595659Y-110172723D01*
X93615120Y-110241000D01*
X93594578Y-110308960D01*
X93542374Y-110354196D01*
X93437312Y-110403187D01*
X93437307Y-110403190D01*
X93432325Y-110405513D01*
X93427818Y-110408669D01*
X93427816Y-110408670D01*
X93254731Y-110529865D01*
X93254728Y-110529867D01*
X93250220Y-110533024D01*
X93093024Y-110690220D01*
X93089867Y-110694728D01*
X93089865Y-110694731D01*
X92968670Y-110867816D01*
X92965513Y-110872325D01*
X92963190Y-110877307D01*
X92963187Y-110877312D01*
X92907631Y-110996453D01*
X92871561Y-111073805D01*
X92814023Y-111288538D01*
X92794648Y-111510001D01*
X84328000Y-111510001D01*
X84328000Y-83854052D01*
X84348002Y-83785931D01*
X84363456Y-83766429D01*
X84762565Y-83354017D01*
X90879555Y-77033127D01*
X130707500Y-77033127D01*
X130722457Y-77204087D01*
X130781716Y-77425243D01*
X130784039Y-77430224D01*
X130784039Y-77430225D01*
X130876151Y-77627762D01*
X130876154Y-77627767D01*
X130878477Y-77632749D01*
X131009802Y-77820300D01*
X131171700Y-77982198D01*
X131176208Y-77985355D01*
X131176211Y-77985357D01*
X131254389Y-78040098D01*
X131359251Y-78113523D01*
X131364233Y-78115846D01*
X131364238Y-78115849D01*
X131560765Y-78207490D01*
X131566757Y-78210284D01*
X131572065Y-78211706D01*
X131572067Y-78211707D01*
X131782598Y-78268119D01*
X131782600Y-78268119D01*
X131787913Y-78269543D01*
X132016000Y-78289498D01*
X132244087Y-78269543D01*
X132249400Y-78268119D01*
X132249402Y-78268119D01*
X132459933Y-78211707D01*
X132459935Y-78211706D01*
X132465243Y-78210284D01*
X132471235Y-78207490D01*
X132667762Y-78115849D01*
X132667767Y-78115846D01*
X132672749Y-78113523D01*
X132777611Y-78040098D01*
X132855789Y-77985357D01*
X132855792Y-77985355D01*
X132860300Y-77982198D01*
X133022198Y-77820300D01*
X133153523Y-77632749D01*
X133155846Y-77627767D01*
X133155849Y-77627762D01*
X133172081Y-77592951D01*
X133218998Y-77539666D01*
X133287275Y-77520205D01*
X133355235Y-77540747D01*
X133400471Y-77592951D01*
X133416586Y-77627511D01*
X133422069Y-77637007D01*
X133547028Y-77815467D01*
X133554084Y-77823875D01*
X133708125Y-77977916D01*
X133716533Y-77984972D01*
X133894993Y-78109931D01*
X133904489Y-78115414D01*
X134101947Y-78207490D01*
X134112239Y-78211236D01*
X134284503Y-78257394D01*
X134298599Y-78257058D01*
X134302000Y-78249116D01*
X134302000Y-78243967D01*
X134810000Y-78243967D01*
X134813973Y-78257498D01*
X134822522Y-78258727D01*
X134999761Y-78211236D01*
X135010053Y-78207490D01*
X135207511Y-78115414D01*
X135217007Y-78109931D01*
X135395467Y-77984972D01*
X135403875Y-77977916D01*
X135557916Y-77823875D01*
X135564972Y-77815467D01*
X135689931Y-77637007D01*
X135695414Y-77627511D01*
X135711529Y-77592951D01*
X135758446Y-77539666D01*
X135826723Y-77520205D01*
X135894683Y-77540747D01*
X135939919Y-77592951D01*
X135956151Y-77627762D01*
X135956154Y-77627767D01*
X135958477Y-77632749D01*
X136089802Y-77820300D01*
X136251700Y-77982198D01*
X136256208Y-77985355D01*
X136256211Y-77985357D01*
X136334389Y-78040098D01*
X136439251Y-78113523D01*
X136444233Y-78115846D01*
X136444238Y-78115849D01*
X136640765Y-78207490D01*
X136646757Y-78210284D01*
X136652065Y-78211706D01*
X136652067Y-78211707D01*
X136862598Y-78268119D01*
X136862600Y-78268119D01*
X136867913Y-78269543D01*
X137096000Y-78289498D01*
X137324087Y-78269543D01*
X137329400Y-78268119D01*
X137329402Y-78268119D01*
X137539933Y-78211707D01*
X137539935Y-78211706D01*
X137545243Y-78210284D01*
X137551235Y-78207490D01*
X137747762Y-78115849D01*
X137747767Y-78115846D01*
X137752749Y-78113523D01*
X137857611Y-78040098D01*
X137935789Y-77985357D01*
X137935792Y-77985355D01*
X137940300Y-77982198D01*
X138102198Y-77820300D01*
X138233523Y-77632749D01*
X138235846Y-77627767D01*
X138235849Y-77627762D01*
X138251805Y-77593543D01*
X138298722Y-77540258D01*
X138366999Y-77520797D01*
X138434959Y-77541339D01*
X138480195Y-77593543D01*
X138496151Y-77627762D01*
X138496154Y-77627767D01*
X138498477Y-77632749D01*
X138629802Y-77820300D01*
X138791700Y-77982198D01*
X138796208Y-77985355D01*
X138796211Y-77985357D01*
X138874389Y-78040098D01*
X138979251Y-78113523D01*
X138984233Y-78115846D01*
X138984238Y-78115849D01*
X139180765Y-78207490D01*
X139186757Y-78210284D01*
X139192065Y-78211706D01*
X139192067Y-78211707D01*
X139402598Y-78268119D01*
X139402600Y-78268119D01*
X139407913Y-78269543D01*
X139636000Y-78289498D01*
X139864087Y-78269543D01*
X139869400Y-78268119D01*
X139869402Y-78268119D01*
X140079933Y-78211707D01*
X140079935Y-78211706D01*
X140085243Y-78210284D01*
X140091235Y-78207490D01*
X140287762Y-78115849D01*
X140287767Y-78115846D01*
X140292749Y-78113523D01*
X140397611Y-78040098D01*
X140475789Y-77985357D01*
X140475792Y-77985355D01*
X140480300Y-77982198D01*
X140642198Y-77820300D01*
X140773523Y-77632749D01*
X140775846Y-77627767D01*
X140775849Y-77627762D01*
X140867961Y-77430225D01*
X140867961Y-77430224D01*
X140870284Y-77425243D01*
X140929543Y-77204087D01*
X140944500Y-77033127D01*
X140944500Y-76518873D01*
X140929543Y-76347913D01*
X140870284Y-76126757D01*
X140775966Y-75924489D01*
X140775849Y-75924238D01*
X140775846Y-75924233D01*
X140773523Y-75919251D01*
X140642198Y-75731700D01*
X140480300Y-75569802D01*
X140475792Y-75566645D01*
X140475789Y-75566643D01*
X140397611Y-75511902D01*
X140292749Y-75438477D01*
X140287767Y-75436154D01*
X140287762Y-75436151D01*
X140090225Y-75344039D01*
X140090224Y-75344039D01*
X140085243Y-75341716D01*
X140079935Y-75340294D01*
X140079933Y-75340293D01*
X139869402Y-75283881D01*
X139869400Y-75283881D01*
X139864087Y-75282457D01*
X139636000Y-75262502D01*
X139407913Y-75282457D01*
X139402600Y-75283881D01*
X139402598Y-75283881D01*
X139192067Y-75340293D01*
X139192065Y-75340294D01*
X139186757Y-75341716D01*
X139181776Y-75344039D01*
X139181775Y-75344039D01*
X138984238Y-75436151D01*
X138984233Y-75436154D01*
X138979251Y-75438477D01*
X138874389Y-75511902D01*
X138796211Y-75566643D01*
X138796208Y-75566645D01*
X138791700Y-75569802D01*
X138629802Y-75731700D01*
X138498477Y-75919251D01*
X138496154Y-75924233D01*
X138496151Y-75924238D01*
X138480195Y-75958457D01*
X138433278Y-76011742D01*
X138365001Y-76031203D01*
X138297041Y-76010661D01*
X138251805Y-75958457D01*
X138235849Y-75924238D01*
X138235846Y-75924233D01*
X138233523Y-75919251D01*
X138102198Y-75731700D01*
X137940300Y-75569802D01*
X137935792Y-75566645D01*
X137935789Y-75566643D01*
X137857611Y-75511902D01*
X137752749Y-75438477D01*
X137747767Y-75436154D01*
X137747762Y-75436151D01*
X137550225Y-75344039D01*
X137550224Y-75344039D01*
X137545243Y-75341716D01*
X137539935Y-75340294D01*
X137539933Y-75340293D01*
X137329402Y-75283881D01*
X137329400Y-75283881D01*
X137324087Y-75282457D01*
X137096000Y-75262502D01*
X136867913Y-75282457D01*
X136862600Y-75283881D01*
X136862598Y-75283881D01*
X136652067Y-75340293D01*
X136652065Y-75340294D01*
X136646757Y-75341716D01*
X136641776Y-75344039D01*
X136641775Y-75344039D01*
X136444238Y-75436151D01*
X136444233Y-75436154D01*
X136439251Y-75438477D01*
X136334389Y-75511902D01*
X136256211Y-75566643D01*
X136256208Y-75566645D01*
X136251700Y-75569802D01*
X136089802Y-75731700D01*
X135958477Y-75919251D01*
X135956154Y-75924233D01*
X135956151Y-75924238D01*
X135939919Y-75959049D01*
X135893002Y-76012334D01*
X135824725Y-76031795D01*
X135756765Y-76011253D01*
X135711529Y-75959049D01*
X135695414Y-75924489D01*
X135689931Y-75914993D01*
X135564972Y-75736533D01*
X135557916Y-75728125D01*
X135403875Y-75574084D01*
X135395467Y-75567028D01*
X135217007Y-75442069D01*
X135207511Y-75436586D01*
X135010053Y-75344510D01*
X134999761Y-75340764D01*
X134827497Y-75294606D01*
X134813401Y-75294942D01*
X134810000Y-75302884D01*
X134810000Y-78243967D01*
X134302000Y-78243967D01*
X134302000Y-75308033D01*
X134298027Y-75294502D01*
X134289478Y-75293273D01*
X134112239Y-75340764D01*
X134101947Y-75344510D01*
X133904489Y-75436586D01*
X133894993Y-75442069D01*
X133716533Y-75567028D01*
X133708125Y-75574084D01*
X133554084Y-75728125D01*
X133547028Y-75736533D01*
X133422069Y-75914993D01*
X133416586Y-75924489D01*
X133400471Y-75959049D01*
X133353554Y-76012334D01*
X133285277Y-76031795D01*
X133217317Y-76011253D01*
X133172081Y-75959049D01*
X133155849Y-75924238D01*
X133155846Y-75924233D01*
X133153523Y-75919251D01*
X133022198Y-75731700D01*
X132860300Y-75569802D01*
X132855792Y-75566645D01*
X132855789Y-75566643D01*
X132777611Y-75511902D01*
X132672749Y-75438477D01*
X132667767Y-75436154D01*
X132667762Y-75436151D01*
X132470225Y-75344039D01*
X132470224Y-75344039D01*
X132465243Y-75341716D01*
X132459935Y-75340294D01*
X132459933Y-75340293D01*
X132249402Y-75283881D01*
X132249400Y-75283881D01*
X132244087Y-75282457D01*
X132016000Y-75262502D01*
X131787913Y-75282457D01*
X131782600Y-75283881D01*
X131782598Y-75283881D01*
X131572067Y-75340293D01*
X131572065Y-75340294D01*
X131566757Y-75341716D01*
X131561776Y-75344039D01*
X131561775Y-75344039D01*
X131364238Y-75436151D01*
X131364233Y-75436154D01*
X131359251Y-75438477D01*
X131254389Y-75511902D01*
X131176211Y-75566643D01*
X131176208Y-75566645D01*
X131171700Y-75569802D01*
X131009802Y-75731700D01*
X130878477Y-75919251D01*
X130876154Y-75924233D01*
X130876151Y-75924238D01*
X130876034Y-75924489D01*
X130781716Y-76126757D01*
X130722457Y-76347913D01*
X130707500Y-76518873D01*
X130707500Y-77033127D01*
X90879555Y-77033127D01*
X98531248Y-69126377D01*
X98592994Y-69091335D01*
X98621792Y-69088000D01*
X144745948Y-69088000D01*
X144814069Y-69108002D01*
G37*
%TD.AperFunction*%
%TD*%
M02*
