M48
; DRILL file {KiCad (6.0.0-0)} date Saturday, 15 January 2022 at 15:50:37
; FORMAT={-:-/ absolute / inch / decimal}
; #@! TF.CreationDate,2022-01-15T15:50:37+00:00
; #@! TF.GenerationSoftware,Kicad,Pcbnew,(6.0.0-0)
; #@! TF.FileFunction,Plated,1,2,PTH
FMAT,2
INCH
; #@! TA.AperFunction,Plated,PTH,ComponentDrill
T1C0.0300
; #@! TA.AperFunction,Plated,PTH,ComponentDrill
T2C0.0315
; #@! TA.AperFunction,Plated,PTH,ComponentDrill
T3C0.0354
; #@! TA.AperFunction,Plated,PTH,ComponentDrill
T4C0.0394
%
G90
G05
T1
X3.7035Y-3.1902
X3.7035Y-3.2902
X3.7035Y-3.3902
X3.7035Y-3.4902
X3.7035Y-3.5902
X3.7035Y-3.6902
X3.7035Y-3.7902
X3.7035Y-3.8902
X3.7035Y-3.9902
X3.7035Y-4.0902
X3.7035Y-4.1902
X3.7035Y-4.2902
X3.7035Y-4.3902
X3.7035Y-4.4902
X3.7035Y-4.5902
X4.7035Y-3.1902
X4.7035Y-3.2902
X4.7035Y-3.3902
X4.7035Y-3.4902
X4.7035Y-3.5902
X4.7035Y-3.6902
X4.7035Y-3.7902
X4.7035Y-3.8902
X4.7035Y-3.9902
X4.7035Y-4.0902
X4.7035Y-4.1902
X4.7035Y-4.2902
X4.7035Y-4.3902
X4.7035Y-4.4902
X4.7035Y-4.5902
T2
X4.88Y-4.19
X4.88Y-4.59
X5.01Y-4.19
X5.01Y-4.59
X5.14Y-4.19
X5.14Y-4.59
X5.27Y-4.19
X5.27Y-4.59
T3
X4.83Y-4.82
X4.93Y-4.82
X5.03Y-4.82
X5.13Y-4.82
X5.23Y-4.82
X5.33Y-4.82
T4
X5.1975Y-3.0227
X5.2975Y-3.0227
X5.3975Y-3.0227
X5.42Y-4.15
X5.42Y-4.25
X5.42Y-4.35
X5.42Y-4.45
X5.42Y-4.55
X5.42Y-4.65
X5.4975Y-3.0227
X5.53Y-4.88
X5.63Y-4.88
X5.73Y-4.88
X5.82Y-4.15
X5.82Y-4.25
X5.82Y-4.35
X5.82Y-4.45
X5.82Y-4.55
X5.82Y-4.65
X5.83Y-4.88
T0
M30
