%TF.GenerationSoftware,KiCad,Pcbnew,(6.0.0-0)*%
%TF.CreationDate,2022-01-15T15:50:31+00:00*%
%TF.ProjectId,uTracer_board,75547261-6365-4725-9f62-6f6172642e6b,rev?*%
%TF.SameCoordinates,Original*%
%TF.FileFunction,Legend,Top*%
%TF.FilePolarity,Positive*%
%FSLAX46Y46*%
G04 Gerber Fmt 4.6, Leading zero omitted, Abs format (unit mm)*
G04 Created by KiCad (PCBNEW (6.0.0-0)) date 2022-01-15 15:50:31*
%MOMM*%
%LPD*%
G01*
G04 APERTURE LIST*
%ADD10C,0.150000*%
%ADD11C,0.300000*%
%ADD12C,0.120000*%
%ADD13C,1.000000*%
%ADD14C,0.800000*%
G04 APERTURE END LIST*
D10*
X144780095Y-126246000D02*
X144684857Y-126198380D01*
X144542000Y-126198380D01*
X144399142Y-126246000D01*
X144303904Y-126341238D01*
X144256285Y-126436476D01*
X144208666Y-126626952D01*
X144208666Y-126769809D01*
X144256285Y-126960285D01*
X144303904Y-127055523D01*
X144399142Y-127150761D01*
X144542000Y-127198380D01*
X144637238Y-127198380D01*
X144780095Y-127150761D01*
X144827714Y-127103142D01*
X144827714Y-126769809D01*
X144637238Y-126769809D01*
X145256285Y-127198380D02*
X145256285Y-126198380D01*
X145827714Y-127198380D01*
X145827714Y-126198380D01*
X146303904Y-127198380D02*
X146303904Y-126198380D01*
X146542000Y-126198380D01*
X146684857Y-126246000D01*
X146780095Y-126341238D01*
X146827714Y-126436476D01*
X146875333Y-126626952D01*
X146875333Y-126769809D01*
X146827714Y-126960285D01*
X146780095Y-127055523D01*
X146684857Y-127150761D01*
X146542000Y-127198380D01*
X146303904Y-127198380D01*
X139771523Y-126198380D02*
X140342952Y-126198380D01*
X140057238Y-127198380D02*
X140057238Y-126198380D01*
X140581047Y-127198380D02*
X141104857Y-126531714D01*
X140581047Y-126531714D02*
X141104857Y-127198380D01*
X142906761Y-127198380D02*
X142573428Y-126722190D01*
X142335333Y-127198380D02*
X142335333Y-126198380D01*
X142716285Y-126198380D01*
X142811523Y-126246000D01*
X142859142Y-126293619D01*
X142906761Y-126388857D01*
X142906761Y-126531714D01*
X142859142Y-126626952D01*
X142811523Y-126674571D01*
X142716285Y-126722190D01*
X142335333Y-126722190D01*
X143240095Y-127198380D02*
X143763904Y-126531714D01*
X143240095Y-126531714D02*
X143763904Y-127198380D01*
X124110761Y-126436380D02*
X123777428Y-125960190D01*
X123539333Y-126436380D02*
X123539333Y-125436380D01*
X123920285Y-125436380D01*
X124015523Y-125484000D01*
X124063142Y-125531619D01*
X124110761Y-125626857D01*
X124110761Y-125769714D01*
X124063142Y-125864952D01*
X124015523Y-125912571D01*
X123920285Y-125960190D01*
X123539333Y-125960190D01*
X124444095Y-126436380D02*
X124967904Y-125769714D01*
X124444095Y-125769714D02*
X124967904Y-126436380D01*
X128595523Y-125436380D02*
X129166952Y-125436380D01*
X128881238Y-126436380D02*
X128881238Y-125436380D01*
X129405047Y-126436380D02*
X129928857Y-125769714D01*
X129405047Y-125769714D02*
X129928857Y-126436380D01*
X133278666Y-125912571D02*
X133612000Y-125912571D01*
X133754857Y-126436380D02*
X133278666Y-126436380D01*
X133278666Y-125436380D01*
X133754857Y-125436380D01*
X134183428Y-126436380D02*
X134183428Y-125769714D01*
X134183428Y-125960190D02*
X134231047Y-125864952D01*
X134278666Y-125817333D01*
X134373904Y-125769714D01*
X134469142Y-125769714D01*
X134802476Y-126436380D02*
X134802476Y-125769714D01*
X134802476Y-125960190D02*
X134850095Y-125864952D01*
X134897714Y-125817333D01*
X134992952Y-125769714D01*
X135088190Y-125769714D01*
X139843428Y-128706571D02*
X139510095Y-128706571D01*
X139510095Y-129230380D02*
X139510095Y-128230380D01*
X139986285Y-128230380D01*
X140367238Y-129230380D02*
X140367238Y-128563714D01*
X140367238Y-128754190D02*
X140414857Y-128658952D01*
X140462476Y-128611333D01*
X140557714Y-128563714D01*
X140652952Y-128563714D01*
X141129142Y-129230380D02*
X141033904Y-129182761D01*
X140986285Y-129135142D01*
X140938666Y-129039904D01*
X140938666Y-128754190D01*
X140986285Y-128658952D01*
X141033904Y-128611333D01*
X141129142Y-128563714D01*
X141272000Y-128563714D01*
X141367238Y-128611333D01*
X141414857Y-128658952D01*
X141462476Y-128754190D01*
X141462476Y-129039904D01*
X141414857Y-129135142D01*
X141367238Y-129182761D01*
X141272000Y-129230380D01*
X141129142Y-129230380D01*
X141891047Y-129230380D02*
X141891047Y-128563714D01*
X141891047Y-128658952D02*
X141938666Y-128611333D01*
X142033904Y-128563714D01*
X142176761Y-128563714D01*
X142272000Y-128611333D01*
X142319619Y-128706571D01*
X142319619Y-129230380D01*
X142319619Y-128706571D02*
X142367238Y-128611333D01*
X142462476Y-128563714D01*
X142605333Y-128563714D01*
X142700571Y-128611333D01*
X142748190Y-128706571D01*
X142748190Y-129230380D01*
X144414857Y-128563714D02*
X144414857Y-129230380D01*
X143986285Y-128563714D02*
X143986285Y-129087523D01*
X144033904Y-129182761D01*
X144129142Y-129230380D01*
X144272000Y-129230380D01*
X144367238Y-129182761D01*
X144414857Y-129135142D01*
X144748190Y-128230380D02*
X145319619Y-128230380D01*
X145033904Y-129230380D02*
X145033904Y-128230380D01*
X145652952Y-129230380D02*
X145652952Y-128563714D01*
X145652952Y-128754190D02*
X145700571Y-128658952D01*
X145748190Y-128611333D01*
X145843428Y-128563714D01*
X145938666Y-128563714D01*
X146700571Y-129230380D02*
X146700571Y-128706571D01*
X146652952Y-128611333D01*
X146557714Y-128563714D01*
X146367238Y-128563714D01*
X146272000Y-128611333D01*
X146700571Y-129182761D02*
X146605333Y-129230380D01*
X146367238Y-129230380D01*
X146272000Y-129182761D01*
X146224380Y-129087523D01*
X146224380Y-128992285D01*
X146272000Y-128897047D01*
X146367238Y-128849428D01*
X146605333Y-128849428D01*
X146700571Y-128801809D01*
X147605333Y-129182761D02*
X147510095Y-129230380D01*
X147319619Y-129230380D01*
X147224380Y-129182761D01*
X147176761Y-129135142D01*
X147129142Y-129039904D01*
X147129142Y-128754190D01*
X147176761Y-128658952D01*
X147224380Y-128611333D01*
X147319619Y-128563714D01*
X147510095Y-128563714D01*
X147605333Y-128611333D01*
X148414857Y-129182761D02*
X148319619Y-129230380D01*
X148129142Y-129230380D01*
X148033904Y-129182761D01*
X147986285Y-129087523D01*
X147986285Y-128706571D01*
X148033904Y-128611333D01*
X148129142Y-128563714D01*
X148319619Y-128563714D01*
X148414857Y-128611333D01*
X148462476Y-128706571D01*
X148462476Y-128801809D01*
X147986285Y-128897047D01*
X148891047Y-129230380D02*
X148891047Y-128563714D01*
X148891047Y-128754190D02*
X148938666Y-128658952D01*
X148986285Y-128611333D01*
X149081523Y-128563714D01*
X149176761Y-128563714D01*
X143200380Y-117664857D02*
X143200380Y-118141047D01*
X142200380Y-118141047D01*
X143152761Y-116950571D02*
X143200380Y-117045809D01*
X143200380Y-117236285D01*
X143152761Y-117331523D01*
X143057523Y-117379142D01*
X142676571Y-117379142D01*
X142581333Y-117331523D01*
X142533714Y-117236285D01*
X142533714Y-117045809D01*
X142581333Y-116950571D01*
X142676571Y-116902952D01*
X142771809Y-116902952D01*
X142867047Y-117379142D01*
X142533714Y-116569619D02*
X143200380Y-116331523D01*
X142533714Y-116093428D01*
X143152761Y-115331523D02*
X143200380Y-115426761D01*
X143200380Y-115617238D01*
X143152761Y-115712476D01*
X143057523Y-115760095D01*
X142676571Y-115760095D01*
X142581333Y-115712476D01*
X142533714Y-115617238D01*
X142533714Y-115426761D01*
X142581333Y-115331523D01*
X142676571Y-115283904D01*
X142771809Y-115283904D01*
X142867047Y-115760095D01*
X143200380Y-114712476D02*
X143152761Y-114807714D01*
X143057523Y-114855333D01*
X142200380Y-114855333D01*
X143105142Y-112998190D02*
X143152761Y-113045809D01*
X143200380Y-113188666D01*
X143200380Y-113283904D01*
X143152761Y-113426761D01*
X143057523Y-113522000D01*
X142962285Y-113569619D01*
X142771809Y-113617238D01*
X142628952Y-113617238D01*
X142438476Y-113569619D01*
X142343238Y-113522000D01*
X142248000Y-113426761D01*
X142200380Y-113283904D01*
X142200380Y-113188666D01*
X142248000Y-113045809D01*
X142295619Y-112998190D01*
X143200380Y-112426761D02*
X143152761Y-112522000D01*
X143105142Y-112569619D01*
X143009904Y-112617238D01*
X142724190Y-112617238D01*
X142628952Y-112569619D01*
X142581333Y-112522000D01*
X142533714Y-112426761D01*
X142533714Y-112283904D01*
X142581333Y-112188666D01*
X142628952Y-112141047D01*
X142724190Y-112093428D01*
X143009904Y-112093428D01*
X143105142Y-112141047D01*
X143152761Y-112188666D01*
X143200380Y-112283904D01*
X143200380Y-112426761D01*
X142533714Y-111664857D02*
X143200380Y-111664857D01*
X142628952Y-111664857D02*
X142581333Y-111617238D01*
X142533714Y-111522000D01*
X142533714Y-111379142D01*
X142581333Y-111283904D01*
X142676571Y-111236285D01*
X143200380Y-111236285D01*
X142533714Y-110855333D02*
X143200380Y-110617238D01*
X142533714Y-110379142D01*
X143152761Y-109617238D02*
X143200380Y-109712476D01*
X143200380Y-109902952D01*
X143152761Y-109998190D01*
X143057523Y-110045809D01*
X142676571Y-110045809D01*
X142581333Y-109998190D01*
X142533714Y-109902952D01*
X142533714Y-109712476D01*
X142581333Y-109617238D01*
X142676571Y-109569619D01*
X142771809Y-109569619D01*
X142867047Y-110045809D01*
X143200380Y-109141047D02*
X142533714Y-109141047D01*
X142724190Y-109141047D02*
X142628952Y-109093428D01*
X142581333Y-109045809D01*
X142533714Y-108950571D01*
X142533714Y-108855333D01*
X142533714Y-108664857D02*
X142533714Y-108283904D01*
X142200380Y-108522000D02*
X143057523Y-108522000D01*
X143152761Y-108474380D01*
X143200380Y-108379142D01*
X143200380Y-108283904D01*
X143200380Y-107807714D02*
X143152761Y-107902952D01*
X143105142Y-107950571D01*
X143009904Y-107998190D01*
X142724190Y-107998190D01*
X142628952Y-107950571D01*
X142581333Y-107902952D01*
X142533714Y-107807714D01*
X142533714Y-107664857D01*
X142581333Y-107569619D01*
X142628952Y-107522000D01*
X142724190Y-107474380D01*
X143009904Y-107474380D01*
X143105142Y-107522000D01*
X143152761Y-107569619D01*
X143200380Y-107664857D01*
X143200380Y-107807714D01*
X143200380Y-107045809D02*
X142533714Y-107045809D01*
X142724190Y-107045809D02*
X142628952Y-106998190D01*
X142581333Y-106950571D01*
X142533714Y-106855333D01*
X142533714Y-106760095D01*
D11*
X152987428Y-117250666D02*
X154320761Y-117250666D01*
X152987428Y-118107809D02*
X154035047Y-118107809D01*
X154225523Y-118012571D01*
X154320761Y-117822095D01*
X154320761Y-117536380D01*
X154225523Y-117345904D01*
X154130285Y-117250666D01*
X152320761Y-116584000D02*
X152320761Y-115441142D01*
X154320761Y-116012571D02*
X152320761Y-116012571D01*
X154320761Y-114774476D02*
X152987428Y-114774476D01*
X153368380Y-114774476D02*
X153177904Y-114679238D01*
X153082666Y-114584000D01*
X152987428Y-114393523D01*
X152987428Y-114203047D01*
X154320761Y-112679238D02*
X153273142Y-112679238D01*
X153082666Y-112774476D01*
X152987428Y-112964952D01*
X152987428Y-113345904D01*
X153082666Y-113536380D01*
X154225523Y-112679238D02*
X154320761Y-112869714D01*
X154320761Y-113345904D01*
X154225523Y-113536380D01*
X154035047Y-113631619D01*
X153844571Y-113631619D01*
X153654095Y-113536380D01*
X153558857Y-113345904D01*
X153558857Y-112869714D01*
X153463619Y-112679238D01*
X154225523Y-110869714D02*
X154320761Y-111060190D01*
X154320761Y-111441142D01*
X154225523Y-111631619D01*
X154130285Y-111726857D01*
X153939809Y-111822095D01*
X153368380Y-111822095D01*
X153177904Y-111726857D01*
X153082666Y-111631619D01*
X152987428Y-111441142D01*
X152987428Y-111060190D01*
X153082666Y-110869714D01*
X154225523Y-109250666D02*
X154320761Y-109441142D01*
X154320761Y-109822095D01*
X154225523Y-110012571D01*
X154035047Y-110107809D01*
X153273142Y-110107809D01*
X153082666Y-110012571D01*
X152987428Y-109822095D01*
X152987428Y-109441142D01*
X153082666Y-109250666D01*
X153273142Y-109155428D01*
X153463619Y-109155428D01*
X153654095Y-110107809D01*
X154320761Y-108298285D02*
X152987428Y-108298285D01*
X153368380Y-108298285D02*
X153177904Y-108203047D01*
X153082666Y-108107809D01*
X152987428Y-107917333D01*
X152987428Y-107726857D01*
X154320761Y-105536380D02*
X152320761Y-105536380D01*
X152987428Y-104584000D02*
X154320761Y-104584000D01*
X153177904Y-104584000D02*
X153082666Y-104488761D01*
X152987428Y-104298285D01*
X152987428Y-104012571D01*
X153082666Y-103822095D01*
X153273142Y-103726857D01*
X154320761Y-103726857D01*
X152987428Y-103060190D02*
X152987428Y-102298285D01*
X152320761Y-102774476D02*
X154035047Y-102774476D01*
X154225523Y-102679238D01*
X154320761Y-102488761D01*
X154320761Y-102298285D01*
X154225523Y-100869714D02*
X154320761Y-101060190D01*
X154320761Y-101441142D01*
X154225523Y-101631619D01*
X154035047Y-101726857D01*
X153273142Y-101726857D01*
X153082666Y-101631619D01*
X152987428Y-101441142D01*
X152987428Y-101060190D01*
X153082666Y-100869714D01*
X153273142Y-100774476D01*
X153463619Y-100774476D01*
X153654095Y-101726857D01*
X154320761Y-99917333D02*
X152987428Y-99917333D01*
X153368380Y-99917333D02*
X153177904Y-99822095D01*
X153082666Y-99726857D01*
X152987428Y-99536380D01*
X152987428Y-99345904D01*
X152987428Y-98964952D02*
X152987428Y-98203047D01*
X154320761Y-98679238D02*
X152606476Y-98679238D01*
X152416000Y-98584000D01*
X152320761Y-98393523D01*
X152320761Y-98203047D01*
X154320761Y-96679238D02*
X153273142Y-96679238D01*
X153082666Y-96774476D01*
X152987428Y-96964952D01*
X152987428Y-97345904D01*
X153082666Y-97536380D01*
X154225523Y-96679238D02*
X154320761Y-96869714D01*
X154320761Y-97345904D01*
X154225523Y-97536380D01*
X154035047Y-97631619D01*
X153844571Y-97631619D01*
X153654095Y-97536380D01*
X153558857Y-97345904D01*
X153558857Y-96869714D01*
X153463619Y-96679238D01*
X154225523Y-94869714D02*
X154320761Y-95060190D01*
X154320761Y-95441142D01*
X154225523Y-95631619D01*
X154130285Y-95726857D01*
X153939809Y-95822095D01*
X153368380Y-95822095D01*
X153177904Y-95726857D01*
X153082666Y-95631619D01*
X152987428Y-95441142D01*
X152987428Y-95060190D01*
X153082666Y-94869714D01*
X154225523Y-93250666D02*
X154320761Y-93441142D01*
X154320761Y-93822095D01*
X154225523Y-94012571D01*
X154035047Y-94107809D01*
X153273142Y-94107809D01*
X153082666Y-94012571D01*
X152987428Y-93822095D01*
X152987428Y-93441142D01*
X153082666Y-93250666D01*
X153273142Y-93155428D01*
X153463619Y-93155428D01*
X153654095Y-94107809D01*
X153273142Y-90107809D02*
X153368380Y-89822095D01*
X153463619Y-89726857D01*
X153654095Y-89631619D01*
X153939809Y-89631619D01*
X154130285Y-89726857D01*
X154225523Y-89822095D01*
X154320761Y-90012571D01*
X154320761Y-90774476D01*
X152320761Y-90774476D01*
X152320761Y-90107809D01*
X152416000Y-89917333D01*
X152511238Y-89822095D01*
X152701714Y-89726857D01*
X152892190Y-89726857D01*
X153082666Y-89822095D01*
X153177904Y-89917333D01*
X153273142Y-90107809D01*
X153273142Y-90774476D01*
X154320761Y-88488761D02*
X154225523Y-88679238D01*
X154130285Y-88774476D01*
X153939809Y-88869714D01*
X153368380Y-88869714D01*
X153177904Y-88774476D01*
X153082666Y-88679238D01*
X152987428Y-88488761D01*
X152987428Y-88203047D01*
X153082666Y-88012571D01*
X153177904Y-87917333D01*
X153368380Y-87822095D01*
X153939809Y-87822095D01*
X154130285Y-87917333D01*
X154225523Y-88012571D01*
X154320761Y-88203047D01*
X154320761Y-88488761D01*
X154320761Y-86107809D02*
X153273142Y-86107809D01*
X153082666Y-86203047D01*
X152987428Y-86393523D01*
X152987428Y-86774476D01*
X153082666Y-86964952D01*
X154225523Y-86107809D02*
X154320761Y-86298285D01*
X154320761Y-86774476D01*
X154225523Y-86964952D01*
X154035047Y-87060190D01*
X153844571Y-87060190D01*
X153654095Y-86964952D01*
X153558857Y-86774476D01*
X153558857Y-86298285D01*
X153463619Y-86107809D01*
X154320761Y-85155428D02*
X152987428Y-85155428D01*
X153368380Y-85155428D02*
X153177904Y-85060190D01*
X153082666Y-84964952D01*
X152987428Y-84774476D01*
X152987428Y-84584000D01*
X154320761Y-83060190D02*
X152320761Y-83060190D01*
X154225523Y-83060190D02*
X154320761Y-83250666D01*
X154320761Y-83631619D01*
X154225523Y-83822095D01*
X154130285Y-83917333D01*
X153939809Y-84012571D01*
X153368380Y-84012571D01*
X153177904Y-83917333D01*
X153082666Y-83822095D01*
X152987428Y-83631619D01*
X152987428Y-83250666D01*
X153082666Y-83060190D01*
X155388571Y-114584000D02*
X155388571Y-113726857D01*
X156888571Y-114155428D02*
X155388571Y-114155428D01*
X156888571Y-113226857D02*
X155888571Y-113226857D01*
X156174285Y-113226857D02*
X156031428Y-113155428D01*
X155960000Y-113084000D01*
X155888571Y-112941142D01*
X155888571Y-112798285D01*
X156888571Y-112298285D02*
X155888571Y-112298285D01*
X155388571Y-112298285D02*
X155460000Y-112369714D01*
X155531428Y-112298285D01*
X155460000Y-112226857D01*
X155388571Y-112298285D01*
X155531428Y-112298285D01*
X156817142Y-111655428D02*
X156888571Y-111512571D01*
X156888571Y-111226857D01*
X156817142Y-111084000D01*
X156674285Y-111012571D01*
X156602857Y-111012571D01*
X156460000Y-111084000D01*
X156388571Y-111226857D01*
X156388571Y-111441142D01*
X156317142Y-111584000D01*
X156174285Y-111655428D01*
X156102857Y-111655428D01*
X155960000Y-111584000D01*
X155888571Y-111441142D01*
X155888571Y-111226857D01*
X155960000Y-111084000D01*
X155888571Y-110584000D02*
X155888571Y-110012571D01*
X155388571Y-110369714D02*
X156674285Y-110369714D01*
X156817142Y-110298285D01*
X156888571Y-110155428D01*
X156888571Y-110012571D01*
X156888571Y-108869714D02*
X156102857Y-108869714D01*
X155960000Y-108941142D01*
X155888571Y-109084000D01*
X155888571Y-109369714D01*
X155960000Y-109512571D01*
X156817142Y-108869714D02*
X156888571Y-109012571D01*
X156888571Y-109369714D01*
X156817142Y-109512571D01*
X156674285Y-109584000D01*
X156531428Y-109584000D01*
X156388571Y-109512571D01*
X156317142Y-109369714D01*
X156317142Y-109012571D01*
X156245714Y-108869714D01*
X155888571Y-108155428D02*
X156888571Y-108155428D01*
X156031428Y-108155428D02*
X155960000Y-108084000D01*
X155888571Y-107941142D01*
X155888571Y-107726857D01*
X155960000Y-107584000D01*
X156102857Y-107512571D01*
X156888571Y-107512571D01*
X156745714Y-104798285D02*
X156817142Y-104869714D01*
X156888571Y-105084000D01*
X156888571Y-105226857D01*
X156817142Y-105441142D01*
X156674285Y-105584000D01*
X156531428Y-105655428D01*
X156245714Y-105726857D01*
X156031428Y-105726857D01*
X155745714Y-105655428D01*
X155602857Y-105584000D01*
X155460000Y-105441142D01*
X155388571Y-105226857D01*
X155388571Y-105084000D01*
X155460000Y-104869714D01*
X155531428Y-104798285D01*
X156888571Y-103941142D02*
X156817142Y-104084000D01*
X156745714Y-104155428D01*
X156602857Y-104226857D01*
X156174285Y-104226857D01*
X156031428Y-104155428D01*
X155960000Y-104084000D01*
X155888571Y-103941142D01*
X155888571Y-103726857D01*
X155960000Y-103584000D01*
X156031428Y-103512571D01*
X156174285Y-103441142D01*
X156602857Y-103441142D01*
X156745714Y-103512571D01*
X156817142Y-103584000D01*
X156888571Y-103726857D01*
X156888571Y-103941142D01*
X156888571Y-102584000D02*
X156817142Y-102726857D01*
X156674285Y-102798285D01*
X155388571Y-102798285D01*
X156888571Y-101798285D02*
X156817142Y-101941142D01*
X156674285Y-102012571D01*
X155388571Y-102012571D01*
X156888571Y-101226857D02*
X155888571Y-101226857D01*
X155388571Y-101226857D02*
X155460000Y-101298285D01*
X155531428Y-101226857D01*
X155460000Y-101155428D01*
X155388571Y-101226857D01*
X155531428Y-101226857D01*
X155888571Y-100512571D02*
X156888571Y-100512571D01*
X156031428Y-100512571D02*
X155960000Y-100441142D01*
X155888571Y-100298285D01*
X155888571Y-100084000D01*
X155960000Y-99941142D01*
X156102857Y-99869714D01*
X156888571Y-99869714D01*
X156817142Y-99226857D02*
X156888571Y-99084000D01*
X156888571Y-98798285D01*
X156817142Y-98655428D01*
X156674285Y-98584000D01*
X156602857Y-98584000D01*
X156460000Y-98655428D01*
X156388571Y-98798285D01*
X156388571Y-99012571D01*
X156317142Y-99155428D01*
X156174285Y-99226857D01*
X156102857Y-99226857D01*
X155960000Y-99155428D01*
X155888571Y-99012571D01*
X155888571Y-98798285D01*
X155960000Y-98655428D01*
X155388571Y-96369714D02*
X156460000Y-96369714D01*
X156674285Y-96441142D01*
X156817142Y-96584000D01*
X156888571Y-96798285D01*
X156888571Y-96941142D01*
X156888571Y-95012571D02*
X156102857Y-95012571D01*
X155960000Y-95084000D01*
X155888571Y-95226857D01*
X155888571Y-95512571D01*
X155960000Y-95655428D01*
X156817142Y-95012571D02*
X156888571Y-95155428D01*
X156888571Y-95512571D01*
X156817142Y-95655428D01*
X156674285Y-95726857D01*
X156531428Y-95726857D01*
X156388571Y-95655428D01*
X156317142Y-95512571D01*
X156317142Y-95155428D01*
X156245714Y-95012571D01*
X155888571Y-94298285D02*
X156888571Y-94298285D01*
X156031428Y-94298285D02*
X155960000Y-94226857D01*
X155888571Y-94084000D01*
X155888571Y-93869714D01*
X155960000Y-93726857D01*
X156102857Y-93655428D01*
X156888571Y-93655428D01*
X155531428Y-91869714D02*
X155460000Y-91798285D01*
X155388571Y-91655428D01*
X155388571Y-91298285D01*
X155460000Y-91155428D01*
X155531428Y-91084000D01*
X155674285Y-91012571D01*
X155817142Y-91012571D01*
X156031428Y-91084000D01*
X156888571Y-91941142D01*
X156888571Y-91012571D01*
X155388571Y-90084000D02*
X155388571Y-89941142D01*
X155460000Y-89798285D01*
X155531428Y-89726857D01*
X155674285Y-89655428D01*
X155960000Y-89584000D01*
X156317142Y-89584000D01*
X156602857Y-89655428D01*
X156745714Y-89726857D01*
X156817142Y-89798285D01*
X156888571Y-89941142D01*
X156888571Y-90084000D01*
X156817142Y-90226857D01*
X156745714Y-90298285D01*
X156602857Y-90369714D01*
X156317142Y-90441142D01*
X155960000Y-90441142D01*
X155674285Y-90369714D01*
X155531428Y-90298285D01*
X155460000Y-90226857D01*
X155388571Y-90084000D01*
X155531428Y-89012571D02*
X155460000Y-88941142D01*
X155388571Y-88798285D01*
X155388571Y-88441142D01*
X155460000Y-88298285D01*
X155531428Y-88226857D01*
X155674285Y-88155428D01*
X155817142Y-88155428D01*
X156031428Y-88226857D01*
X156888571Y-89084000D01*
X156888571Y-88155428D01*
X156888571Y-86726857D02*
X156888571Y-87584000D01*
X156888571Y-87155428D02*
X155388571Y-87155428D01*
X155602857Y-87298285D01*
X155745714Y-87441142D01*
X155817142Y-87584000D01*
D10*
X147891523Y-126198380D02*
X147415333Y-126198380D01*
X147367714Y-126674571D01*
X147415333Y-126626952D01*
X147510571Y-126579333D01*
X147748666Y-126579333D01*
X147843904Y-126626952D01*
X147891523Y-126674571D01*
X147939142Y-126769809D01*
X147939142Y-127007904D01*
X147891523Y-127103142D01*
X147843904Y-127150761D01*
X147748666Y-127198380D01*
X147510571Y-127198380D01*
X147415333Y-127150761D01*
X147367714Y-127103142D01*
X148224857Y-126198380D02*
X148558190Y-127198380D01*
X148891523Y-126198380D01*
%TO.C,D1*%
X128293904Y-119920380D02*
X128293904Y-118920380D01*
X128532000Y-118920380D01*
X128674857Y-118968000D01*
X128770095Y-119063238D01*
X128817714Y-119158476D01*
X128865333Y-119348952D01*
X128865333Y-119491809D01*
X128817714Y-119682285D01*
X128770095Y-119777523D01*
X128674857Y-119872761D01*
X128532000Y-119920380D01*
X128293904Y-119920380D01*
X129817714Y-119920380D02*
X129246285Y-119920380D01*
X129532000Y-119920380D02*
X129532000Y-118920380D01*
X129436761Y-119063238D01*
X129341523Y-119158476D01*
X129246285Y-119206095D01*
%TO.C,R2*%
X127706380Y-111672666D02*
X127230190Y-112006000D01*
X127706380Y-112244095D02*
X126706380Y-112244095D01*
X126706380Y-111863142D01*
X126754000Y-111767904D01*
X126801619Y-111720285D01*
X126896857Y-111672666D01*
X127039714Y-111672666D01*
X127134952Y-111720285D01*
X127182571Y-111767904D01*
X127230190Y-111863142D01*
X127230190Y-112244095D01*
X126801619Y-111291714D02*
X126754000Y-111244095D01*
X126706380Y-111148857D01*
X126706380Y-110910761D01*
X126754000Y-110815523D01*
X126801619Y-110767904D01*
X126896857Y-110720285D01*
X126992095Y-110720285D01*
X127134952Y-110767904D01*
X127706380Y-111339333D01*
X127706380Y-110720285D01*
%TO.C,R4*%
X131008380Y-111672666D02*
X130532190Y-112006000D01*
X131008380Y-112244095D02*
X130008380Y-112244095D01*
X130008380Y-111863142D01*
X130056000Y-111767904D01*
X130103619Y-111720285D01*
X130198857Y-111672666D01*
X130341714Y-111672666D01*
X130436952Y-111720285D01*
X130484571Y-111767904D01*
X130532190Y-111863142D01*
X130532190Y-112244095D01*
X130341714Y-110815523D02*
X131008380Y-110815523D01*
X129960761Y-111053619D02*
X130675047Y-111291714D01*
X130675047Y-110672666D01*
%TO.C,U1*%
X106008096Y-90952381D02*
X106008096Y-91761905D01*
X106055715Y-91857143D01*
X106103334Y-91904762D01*
X106198572Y-91952381D01*
X106389048Y-91952381D01*
X106484286Y-91904762D01*
X106531905Y-91857143D01*
X106579524Y-91761905D01*
X106579524Y-90952381D01*
X107579524Y-91952381D02*
X107008096Y-91952381D01*
X107293810Y-91952381D02*
X107293810Y-90952381D01*
X107198572Y-91095239D01*
X107103334Y-91190477D01*
X107008096Y-91238096D01*
X96888096Y-120638572D02*
X97221429Y-120638572D01*
X97364286Y-121162381D02*
X96888096Y-121162381D01*
X96888096Y-120162381D01*
X97364286Y-120162381D01*
X97792858Y-120495715D02*
X97792858Y-121162381D01*
X97792858Y-120590953D02*
X97840477Y-120543334D01*
X97935715Y-120495715D01*
X98078572Y-120495715D01*
X98173810Y-120543334D01*
X98221429Y-120638572D01*
X98221429Y-121162381D01*
X99126191Y-121162381D02*
X99126191Y-120638572D01*
X99078572Y-120543334D01*
X98983334Y-120495715D01*
X98792858Y-120495715D01*
X98697620Y-120543334D01*
X99126191Y-121114762D02*
X99030953Y-121162381D01*
X98792858Y-121162381D01*
X98697620Y-121114762D01*
X98650001Y-121019524D01*
X98650001Y-120924286D01*
X98697620Y-120829048D01*
X98792858Y-120781429D01*
X99030953Y-120781429D01*
X99126191Y-120733810D01*
X99602381Y-121162381D02*
X99602381Y-120162381D01*
X99602381Y-120543334D02*
X99697620Y-120495715D01*
X99888096Y-120495715D01*
X99983334Y-120543334D01*
X100030953Y-120590953D01*
X100078572Y-120686191D01*
X100078572Y-120971905D01*
X100030953Y-121067143D01*
X99983334Y-121114762D01*
X99888096Y-121162381D01*
X99697620Y-121162381D01*
X99602381Y-121114762D01*
X100650001Y-121162381D02*
X100554762Y-121114762D01*
X100507143Y-121019524D01*
X100507143Y-120162381D01*
X101411905Y-121114762D02*
X101316667Y-121162381D01*
X101126191Y-121162381D01*
X101030953Y-121114762D01*
X100983334Y-121019524D01*
X100983334Y-120638572D01*
X101030953Y-120543334D01*
X101126191Y-120495715D01*
X101316667Y-120495715D01*
X101411905Y-120543334D01*
X101459524Y-120638572D01*
X101459524Y-120733810D01*
X100983334Y-120829048D01*
X113270953Y-120638572D02*
X113413810Y-120686191D01*
X113461429Y-120733810D01*
X113509048Y-120829048D01*
X113509048Y-120971905D01*
X113461429Y-121067143D01*
X113413810Y-121114762D01*
X113318572Y-121162381D01*
X112937620Y-121162381D01*
X112937620Y-120162381D01*
X113270953Y-120162381D01*
X113366191Y-120210001D01*
X113413810Y-120257620D01*
X113461429Y-120352858D01*
X113461429Y-120448096D01*
X113413810Y-120543334D01*
X113366191Y-120590953D01*
X113270953Y-120638572D01*
X112937620Y-120638572D01*
X114080477Y-121162381D02*
X113985239Y-121114762D01*
X113937620Y-121067143D01*
X113890001Y-120971905D01*
X113890001Y-120686191D01*
X113937620Y-120590953D01*
X113985239Y-120543334D01*
X114080477Y-120495715D01*
X114223334Y-120495715D01*
X114318572Y-120543334D01*
X114366191Y-120590953D01*
X114413810Y-120686191D01*
X114413810Y-120971905D01*
X114366191Y-121067143D01*
X114318572Y-121114762D01*
X114223334Y-121162381D01*
X114080477Y-121162381D01*
X114985239Y-121162381D02*
X114890001Y-121114762D01*
X114842381Y-121067143D01*
X114794762Y-120971905D01*
X114794762Y-120686191D01*
X114842381Y-120590953D01*
X114890001Y-120543334D01*
X114985239Y-120495715D01*
X115128096Y-120495715D01*
X115223334Y-120543334D01*
X115270953Y-120590953D01*
X115318572Y-120686191D01*
X115318572Y-120971905D01*
X115270953Y-121067143D01*
X115223334Y-121114762D01*
X115128096Y-121162381D01*
X114985239Y-121162381D01*
X115604286Y-120495715D02*
X115985239Y-120495715D01*
X115747143Y-120162381D02*
X115747143Y-121019524D01*
X115794762Y-121114762D01*
X115890001Y-121162381D01*
X115985239Y-121162381D01*
X105508096Y-123972381D02*
X105508096Y-124781905D01*
X105555715Y-124877143D01*
X105603334Y-124924762D01*
X105698572Y-124972381D01*
X105889048Y-124972381D01*
X105984286Y-124924762D01*
X106031905Y-124877143D01*
X106079524Y-124781905D01*
X106079524Y-123972381D01*
X106508096Y-124924762D02*
X106650953Y-124972381D01*
X106889048Y-124972381D01*
X106984286Y-124924762D01*
X107031905Y-124877143D01*
X107079524Y-124781905D01*
X107079524Y-124686667D01*
X107031905Y-124591429D01*
X106984286Y-124543810D01*
X106889048Y-124496191D01*
X106698572Y-124448572D01*
X106603334Y-124400953D01*
X106555715Y-124353334D01*
X106508096Y-124258096D01*
X106508096Y-124162858D01*
X106555715Y-124067620D01*
X106603334Y-124020001D01*
X106698572Y-123972381D01*
X106936667Y-123972381D01*
X107079524Y-124020001D01*
X107841429Y-124448572D02*
X107984286Y-124496191D01*
X108031905Y-124543810D01*
X108079524Y-124639048D01*
X108079524Y-124781905D01*
X108031905Y-124877143D01*
X107984286Y-124924762D01*
X107889048Y-124972381D01*
X107508096Y-124972381D01*
X107508096Y-123972381D01*
X107841429Y-123972381D01*
X107936667Y-124020001D01*
X107984286Y-124067620D01*
X108031905Y-124162858D01*
X108031905Y-124258096D01*
X107984286Y-124353334D01*
X107936667Y-124400953D01*
X107841429Y-124448572D01*
X107508096Y-124448572D01*
%TO.C,R3*%
X124404380Y-111672666D02*
X123928190Y-112006000D01*
X124404380Y-112244095D02*
X123404380Y-112244095D01*
X123404380Y-111863142D01*
X123452000Y-111767904D01*
X123499619Y-111720285D01*
X123594857Y-111672666D01*
X123737714Y-111672666D01*
X123832952Y-111720285D01*
X123880571Y-111767904D01*
X123928190Y-111863142D01*
X123928190Y-112244095D01*
X123404380Y-111339333D02*
X123404380Y-110720285D01*
X123785333Y-111053619D01*
X123785333Y-110910761D01*
X123832952Y-110815523D01*
X123880571Y-110767904D01*
X123975809Y-110720285D01*
X124213904Y-110720285D01*
X124309142Y-110767904D01*
X124356761Y-110815523D01*
X124404380Y-110910761D01*
X124404380Y-111196476D01*
X124356761Y-111291714D01*
X124309142Y-111339333D01*
%TO.C,R1*%
X134310380Y-111672666D02*
X133834190Y-112006000D01*
X134310380Y-112244095D02*
X133310380Y-112244095D01*
X133310380Y-111863142D01*
X133358000Y-111767904D01*
X133405619Y-111720285D01*
X133500857Y-111672666D01*
X133643714Y-111672666D01*
X133738952Y-111720285D01*
X133786571Y-111767904D01*
X133834190Y-111863142D01*
X133834190Y-112244095D01*
X134310380Y-110720285D02*
X134310380Y-111291714D01*
X134310380Y-111006000D02*
X133310380Y-111006000D01*
X133453238Y-111101238D01*
X133548476Y-111196476D01*
X133596095Y-111291714D01*
%TO.C,D3*%
X133373904Y-119920380D02*
X133373904Y-118920380D01*
X133612000Y-118920380D01*
X133754857Y-118968000D01*
X133850095Y-119063238D01*
X133897714Y-119158476D01*
X133945333Y-119348952D01*
X133945333Y-119491809D01*
X133897714Y-119682285D01*
X133850095Y-119777523D01*
X133754857Y-119872761D01*
X133612000Y-119920380D01*
X133373904Y-119920380D01*
X134278666Y-118920380D02*
X134897714Y-118920380D01*
X134564380Y-119301333D01*
X134707238Y-119301333D01*
X134802476Y-119348952D01*
X134850095Y-119396571D01*
X134897714Y-119491809D01*
X134897714Y-119729904D01*
X134850095Y-119825142D01*
X134802476Y-119872761D01*
X134707238Y-119920380D01*
X134421523Y-119920380D01*
X134326285Y-119872761D01*
X134278666Y-119825142D01*
%TO.C,D2*%
X123213904Y-119920380D02*
X123213904Y-118920380D01*
X123452000Y-118920380D01*
X123594857Y-118968000D01*
X123690095Y-119063238D01*
X123737714Y-119158476D01*
X123785333Y-119348952D01*
X123785333Y-119491809D01*
X123737714Y-119682285D01*
X123690095Y-119777523D01*
X123594857Y-119872761D01*
X123452000Y-119920380D01*
X123213904Y-119920380D01*
X124166285Y-119015619D02*
X124213904Y-118968000D01*
X124309142Y-118920380D01*
X124547238Y-118920380D01*
X124642476Y-118968000D01*
X124690095Y-119015619D01*
X124737714Y-119110857D01*
X124737714Y-119206095D01*
X124690095Y-119348952D01*
X124118666Y-119920380D01*
X124737714Y-119920380D01*
%TO.C,J2*%
X140128666Y-103592380D02*
X140128666Y-104306666D01*
X140081047Y-104449523D01*
X139985809Y-104544761D01*
X139842952Y-104592380D01*
X139747714Y-104592380D01*
X140557238Y-103687619D02*
X140604857Y-103640000D01*
X140700095Y-103592380D01*
X140938190Y-103592380D01*
X141033428Y-103640000D01*
X141081047Y-103687619D01*
X141128666Y-103782857D01*
X141128666Y-103878095D01*
X141081047Y-104020952D01*
X140509619Y-104592380D01*
X141128666Y-104592380D01*
%TO.C,J3*%
X144700666Y-103592380D02*
X144700666Y-104306666D01*
X144653047Y-104449523D01*
X144557809Y-104544761D01*
X144414952Y-104592380D01*
X144319714Y-104592380D01*
X145081619Y-103592380D02*
X145700666Y-103592380D01*
X145367333Y-103973333D01*
X145510190Y-103973333D01*
X145605428Y-104020952D01*
X145653047Y-104068571D01*
X145700666Y-104163809D01*
X145700666Y-104401904D01*
X145653047Y-104497142D01*
X145605428Y-104544761D01*
X145510190Y-104592380D01*
X145224476Y-104592380D01*
X145129238Y-104544761D01*
X145081619Y-104497142D01*
%TO.C,J4*%
X137628380Y-124031333D02*
X138342666Y-124031333D01*
X138485523Y-124078952D01*
X138580761Y-124174190D01*
X138628380Y-124317047D01*
X138628380Y-124412285D01*
X137961714Y-123126571D02*
X138628380Y-123126571D01*
X137580761Y-123364666D02*
X138295047Y-123602761D01*
X138295047Y-122983714D01*
%TO.C,Brd1*%
X134469333Y-87558571D02*
X134612190Y-87606190D01*
X134659809Y-87653809D01*
X134707428Y-87749047D01*
X134707428Y-87891904D01*
X134659809Y-87987142D01*
X134612190Y-88034761D01*
X134516952Y-88082380D01*
X134136000Y-88082380D01*
X134136000Y-87082380D01*
X134469333Y-87082380D01*
X134564571Y-87130000D01*
X134612190Y-87177619D01*
X134659809Y-87272857D01*
X134659809Y-87368095D01*
X134612190Y-87463333D01*
X134564571Y-87510952D01*
X134469333Y-87558571D01*
X134136000Y-87558571D01*
X135136000Y-88082380D02*
X135136000Y-87415714D01*
X135136000Y-87606190D02*
X135183619Y-87510952D01*
X135231238Y-87463333D01*
X135326476Y-87415714D01*
X135421714Y-87415714D01*
X136183619Y-88082380D02*
X136183619Y-87082380D01*
X136183619Y-88034761D02*
X136088380Y-88082380D01*
X135897904Y-88082380D01*
X135802666Y-88034761D01*
X135755047Y-87987142D01*
X135707428Y-87891904D01*
X135707428Y-87606190D01*
X135755047Y-87510952D01*
X135802666Y-87463333D01*
X135897904Y-87415714D01*
X136088380Y-87415714D01*
X136183619Y-87463333D01*
X137183619Y-88082380D02*
X136612190Y-88082380D01*
X136897904Y-88082380D02*
X136897904Y-87082380D01*
X136802666Y-87225238D01*
X136707428Y-87320476D01*
X136612190Y-87368095D01*
D12*
%TO.C,D1*%
X127472000Y-123508000D02*
X127472000Y-123664000D01*
X127472000Y-121192000D02*
X127472000Y-121348000D01*
X130704335Y-121349392D02*
G75*
G03*
X127472000Y-121192484I-1672335J-1078609D01*
G01*
X130073130Y-121348163D02*
G75*
G03*
X127991039Y-121348000I-1041130J-1079837D01*
G01*
X127991039Y-123508000D02*
G75*
G03*
X130073130Y-123507837I1040961J1080000D01*
G01*
X127472000Y-123663516D02*
G75*
G03*
X130704335Y-123506608I1560000J1235517D01*
G01*
%TO.C,R2*%
X128624000Y-108236000D02*
X125884000Y-108236000D01*
X128624000Y-114776000D02*
X128624000Y-108236000D01*
X127254000Y-115546000D02*
X127254000Y-114776000D01*
X127254000Y-107466000D02*
X127254000Y-108236000D01*
X125884000Y-108236000D02*
X125884000Y-114776000D01*
X125884000Y-114776000D02*
X128624000Y-114776000D01*
%TO.C,R4*%
X130556000Y-107466000D02*
X130556000Y-108236000D01*
X129186000Y-114776000D02*
X131926000Y-114776000D01*
X131926000Y-108236000D02*
X129186000Y-108236000D01*
X129186000Y-108236000D02*
X129186000Y-114776000D01*
X131926000Y-114776000D02*
X131926000Y-108236000D01*
X130556000Y-115546000D02*
X130556000Y-114776000D01*
%TO.C,U1*%
X101690001Y-79054001D02*
X104230001Y-79054001D01*
X99150001Y-80578001D02*
X99150001Y-77022001D01*
X115660001Y-81340001D02*
X97880001Y-81340001D01*
X102770001Y-120490001D02*
X102770001Y-126490001D01*
X115660001Y-76260001D02*
X115660001Y-81340001D01*
X113120001Y-121980001D02*
X115660001Y-121980001D01*
X113120001Y-125790001D02*
X113120001Y-121980001D01*
X104230001Y-77022001D02*
X106770001Y-77022001D01*
X114390001Y-77022001D02*
X114390001Y-80578001D01*
X100420001Y-125790001D02*
X97880001Y-125790001D01*
X99150001Y-77022001D02*
X101690001Y-77022001D01*
X115660001Y-121980001D02*
X115660001Y-125790001D01*
X120770001Y-124490001D02*
X120770001Y-76990001D01*
X106770001Y-79054001D02*
X109310001Y-79054001D01*
X114270001Y-81990001D02*
X114270001Y-99990001D01*
X99270001Y-81990001D02*
X114270001Y-81990001D01*
X114270001Y-99990001D02*
X99270001Y-99990001D01*
X94770001Y-74990001D02*
X118770001Y-74990001D01*
X99270001Y-99990001D02*
X99270001Y-81990001D01*
X100420001Y-121980001D02*
X100420001Y-125790001D01*
X97880001Y-76260001D02*
X115660001Y-76260001D01*
X106770001Y-77022001D02*
X106770001Y-79054001D01*
X97880001Y-121980001D02*
X100420001Y-121980001D01*
X109310001Y-77022001D02*
X114390001Y-77022001D01*
X104230001Y-79054001D02*
X104230001Y-77022001D01*
X109310001Y-79054001D02*
X109310001Y-77022001D01*
X97880001Y-125790001D02*
X97880001Y-121980001D01*
X115660001Y-125790001D02*
X113120001Y-125790001D01*
X102770001Y-120490001D02*
X110770001Y-120490001D01*
X110770001Y-120490001D02*
X110770001Y-126490001D01*
X101690001Y-77022001D02*
X101690001Y-79054001D01*
X111850001Y-77022001D02*
X111850001Y-80578001D01*
X92770001Y-76990001D02*
X92770001Y-124490001D01*
X94770001Y-126490001D02*
X118770001Y-126490001D01*
X97880001Y-81340001D02*
X97880001Y-76260001D01*
X120770001Y-76990001D02*
G75*
G03*
X118770001Y-74990001I-1999999J1D01*
G01*
X118770001Y-126490001D02*
G75*
G03*
X120770001Y-124490001I1J1999999D01*
G01*
X92770001Y-124490001D02*
G75*
G03*
X94770001Y-126490001I1999999J-1D01*
G01*
X94770001Y-74990001D02*
G75*
G03*
X92770001Y-76990001I-1J-1999999D01*
G01*
X119970001Y-124490001D02*
G75*
G03*
X119970001Y-124490001I-1500000J0D01*
G01*
D13*
X99450001Y-123885001D02*
G75*
G03*
X99450001Y-123885001I-300000J0D01*
G01*
D12*
X119970001Y-76990001D02*
G75*
G03*
X119970001Y-76990001I-1500000J0D01*
G01*
X96570001Y-124490001D02*
G75*
G03*
X96570001Y-124490001I-1500000J0D01*
G01*
X96570001Y-76990001D02*
G75*
G03*
X96570001Y-76990001I-1500000J0D01*
G01*
D14*
X102090001Y-97850001D02*
G75*
G03*
X102090001Y-97850001I-400000J0D01*
G01*
D13*
X114690001Y-123885001D02*
G75*
G03*
X114690001Y-123885001I-300000J0D01*
G01*
D12*
%TO.C,R3*%
X125322000Y-108236000D02*
X122582000Y-108236000D01*
X123952000Y-107466000D02*
X123952000Y-108236000D01*
X123952000Y-115546000D02*
X123952000Y-114776000D01*
X125322000Y-114776000D02*
X125322000Y-108236000D01*
X122582000Y-114776000D02*
X125322000Y-114776000D01*
X122582000Y-108236000D02*
X122582000Y-114776000D01*
%TO.C,R1*%
X133858000Y-115546000D02*
X133858000Y-114776000D01*
X135228000Y-108236000D02*
X132488000Y-108236000D01*
X133858000Y-107466000D02*
X133858000Y-108236000D01*
X132488000Y-108236000D02*
X132488000Y-114776000D01*
X132488000Y-114776000D02*
X135228000Y-114776000D01*
X135228000Y-114776000D02*
X135228000Y-108236000D01*
%TO.C,D3*%
X132552000Y-123508000D02*
X132552000Y-123664000D01*
X132552000Y-121192000D02*
X132552000Y-121348000D01*
X132552000Y-123663516D02*
G75*
G03*
X135784335Y-123506608I1560000J1235517D01*
G01*
X135784335Y-121349392D02*
G75*
G03*
X132552000Y-121192484I-1672335J-1078609D01*
G01*
X133071039Y-123508000D02*
G75*
G03*
X135153130Y-123507837I1040961J1080000D01*
G01*
X135153130Y-121348163D02*
G75*
G03*
X133071039Y-121348000I-1041130J-1079837D01*
G01*
%TO.C,D2*%
X122392000Y-123508000D02*
X122392000Y-123664000D01*
X122392000Y-121192000D02*
X122392000Y-121348000D01*
X125624335Y-121349392D02*
G75*
G03*
X122392000Y-121192484I-1672335J-1078609D01*
G01*
X122392000Y-123663516D02*
G75*
G03*
X125624335Y-123506608I1560000J1235517D01*
G01*
X122911039Y-123508000D02*
G75*
G03*
X124993130Y-123507837I1040961J1080000D01*
G01*
X124993130Y-121348163D02*
G75*
G03*
X122911039Y-121348000I-1041130J-1079837D01*
G01*
%TO.C,J2*%
X137668000Y-104080000D02*
X138998000Y-104080000D01*
X138998000Y-104080000D02*
X138998000Y-105410000D01*
X136338000Y-106680000D02*
X136338000Y-119440000D01*
X136338000Y-119440000D02*
X138998000Y-119440000D01*
X138998000Y-106680000D02*
X138998000Y-119440000D01*
X136338000Y-106680000D02*
X138998000Y-106680000D01*
%TO.C,J3*%
X149158000Y-106680000D02*
X149158000Y-119440000D01*
X146498000Y-106680000D02*
X146498000Y-119440000D01*
X149158000Y-104080000D02*
X149158000Y-105410000D01*
X147828000Y-104080000D02*
X149158000Y-104080000D01*
X146498000Y-119440000D02*
X149158000Y-119440000D01*
X146498000Y-106680000D02*
X149158000Y-106680000D01*
%TO.C,J4*%
X146812000Y-122622000D02*
X146812000Y-125282000D01*
X146812000Y-125282000D02*
X139132000Y-125282000D01*
X149412000Y-123952000D02*
X149412000Y-125282000D01*
X146812000Y-122622000D02*
X139132000Y-122622000D01*
X139132000Y-122622000D02*
X139132000Y-125282000D01*
X149412000Y-125282000D02*
X148082000Y-125282000D01*
%TO.C,Brd1*%
X149636000Y-102376000D02*
X122236000Y-102376000D01*
X149636000Y-75076000D02*
X149636000Y-102376000D01*
X130937000Y-75565000D02*
X130937000Y-77978000D01*
X122658000Y-78371000D02*
X145758000Y-78371000D01*
X145758000Y-94971000D02*
X149098000Y-94996000D01*
X145758000Y-78371000D02*
X148844000Y-78371000D01*
X122658000Y-94971000D02*
X122658000Y-78371000D01*
X140716000Y-77978000D02*
X130937000Y-77978000D01*
X149098000Y-78359000D02*
X148844000Y-78371000D01*
X149098000Y-94996000D02*
X149098000Y-78359000D01*
X145758000Y-94971000D02*
X122658000Y-94971000D01*
X122236000Y-75076000D02*
X149636000Y-75076000D01*
X140716000Y-75565000D02*
X140716000Y-77978000D01*
X130937000Y-75565000D02*
X140716000Y-75565000D01*
X122236000Y-102376000D02*
X122236000Y-75076000D01*
%TD*%
M02*
